<svg width="188" height="187" viewBox="0 0 188 187" fill="none" xmlns="http://www.w3.org/2000/svg">
<path d="M78.1285 98.779C78.1285 98.779 73.4339 101.636 81.3937 102.452C90.9864 103.677 96.0885 103.473 106.701 101.432C106.701 101.432 109.558 103.268 113.436 104.697C89.5575 114.9 59.3507 104.084 78.1289 98.779H78.1285ZM75.0673 85.5149C75.0673 85.5149 69.9651 89.3918 77.9244 90.209C88.3333 91.2292 96.4971 91.4328 110.579 88.5761C110.579 88.5761 112.416 90.6166 115.477 91.6368C86.7004 100.208 54.4521 92.453 75.0663 85.5154L75.0673 85.5149ZM131.397 108.776C131.397 108.776 134.867 111.632 127.52 113.878C113.845 117.959 70.1711 119.183 57.9239 113.878C53.6379 112.042 61.8017 109.388 64.4544 108.98C67.1075 108.368 68.5363 108.368 68.5363 108.368C63.8427 105.103 37.3102 115.102 55.0662 117.959C103.843 125.917 144.049 114.49 131.397 108.775L131.397 108.776ZM80.3749 71.6367C80.3749 71.6367 58.1294 76.942 72.4156 78.7789C78.5385 79.5951 90.5797 79.391 101.805 78.5744C110.988 77.7582 120.173 76.1253 120.173 76.1253C120.173 76.1253 116.908 77.5536 114.662 78.982C92.0085 84.8998 48.5382 82.2467 60.986 76.1253C71.5984 71.0236 80.3744 71.6358 80.3744 71.6358L80.3749 71.6367ZM120.172 93.8794C143.03 82.0437 132.418 70.6165 125.071 72.0448C123.234 72.4524 122.417 72.8605 122.417 72.8605C122.417 72.8605 123.03 71.6363 124.458 71.2282C138.948 66.1265 150.378 86.5322 119.764 94.491C119.764 94.491 119.968 94.2865 120.172 93.8789V93.8794ZM82.6194 126.121C104.661 127.55 138.332 125.305 139.154 114.898C139.154 114.898 137.521 118.979 120.99 122.04C102.214 125.509 78.948 125.101 65.2773 122.856C65.2773 122.856 68.1345 125.305 82.6248 126.121L82.6194 126.121Z" fill="#4E7896"/>
<mask id="mask0_201_282" style="mask-type:luminance" maskUnits="userSpaceOnUse" x="46" y="4" width="91" height="179">
<path d="M46.4487 4.29492H136.991V182.443H46.4487V4.29492Z" fill="white"/>
</mask>
<g mask="url(#mask0_201_282)">
<path d="M106.291 4.29492C106.291 4.29492 118.945 17.1504 94.25 36.5364C74.4535 52.2495 89.76 61.2286 94.25 71.4314C82.6169 61.024 74.249 51.8414 79.9638 43.2709C88.3326 30.619 111.396 24.501 106.293 4.29492H106.291ZM99.7646 62.8619C105.683 69.596 98.1318 75.7184 98.1318 75.7184C98.1318 75.7184 113.234 67.9641 106.295 58.3729C99.9682 49.1902 95.0701 44.7012 121.602 29.4001C121.602 29.4001 79.7636 39.8075 99.7637 62.8663L99.7646 62.8619ZM84.6588 172.441V152.443C84.6588 147.341 81.8017 143.872 74.6585 143.872C70.5766 143.872 67.1073 144.892 64.0456 146.112L65.0664 149.786C67.3075 148.969 70.1685 148.153 73.2302 148.153C77.1081 148.153 78.9445 149.786 78.9445 153.051V155.704H76.904C67.1073 155.704 62.6173 159.377 62.6173 165.294C62.6173 170.192 65.6785 173.049 71.1892 173.049C74.659 173.049 77.3121 171.416 79.7617 169.376L80.1698 172.436H84.6598L84.6588 172.441ZM78.944 165.911C76.9035 167.748 74.6585 168.768 72.6171 168.768C69.964 168.768 68.3316 167.135 68.3316 164.278C68.3316 161.421 69.9645 159.381 76.495 159.381H78.9445V165.906L78.944 165.911ZM103.844 172.441H96.7005L88.1296 144.484H94.2524L99.5586 161.625L100.783 166.726C103.436 159.38 105.477 151.83 106.294 144.484H112.416C110.783 153.667 107.926 163.666 103.845 172.441H103.844ZM136.906 172.441V152.443C136.906 147.341 134.049 143.872 126.905 143.872C122.823 143.872 119.354 144.892 116.292 146.112L117.109 149.786C119.559 148.969 122.415 148.153 125.477 148.153C129.355 148.153 131.191 149.786 131.191 153.051V155.704H129.151C119.355 155.704 114.865 159.377 114.865 165.294C114.865 170.192 117.722 173.049 123.232 173.049C126.906 173.049 129.559 171.416 132.008 169.376L132.416 172.436H136.906V172.441ZM131.191 165.911C129.151 167.748 126.906 168.768 124.864 168.768C122.211 168.768 120.579 167.135 120.579 164.278C120.579 161.421 122.212 159.381 128.742 159.381H131.192V165.906L131.191 165.911ZM56.2918 177.134C54.659 179.584 52.2099 181.419 49.1482 182.44L46.4937 179.177C48.5341 177.953 50.5756 176.117 51.3918 174.483C52.208 173.055 52.4125 171.014 52.4125 166.321V134.487H58.5354V165.913C58.5354 172.239 57.9232 174.688 56.2943 177.137L56.2918 177.134Z" fill="#F58219"/>
</g>
</svg>
