<svg width="187" height="187" viewBox="0 0 187 187" fill="none" xmlns="http://www.w3.org/2000/svg">
<mask id="mask0_201_348" style="mask-type:luminance" maskUnits="userSpaceOnUse" x="7" y="7" width="123" height="132">
<path d="M7.93298 7.74707H129.817V138.544H7.93298V7.74707Z" fill="white"/>
</mask>
<g mask="url(#mask0_201_348)">
<path d="M95.8698 7.7474C88.8598 7.76975 84.0001 8.38724 78.126 9.40116C60.7795 12.4206 57.6192 18.7621 57.6192 30.4482V48.3087H98.1911V57.3227H36.4677C24.5844 57.3227 14.1842 62.9199 10.8889 76.337C7.1655 91.7368 6.99837 101.381 10.8889 117.462C13.8417 129.454 20.347 138.446 32.2342 138.446H48.6076V115.443C48.6076 102.076 60.7163 88.8704 74.592 88.8704H107.212C118.586 88.8704 129.752 80.4787 129.752 69.1439V30.4482C129.752 19.4558 121.822 11.2356 110.737 9.39242C111.012 9.36521 102.821 7.7202 95.8698 7.7474ZM73.4018 25.7745C77.1028 25.7745 80.164 28.8255 80.164 32.544C80.164 36.298 77.1028 39.2951 73.4018 39.2951C69.6283 39.2951 66.6395 36.3024 66.6395 32.544C66.6395 28.8391 69.6283 25.7745 73.4018 25.7745Z" fill="#0277BD"/>
</g>
<mask id="mask1_201_348" style="mask-type:luminance" maskUnits="userSpaceOnUse" x="57" y="48" width="123" height="132">
<path d="M57.5575 48.248H179.442V179.006H57.5575V48.248Z" fill="white"/>
</mask>
<g mask="url(#mask1_201_348)">
<path d="M91.5011 179.007C98.5111 178.985 103.371 178.367 109.245 177.353C126.592 174.334 129.752 167.993 129.752 156.306V138.446H89.1798V129.432H150.908C162.791 129.432 173.191 123.834 176.486 110.418C180.21 95.0175 180.377 85.3729 176.486 69.2925C173.529 57.2998 167.024 48.3086 155.137 48.3086H138.763V71.3116C138.763 84.6791 126.655 97.8839 112.779 97.8839H80.159C68.7853 97.8839 57.619 106.276 57.619 117.61V156.306C57.619 167.298 65.5487 175.519 76.6338 177.362C76.3588 177.389 84.5499 179.034 91.5011 179.007ZM113.974 160.98C110.273 160.98 107.212 157.929 107.212 154.211C107.212 150.456 110.273 147.459 113.974 147.459C117.747 147.459 120.736 150.452 120.736 154.211C120.736 157.915 117.743 160.98 113.974 160.98Z" fill="#FFC107"/>
</g>
</svg>
