<svg width="50" height="49" viewBox="0 0 50 49" fill="none" xmlns="http://www.w3.org/2000/svg">
<path fill-rule="evenodd" clip-rule="evenodd" d="M24.2585 0.775425C25.036 0.339019 25.9933 0.339019 26.7698 0.775425C30.6115 2.93232 42.1725 9.42482 46.0155 11.5817C46.793 12.017 47.2717 12.8233 47.2717 13.6962C47.2717 18.01 47.2717 30.9939 47.2717 35.3077C47.2717 36.1805 46.793 36.9868 46.0155 37.4233C42.1736 39.5802 30.6127 46.0727 26.7698 48.2296C25.9921 48.666 25.0349 48.666 24.2585 48.2296C20.4166 46.0727 8.85567 39.5802 5.01274 37.4233C4.2364 36.9868 3.75763 36.1816 3.75763 35.3088C3.75763 30.9949 3.75763 18.0112 3.75763 13.6974C3.75763 12.8244 4.2364 12.0181 5.01389 11.5817C8.85452 9.42482 20.4178 2.93232 24.2585 0.775425Z" fill="#283593"/>
<path fill-rule="evenodd" clip-rule="evenodd" d="M4.10586 36.4199C3.80127 36.0121 3.75763 35.6249 3.75763 35.1038C3.75763 30.8151 3.75763 17.9058 3.75763 13.616C3.75763 12.7478 4.23525 11.9459 5.01045 11.513C8.83857 9.36872 20.3606 2.91399 24.1886 0.768582C24.9639 0.334472 26.014 0.343532 26.7892 0.777769C30.6173 2.92203 42.1004 9.32176 45.9285 11.466C46.2377 11.6402 46.4735 11.8497 46.6842 12.1259L4.10586 36.4199Z" fill="#5C6BC0"/>
<path fill-rule="evenodd" clip-rule="evenodd" d="M25.5146 8.46606C34.3628 8.46606 41.5461 15.6516 41.5461 24.5026C41.5461 33.3535 34.3628 40.539 25.5146 40.539C16.6664 40.539 9.48315 33.3535 9.48315 24.5026C9.48315 15.6516 16.6664 8.46606 25.5146 8.46606ZM25.5146 16.4843C29.9381 16.4843 33.5303 20.0765 33.5303 24.5026C33.5303 28.9275 29.9381 32.5207 25.5146 32.5207C21.0911 32.5207 17.4989 28.9275 17.4989 24.5026C17.4989 20.0765 21.0899 16.4843 25.5146 16.4843Z" fill="white"/>
<path fill-rule="evenodd" clip-rule="evenodd" d="M46.6819 12.137C47.2728 12.6903 47.2613 13.5241 47.2613 14.1805C47.2613 18.5275 47.2247 30.8917 47.2717 35.2387C47.2763 35.6923 47.1262 36.1699 46.9018 36.5296L25.0486 24.5023L46.6819 12.137Z" fill="#3949AB"/>
<path fill-rule="evenodd" clip-rule="evenodd" d="M33.5303 21.066H35.8206V27.9388H33.5303V21.066ZM41.5462 21.066H43.8363V27.9388H41.5462V21.066Z" fill="white"/>
<path fill-rule="evenodd" clip-rule="evenodd" d="M31.2402 23.3569H38.1108V25.6478H31.2402V23.3569ZM39.2559 23.3569H46.1265V25.6478H39.2559V23.3569Z" fill="white"/>
</svg>
