<svg width="48" height="48" viewBox="0 0 48 48" fill="none" xmlns="http://www.w3.org/2000/svg">
<path d="M43.275 11.5125L25.1625 1.08751C24.8625 0.900012 24.45 0.825012 24 0.825012C23.55 0.825012 23.1375 0.937512 22.8375 1.08751L4.8375 11.55C4.2 11.925 3.75 12.8625 3.75 13.575V34.4625C3.75 34.875 3.825 35.3625 4.125 35.775L44.175 12.525C43.95 12.075 43.6125 11.7375 43.275 11.5125Z" fill="#659AD3"/>
<path d="M4.01251 35.7375C4.20001 36.0375 4.46251 36.3 4.72501 36.45L22.8 46.9125C23.1 47.1 23.5125 47.175 23.9625 47.175C24.4125 47.175 24.825 47.0625 25.125 46.9125L43.125 36.45C43.7625 36.075 44.2125 35.1375 44.2125 34.425V13.5375C44.2125 13.2 44.175 12.825 43.9875 12.4875L4.01251 35.7375Z" fill="#03599C"/>
<path d="M31.9875 28.5375C30.4125 31.3125 27.4125 33.1875 24 33.1875C18.9375 33.1875 14.8125 29.0625 14.8125 24C14.8125 18.9375 18.9375 14.8125 24 14.8125C27.4125 14.8125 30.4125 16.6875 31.9875 19.5L36.8625 16.6875C34.3125 12.225 29.5125 9.1875 24 9.1875C15.825 9.1875 9.1875 15.825 9.1875 24C9.1875 32.175 15.825 38.8125 24 38.8125C29.475 38.8125 34.275 35.8125 36.825 31.3875L31.9875 28.5375Z" fill="white"/>
</svg>
