<svg width="48" height="48" viewBox="0 0 48 48" fill="none" xmlns="http://www.w3.org/2000/svg">
<path d="M8.5 3.86887e-06H39.5C40.6165 -0.00107545 41.7223 0.223684 42.7541 0.66142C43.7858 1.09916 44.7232 1.74127 45.5127 2.55102C46.3023 3.36078 46.9283 4.32226 47.3551 5.38046C47.7819 6.43866 48.001 7.57279 48 8.71795V39.2821C48.001 40.4272 47.7819 41.5613 47.3551 42.6195C46.9283 43.6777 46.3023 44.6392 45.5127 45.449C44.7232 46.2587 43.7858 46.9008 42.7541 47.3386C41.7223 47.7763 40.6165 48.0011 39.5 48H8.5C7.38347 48.0011 6.27769 47.7763 5.24595 47.3386C4.21421 46.9008 3.27676 46.2587 2.48725 45.449C1.69774 44.6392 1.07168 43.6777 0.644884 42.6195C0.218092 41.5613 -0.00104857 40.4272 3.77215e-06 39.2821V8.71795C-0.00104857 7.57279 0.218092 6.43866 0.644884 5.38046C1.07168 4.32226 1.69774 3.36078 2.48725 2.55102C3.27676 1.74127 4.21421 1.09916 5.24595 0.66142C6.27769 0.223684 7.38347 -0.00107545 8.5 3.86887e-06Z" fill="#F0F0F0"/>
<g clip-path="url(#clip0_153_687)">
<path d="M8.73602 33.8688L14.4504 29.4912C17.4864 33.4536 20.712 35.28 24.3024 35.28C27.8736 35.28 31.008 33.4752 33.9072 29.544L39.7032 33.816C35.52 39.4848 30.3216 42.48 24.3024 42.48C18.3024 42.48 13.0536 39.504 8.73602 33.8688Z" fill="url(#paint0_linear_153_687)"/>
<path d="M24.2832 14.8416L14.112 23.6064L9.4104 18.1536L24.3048 5.31842L39.0816 18.1632L34.3584 23.5968L24.2832 14.8416Z" fill="url(#paint1_linear_153_687)"/>
</g>
<defs>
<linearGradient id="paint0_linear_153_687" x1="8.73602" y1="38.3249" x2="39.7032" y2="38.3249" gradientUnits="userSpaceOnUse">
<stop stop-color="#8930FD"/>
<stop offset="1" stop-color="#49CCF9"/>
</linearGradient>
<linearGradient id="paint1_linear_153_687" x1="9.4104" y1="17.7561" x2="39.0816" y2="17.7561" gradientUnits="userSpaceOnUse">
<stop stop-color="#FF02F0"/>
<stop offset="1" stop-color="#FFC800"/>
</linearGradient>
<clipPath id="clip0_153_687">
<rect width="37.2" height="37.2" fill="white" transform="translate(5.52002 5.28003)"/>
</clipPath>
</defs>
</svg>
