<svg width="48" height="48" viewBox="0 0 48 48" fill="none" xmlns="http://www.w3.org/2000/svg">
<path d="M18.4013 12.2475C13.0125 11.265 8.75628 12.2925 7.05753 15.2475C5.79003 17.4413 6.15378 20.3513 7.93503 23.46C7.97123 23.523 8.01948 23.5783 8.07705 23.6227C8.13461 23.6671 8.20035 23.6997 8.27052 23.7187C8.34068 23.7377 8.4139 23.7426 8.48599 23.7333C8.55808 23.724 8.62762 23.7006 8.69066 23.6644C8.75369 23.6282 8.80898 23.5799 8.85337 23.5224C8.89775 23.4648 8.93036 23.3991 8.94934 23.3289C8.96832 23.2587 8.97329 23.1855 8.96397 23.1134C8.95465 23.0413 8.93123 22.9718 8.89503 22.9088C7.29003 20.1075 6.97503 17.595 8.01378 15.7838C9.42378 13.3425 13.2225 12.4088 18.2025 13.3313C18.3467 13.3576 18.4955 13.3256 18.6161 13.2423C18.7367 13.1589 18.8193 13.0311 18.8457 12.8869C18.872 12.7427 18.84 12.5939 18.7567 12.4733C18.6733 12.3527 18.5455 12.2701 18.4013 12.2438V12.2475ZM10.7363 27.2288C13.139 29.8038 15.9211 31.9966 18.9863 33.7313C26.8013 38.2313 35.1113 39.45 39.2363 36.6525C39.3571 36.57 39.4402 36.4428 39.4673 36.299C39.4944 36.1552 39.4632 36.0065 39.3807 35.8856C39.2981 35.7648 39.1709 35.6817 39.0271 35.6546C38.8833 35.6275 38.7346 35.6587 38.6138 35.7413C34.9163 38.25 27 37.095 19.5263 32.7713C16.5645 31.0926 13.876 28.972 11.5538 26.4825C11.4543 26.3741 11.3159 26.3096 11.1689 26.3033C11.0219 26.297 10.8784 26.3493 10.77 26.4488C10.6616 26.5482 10.5972 26.6867 10.5908 26.8336C10.5845 26.9806 10.6368 27.1241 10.7363 27.2325V27.2288Z" fill="#47848F"/>
<path d="M37.8975 26.5537C41.4263 22.3875 42.6563 18.195 40.9613 15.2625C39.7163 13.1025 37.08 11.9625 33.5775 11.9175C33.4308 11.9175 33.2901 11.9758 33.1864 12.0795C33.0827 12.1832 33.0244 12.3239 33.0244 12.4706C33.0244 12.6173 33.0827 12.758 33.1864 12.8617C33.2901 12.9655 33.4308 13.0237 33.5775 13.0237C36.7275 13.065 38.9963 14.0475 40.02 15.8175C41.4263 18.255 40.3275 21.9937 37.0688 25.845C37.022 25.9004 36.9866 25.9645 36.9646 26.0335C36.9425 26.1026 36.9343 26.1754 36.9404 26.2476C36.9465 26.3199 36.9668 26.3902 37.0001 26.4547C37.0334 26.5191 37.079 26.5763 37.1344 26.6231C37.1898 26.6699 37.2539 26.7053 37.323 26.7273C37.392 26.7493 37.4648 26.7575 37.5371 26.7514C37.6093 26.7454 37.6797 26.7251 37.7441 26.6918C37.8085 26.6585 37.8657 26.6129 37.9125 26.5575L37.8975 26.5537ZM28.8338 12.4312C25.3714 13.217 22.0511 14.5325 18.99 16.3312C10.9238 21 5.65877 27.8587 6.37502 32.8387C6.38561 32.9126 6.41065 32.9837 6.4487 33.0479C6.48675 33.112 6.53707 33.1681 6.59679 33.2129C6.65651 33.2576 6.72446 33.2902 6.79675 33.3086C6.86905 33.3271 6.94428 33.3312 7.01815 33.3206C7.09202 33.31 7.16308 33.285 7.22727 33.2469C7.29147 33.2089 7.34754 33.1586 7.39228 33.0988C7.43703 33.0391 7.46957 32.9712 7.48806 32.8989C7.50655 32.8266 7.51061 32.7513 7.50002 32.6775C6.83627 28.2562 11.8238 21.75 19.5413 17.2912C22.5023 15.5449 25.7151 14.266 29.0663 13.5C29.1372 13.4847 29.2044 13.4556 29.2641 13.4144C29.3237 13.3731 29.3747 13.3206 29.4141 13.2596C29.4534 13.1987 29.4804 13.1306 29.4934 13.0592C29.5064 12.9879 29.5053 12.9146 29.49 12.8437C29.4748 12.7728 29.4457 12.7056 29.4044 12.6459C29.3632 12.5863 29.3106 12.5353 29.2497 12.4959C29.1887 12.4566 29.1206 12.4296 29.0493 12.4166C28.9779 12.4036 28.9047 12.4047 28.8338 12.42V12.4312Z" fill="#47848F"/>
<path d="M15.75 36.2925C17.625 41.4412 20.625 44.625 24.0188 44.625C26.4938 44.625 28.7813 42.9375 30.5663 39.9675C30.6448 39.8427 30.6706 39.6918 30.6379 39.548C30.6052 39.4041 30.5167 39.2792 30.3919 39.2006C30.2671 39.1221 30.1162 39.0963 29.9723 39.129C29.8285 39.1617 29.7036 39.2502 29.625 39.375C28.02 42.045 26.0513 43.5 24.0225 43.5C21.2025 43.5 18.5138 40.6725 16.8075 35.91C16.7578 35.7723 16.6554 35.6599 16.5228 35.5977C16.3902 35.5354 16.2384 35.5284 16.1006 35.5781C15.9629 35.6279 15.8505 35.7303 15.7883 35.8628C15.7261 35.9954 15.719 36.1473 15.7688 36.285L15.75 36.2925ZM32.625 35.2837C33.6226 31.9637 34.1168 28.5128 34.0913 25.0462C34.0913 15.8925 30.8888 8.00625 26.325 5.9775C26.2585 5.94795 26.1869 5.93179 26.1142 5.92993C26.0414 5.92807 25.969 5.94056 25.9011 5.96667C25.8332 5.99279 25.7711 6.03203 25.7184 6.08214C25.6657 6.13225 25.6233 6.19227 25.5938 6.25875C25.5341 6.39301 25.5302 6.54548 25.5829 6.68262C25.6357 6.81976 25.7407 6.93032 25.875 6.99C29.9438 8.7975 33 16.2825 33 25.0462C33.025 28.401 32.5471 31.7406 31.5825 34.9538C31.5608 35.0229 31.553 35.0957 31.5595 35.1679C31.5659 35.2402 31.5866 35.3104 31.6202 35.3746C31.6538 35.4389 31.6997 35.4959 31.7553 35.5424C31.811 35.5889 31.8752 35.624 31.9444 35.6456C32.0136 35.6673 32.0864 35.6751 32.1586 35.6687C32.2308 35.6622 32.301 35.6416 32.3653 35.608C32.4295 35.5744 32.4865 35.5284 32.533 35.4728C32.5795 35.4172 32.6146 35.3529 32.6363 35.2837H32.625ZM43.0163 34.7438C43.0163 34.2209 42.8612 33.7097 42.5707 33.275C42.2802 32.8402 41.8673 32.5013 41.3842 32.3012C40.9012 32.1011 40.3696 32.0488 39.8567 32.1508C39.3439 32.2528 38.8728 32.5046 38.5031 32.8743C38.1334 33.2441 37.8816 33.7151 37.7796 34.228C37.6776 34.7408 37.7299 35.2724 37.93 35.7555C38.1301 36.2386 38.469 36.6515 38.9037 36.9419C39.3385 37.2324 39.8496 37.3875 40.3725 37.3875C40.7197 37.3875 41.0635 37.3191 41.3842 37.1863C41.705 37.0534 41.9964 36.8587 42.2419 36.6132C42.4874 36.3677 42.6822 36.0762 42.815 35.7555C42.9479 35.4347 43.0163 35.0909 43.0163 34.7438ZM41.91 34.7438C41.91 35.0478 41.8198 35.3451 41.6509 35.5979C41.482 35.8508 41.2418 36.0478 40.9609 36.1642C40.68 36.2806 40.3708 36.311 40.0726 36.2517C39.7743 36.1924 39.5004 36.046 39.2853 35.8309C39.0703 35.6159 38.9239 35.3419 38.8646 35.0437C38.8052 34.7455 38.8357 34.4363 38.9521 34.1554C39.0684 33.8744 39.2655 33.6343 39.5183 33.4654C39.7712 33.2964 40.0684 33.2063 40.3725 33.2063C40.7803 33.2063 41.1714 33.3682 41.4597 33.6566C41.748 33.9449 41.91 34.336 41.91 34.7438ZM7.62751 37.3875C8.1504 37.3875 8.66154 37.2324 9.0963 36.9419C9.53107 36.6515 9.86992 36.2386 10.07 35.7555C10.2701 35.2724 10.3225 34.7408 10.2205 34.228C10.1185 33.7151 9.86666 33.2441 9.49693 32.8743C9.12719 32.5046 8.65612 32.2528 8.14329 32.1508C7.63045 32.0488 7.09888 32.1011 6.6158 32.3012C6.13271 32.5013 5.71982 32.8402 5.42932 33.275C5.13882 33.7097 4.98376 34.2209 4.98376 34.7438C4.98376 35.4449 5.2623 36.1174 5.7581 36.6132C6.2539 37.109 6.92635 37.3875 7.62751 37.3875ZM7.62751 36.2812C7.32343 36.2812 7.02617 36.1911 6.77333 36.0221C6.52049 35.8532 6.32342 35.6131 6.20705 35.3321C6.09068 35.0512 6.06023 34.742 6.11956 34.4438C6.17888 34.1456 6.32531 33.8716 6.54034 33.6566C6.75536 33.4416 7.02932 33.2951 7.32756 33.2358C7.62581 33.1765 7.93495 33.2069 8.21589 33.3233C8.49683 33.4397 8.73696 33.6367 8.9059 33.8896C9.07484 34.1424 9.16502 34.4397 9.16502 34.7438C9.16502 35.1515 9.00303 35.5426 8.71469 35.8309C8.42635 36.1193 8.03529 36.2812 7.62751 36.2812Z" fill="#47848F"/>
<path d="M24.0188 8.67373C24.5416 8.67373 25.0528 8.51868 25.4875 8.22818C25.9223 7.93768 26.2612 7.52478 26.4613 7.0417C26.6614 6.55862 26.7137 6.02705 26.6117 5.51421C26.5097 5.00137 26.2579 4.5303 25.8882 4.16057C25.5184 3.79083 25.0474 3.53904 24.5345 3.43703C24.0217 3.33502 23.4901 3.38738 23.007 3.58748C22.5239 3.78757 22.1111 4.12643 21.8206 4.56119C21.5301 4.99596 21.375 5.5071 21.375 6.02998C21.375 6.73115 21.6535 7.4036 22.1493 7.8994C22.6451 8.3952 23.3176 8.67373 24.0188 8.67373ZM24.0188 7.56748C23.7147 7.56748 23.4174 7.47731 23.1646 7.30837C22.9117 7.13942 22.7147 6.8993 22.5983 6.61836C22.4819 6.33742 22.4515 6.02828 22.5108 5.73003C22.5701 5.43178 22.7166 5.15783 22.9316 4.94281C23.1466 4.72778 23.4206 4.58135 23.7188 4.52202C24.017 4.4627 24.3262 4.49315 24.6071 4.60952C24.8881 4.72589 25.1282 4.92295 25.2971 5.17579C25.4661 5.42863 25.5563 5.72589 25.5563 6.02998C25.5563 6.43775 25.3943 6.82882 25.1059 7.11716C24.8176 7.4055 24.4265 7.56748 24.0188 7.56748ZM24.4237 26.9137C24.0541 26.9964 23.6683 26.9675 23.3151 26.8307C22.9619 26.6938 22.6574 26.4552 22.44 26.145C22.2226 25.8349 22.1022 25.4671 22.0941 25.0885C22.0859 24.7098 22.1904 24.3372 22.3943 24.018C22.5981 23.6988 22.8922 23.4473 23.2391 23.2954C23.5861 23.1435 23.9704 23.0981 24.3432 23.1648C24.716 23.2316 25.0606 23.4075 25.3333 23.6704C25.606 23.9332 25.7946 24.2711 25.875 24.6412C25.9823 25.1349 25.8899 25.651 25.618 26.0767C25.3461 26.5025 24.9167 26.8034 24.4237 26.9137Z" fill="#47848F"/>
</svg>
