<svg width="27" height="21" viewBox="0 0 27 21" fill="none" xmlns="http://www.w3.org/2000/svg">
<path d="M17.0564 5.84258H17.8391L20.0701 3.61162L20.1795 2.66407C16.0272 -1.0013 9.69024 -0.605332 6.02487 3.54691C5.00645 4.69937 4.26845 6.07215 3.86478 7.5574C4.11283 7.45571 4.38862 7.43876 4.64746 7.51118L9.10939 6.77471C9.10939 6.77471 9.33587 6.39878 9.45451 6.42189C11.439 4.24177 14.7792 3.98755 17.0718 5.84258H17.0564Z" fill="#EA4335"/>
<path d="M23.2487 7.55742C22.7357 5.6685 21.6834 3.97063 20.2197 2.67334L17.0889 5.80408C18.4109 6.88413 19.1643 8.51267 19.1319 10.2198V10.776C20.6711 10.776 21.9191 12.024 21.9191 13.5631C21.9191 15.1023 20.6711 16.3503 19.1319 16.3503H13.5576L13.0014 16.9142V20.2576L13.5576 20.8138H19.1319C23.1347 20.8446 26.4057 17.6245 26.4365 13.6217C26.455 11.1904 25.2578 8.91633 23.2487 7.55742Z" fill="#4285F4"/>
<path d="M7.97562 20.7783H13.5499V16.3164H7.97562C7.57812 16.3164 7.18677 16.2301 6.82471 16.0652L6.04202 16.3087L3.79565 18.5396L3.59998 19.3223C4.85875 20.2744 6.39639 20.786 7.97562 20.7783Z" fill="#34A853"/>
<path d="M7.97547 6.30481C3.97113 6.32792 0.746407 9.5927 0.769517 13.597C0.783384 15.8326 1.82645 17.9372 3.59982 19.2992L6.83225 16.0668C5.4302 15.4336 4.8062 13.7819 5.43944 12.3799C6.07268 10.9778 7.72433 10.3538 9.12638 10.9871C9.74421 11.2659 10.2388 11.762 10.5192 12.3799L13.7516 9.14743C12.3773 7.34788 10.2388 6.29556 7.97547 6.30481Z" fill="#FBBC05"/>
</svg>
