<svg width="176" height="26" viewBox="0 0 176 26" fill="none" xmlns="http://www.w3.org/2000/svg">
<path d="M63.474 19.119C62.08 19.119 60.9353 18.7903 60.04 18.133C59.1447 17.4643 58.663 16.5123 58.595 15.277H62.148C62.182 15.6963 62.3067 16.0023 62.522 16.195C62.7373 16.3877 63.015 16.484 63.355 16.484C63.661 16.484 63.9103 16.4103 64.103 16.263C64.307 16.1043 64.409 15.889 64.409 15.617C64.409 15.2657 64.2447 14.9937 63.916 14.801C63.5873 14.6083 63.0547 14.393 62.318 14.155C61.536 13.8943 60.9013 13.645 60.414 13.407C59.938 13.1577 59.5187 12.8007 59.156 12.336C58.8047 11.86 58.629 11.2423 58.629 10.483C58.629 9.71233 58.8217 9.055 59.207 8.511C59.5923 7.95567 60.125 7.53633 60.805 7.253C61.485 6.96967 62.2557 6.828 63.117 6.828C64.511 6.828 65.6217 7.15667 66.449 7.814C67.2877 8.46 67.7353 9.37233 67.792 10.551H64.171C64.1597 10.1883 64.0463 9.91633 63.831 9.735C63.627 9.55367 63.3607 9.463 63.032 9.463C62.7827 9.463 62.5787 9.53667 62.42 9.684C62.2613 9.83133 62.182 10.041 62.182 10.313C62.182 10.5397 62.267 10.738 62.437 10.908C62.6183 11.0667 62.8393 11.2083 63.1 11.333C63.3607 11.4463 63.746 11.5937 64.256 11.775C65.0153 12.0357 65.6387 12.2963 66.126 12.557C66.6247 12.8063 67.0497 13.1633 67.401 13.628C67.7637 14.0813 67.945 14.6593 67.945 15.362C67.945 16.076 67.7637 16.7163 67.401 17.283C67.0497 17.8497 66.534 18.2973 65.854 18.626C65.1853 18.9547 64.392 19.119 63.474 19.119ZM75.24 19.119C74.118 19.119 73.0867 18.8583 72.146 18.337C71.2053 17.8043 70.4573 17.0733 69.902 16.144C69.358 15.2033 69.086 14.1437 69.086 12.965C69.086 11.7863 69.358 10.7323 69.902 9.803C70.4573 8.86233 71.2053 8.13133 72.146 7.61C73.0867 7.08867 74.118 6.828 75.24 6.828C76.3733 6.828 77.4047 7.08867 78.334 7.61C79.2747 8.13133 80.017 8.86233 80.561 9.803C81.105 10.7323 81.377 11.7863 81.377 12.965C81.377 14.1437 81.105 15.2033 80.561 16.144C80.017 17.0733 79.2747 17.8043 78.334 18.337C77.3933 18.8583 76.362 19.119 75.24 19.119ZM75.24 16.025C76.09 16.025 76.7587 15.7473 77.246 15.192C77.7447 14.6367 77.994 13.8943 77.994 12.965C77.994 12.013 77.7447 11.265 77.246 10.721C76.7587 10.1657 76.09 9.888 75.24 9.888C74.3787 9.888 73.7043 10.1657 73.217 10.721C72.7297 11.265 72.486 12.013 72.486 12.965C72.486 13.9057 72.7297 14.6537 73.217 15.209C73.7043 15.753 74.3787 16.025 75.24 16.025ZM86.2069 16.45H89.9299V19H82.8749V7.015H86.2069V16.45ZM102.887 7.015L98.7564 19H94.4894L90.3414 7.015H93.9114L96.6314 15.668L99.3344 7.015H102.887ZM107.258 9.684V11.639H111.083V14.172H107.258V16.331H111.593V19H103.926V7.015H111.593V9.684H107.258ZM121.236 7.015C122.494 7.015 123.593 7.27 124.534 7.78C125.486 8.27867 126.217 8.98133 126.727 9.888C127.237 10.7947 127.492 11.8317 127.492 12.999C127.492 14.155 127.231 15.1863 126.71 16.093C126.2 16.9997 125.469 17.7137 124.517 18.235C123.576 18.745 122.483 19 121.236 19H116.493V7.015H121.236ZM120.981 16.059C121.956 16.059 122.721 15.7927 123.276 15.26C123.831 14.7273 124.109 13.9737 124.109 12.999C124.109 12.013 123.831 11.2537 123.276 10.721C122.721 10.177 121.956 9.905 120.981 9.905H119.825V16.059H120.981ZM134.74 19.119C133.618 19.119 132.587 18.8583 131.646 18.337C130.705 17.8043 129.957 17.0733 129.402 16.144C128.858 15.2033 128.586 14.1437 128.586 12.965C128.586 11.7863 128.858 10.7323 129.402 9.803C129.957 8.86233 130.705 8.13133 131.646 7.61C132.587 7.08867 133.618 6.828 134.74 6.828C135.873 6.828 136.905 7.08867 137.834 7.61C138.775 8.13133 139.517 8.86233 140.061 9.803C140.605 10.7323 140.877 11.7863 140.877 12.965C140.877 14.1437 140.605 15.2033 140.061 16.144C139.517 17.0733 138.775 17.8043 137.834 18.337C136.893 18.8583 135.862 19.119 134.74 19.119ZM134.74 16.025C135.59 16.025 136.259 15.7473 136.746 15.192C137.245 14.6367 137.494 13.8943 137.494 12.965C137.494 12.013 137.245 11.265 136.746 10.721C136.259 10.1657 135.59 9.888 134.74 9.888C133.879 9.888 133.204 10.1657 132.717 10.721C132.23 11.265 131.986 12.013 131.986 12.965C131.986 13.9057 132.23 14.6537 132.717 15.209C133.204 15.753 133.879 16.025 134.74 16.025ZM145.639 7.015V13.968C145.639 14.614 145.786 15.1127 146.081 15.464C146.387 15.8153 146.846 15.991 147.458 15.991C148.07 15.991 148.529 15.8153 148.835 15.464C149.152 15.1013 149.311 14.6027 149.311 13.968V7.015H152.643V13.968C152.643 15.0673 152.411 16.008 151.946 16.79C151.481 17.5607 150.847 18.1443 150.042 18.541C149.249 18.9263 148.365 19.119 147.39 19.119C146.415 19.119 145.543 18.9263 144.772 18.541C144.013 18.1443 143.412 17.5607 142.97 16.79C142.539 16.0193 142.324 15.0787 142.324 13.968V7.015H145.639ZM162.127 12.846C162.83 13.0047 163.385 13.356 163.793 13.9C164.213 14.4327 164.422 15.0447 164.422 15.736C164.422 16.756 164.071 17.555 163.368 18.133C162.666 18.711 161.68 19 160.41 19H154.477V7.015H160.223C161.447 7.015 162.405 7.287 163.096 7.831C163.799 8.375 164.15 9.14 164.15 10.126C164.15 10.8287 163.963 11.418 163.589 11.894C163.227 12.3587 162.739 12.676 162.127 12.846ZM157.809 11.775H159.492C160.331 11.775 160.75 11.4293 160.75 10.738C160.75 10.024 160.331 9.667 159.492 9.667H157.809V11.775ZM159.747 16.314C160.586 16.314 161.005 15.9627 161.005 15.26C161.005 14.8973 160.892 14.6197 160.665 14.427C160.45 14.2343 160.138 14.138 159.73 14.138H157.809V16.314H159.747ZM174.91 7.015V9.667H171.714V19H168.382V9.667H165.22V7.015H174.91Z" fill="white"/>
<path fill-rule="evenodd" clip-rule="evenodd" d="M13 26C5.8203 26 0 20.1797 0 13C0 5.8203 5.8203 0 13 0C20.1797 0 26 5.8203 26 13C26 20.1797 20.1797 26 13 26ZM8.05617 6.94585C8.57881 5.90282 9.32075 5.21302 10.3439 4.81893L10.8069 4.64062L11.9508 4.65399C13.0748 4.66714 13.1013 4.67009 13.4759 4.82564C13.945 5.02036 14.3606 5.27887 14.7631 5.62636L15.0698 5.89114L15.4812 5.84488C16.0217 5.78421 16.7283 5.85972 17.2504 6.03398C17.9058 6.25271 18.3702 6.55607 18.9522 7.14565C19.5409 7.74193 19.8393 8.25791 20.0434 9.03217C20.1916 9.59485 20.2039 10.5076 20.0702 11.0341L19.9776 11.3992L20.2 11.6811C20.5078 12.0711 20.7772 12.6566 20.9154 13.2355C21.0807 13.9282 21.0461 14.8959 20.8335 15.5248C20.557 16.343 20.1312 16.9758 19.5145 17.4853C19.0975 17.8298 18.5711 18.1182 18.1059 18.257C17.7124 18.3743 17.6921 18.3927 17.5439 18.7622C17.1704 19.6937 16.2756 20.5607 15.2342 21.0002C14.8978 21.1421 14.8715 21.1445 13.6393 21.1445C12.4644 21.1445 12.3676 21.1368 12.0823 21.0212C11.6562 20.8485 11.1628 20.5385 10.7923 20.2107L10.4769 19.9317L10.1244 19.9829C9.38251 20.0906 8.52886 19.9375 7.75659 19.5582C6.64464 19.0122 5.79452 17.9689 5.49276 16.7797C5.35299 16.229 5.34111 15.3558 5.46618 14.8175C5.55181 14.4486 5.55115 14.4335 5.44412 14.2992C5.18604 13.9754 4.8718 13.3892 4.71874 12.9457C4.4075 12.0442 4.45767 10.8294 4.84369 9.92085C5.33126 8.77307 6.25409 7.92924 7.42977 7.55599L7.81106 7.43498L8.05617 6.94585ZM13.793 6.38808C13.8784 6.30689 13.1172 5.90522 12.6589 5.7895C12.398 5.72364 11.7222 5.67279 11.5695 5.70755C11.5096 5.72119 11.3257 5.75944 11.161 5.79255C10.3648 5.95252 9.51596 6.60457 9.14944 7.33759C8.83253 7.97125 8.81859 8.10552 8.82033 10.5031L8.82196 12.6877L9.46035 13.0534L10.0988 13.419L10.1343 12.9715C10.1538 12.7254 10.1721 11.6386 10.1751 10.5564L10.1805 8.58882L10.3303 8.4456C10.4127 8.36687 11.2154 7.88123 12.1142 7.36651C13.0129 6.85173 13.7684 6.41143 13.793 6.38808ZM18.0919 7.91882C17.6186 7.45386 17.1778 7.19306 16.6574 7.07019C16.2202 6.96696 15.5295 6.96854 15.1373 7.07357C14.8166 7.15945 14.4469 7.35625 12.3593 8.55204L11.0248 9.31643L11.0097 10.1227L10.9946 10.929L11.1186 10.8486C11.1868 10.8044 11.7942 10.4548 12.4682 10.0716C13.1423 9.68842 14.0259 9.18118 14.4317 8.94439C14.8375 8.70759 15.2301 8.51385 15.3041 8.51385C15.378 8.51385 15.6098 8.61501 15.819 8.73869C16.9566 9.41098 18.9199 10.5326 18.9592 10.5326C19.0253 10.5326 19.0148 9.76824 18.944 9.43041C18.8235 8.85529 18.5483 8.36725 18.0919 7.91882ZM7.7555 12.9697C7.68779 12.8728 7.67488 12.5245 7.67488 10.7932C7.67488 9.65962 7.65652 8.73302 7.63403 8.73411C7.45264 8.74317 6.92951 9.09383 6.5808 9.44017C5.60851 10.4058 5.39384 11.7626 6.01371 13.0244C6.34598 13.7008 6.7057 14.011 8.02894 14.7623C8.65806 15.1195 9.47473 15.5906 9.84382 15.8093C10.2129 16.0279 10.5438 16.2063 10.5792 16.2056C10.6342 16.2046 11.573 15.6684 11.8146 15.5C11.8872 15.4493 11.8872 15.4368 11.8146 15.3873C11.6554 15.2788 9.75814 14.1733 8.80404 13.633C8.27165 13.3316 7.79984 13.0331 7.7555 12.9697ZM17.258 10.9162C16.496 10.4819 15.6786 10.0093 15.4415 9.86591C15.2044 9.72241 14.9838 9.60735 14.9513 9.61018C14.8718 9.61706 13.6685 10.3329 13.6674 10.374C13.6666 10.4045 15.6983 11.6081 17.1136 12.4157C17.5557 12.668 17.7803 12.8301 17.8353 12.9367C17.9013 13.0644 17.9152 13.4397 17.9152 15.0856C17.9152 16.6636 17.9297 17.0798 17.9846 17.0798C18.1405 17.0798 18.7644 16.65 19.0383 16.3539C19.3842 15.9799 19.7301 15.2965 19.8257 14.7981C19.9594 14.1009 19.8119 13.2836 19.4324 12.6191C19.1006 12.0383 18.7627 11.7737 17.258 10.9162ZM14.5381 11.8643L13.9525 11.5319C13.6305 11.3491 13.2322 11.1244 13.0674 11.0327L12.7678 10.8658L11.8828 11.3676L10.9978 11.8693L10.9977 12.909L10.9975 13.9487L11.8554 14.4328C12.3273 14.699 12.7306 14.9254 12.7516 14.936C12.7726 14.9466 13.1832 14.7304 13.664 14.4557L14.5381 13.9562V12.9103V11.8643ZM16.7169 13.1557L16.2403 12.8752C15.9782 12.721 15.685 12.5468 15.5888 12.4881L15.414 12.3814L15.3982 14.7812C15.383 17.0832 15.3779 17.187 15.2734 17.3261C15.2121 17.4079 14.5227 17.84 13.6938 18.3161C12.8849 18.7808 12.1049 19.2299 11.9603 19.3141L11.6975 19.4672L11.8514 19.5759C12.5527 20.0716 13.5142 20.2531 14.3691 20.0513C15.4407 19.7983 16.3619 18.907 16.6306 17.8631C16.7024 17.5844 16.7169 17.1591 16.7169 15.3417V13.1557ZM14.5356 16.5069L14.5369 15.7294C14.5376 15.3018 14.5197 14.953 14.4972 14.9544C14.4558 14.9569 12.894 15.8472 11.2875 16.7841C10.7332 17.1075 10.3494 17.2977 10.2526 17.2971C10.168 17.2965 9.97624 17.2262 9.82644 17.1407C9.67665 17.0553 8.90454 16.611 8.11064 16.1534C7.31674 15.6957 6.63652 15.3092 6.5991 15.2945C6.54828 15.2745 6.53101 15.3722 6.53101 15.68C6.53101 16.5898 6.80668 17.2602 7.44246 17.8965C8.15128 18.6058 8.78068 18.8543 9.76745 18.8143C10.4982 18.7847 10.7645 18.6849 11.8691 18.0271C12.2735 17.7862 13.0389 17.3456 13.5701 17.048L14.5356 16.5069Z" fill="white"/>
</svg>
