<svg width="137" height="22" viewBox="0 0 137 22" fill="none" xmlns="http://www.w3.org/2000/svg">
<path d="M38.542 17.077C37.64 17.077 36.8993 16.8643 36.32 16.439C35.7407 16.0063 35.429 15.3903 35.385 14.591H37.684C37.706 14.8623 37.7867 15.0603 37.926 15.185C38.0653 15.3097 38.245 15.372 38.465 15.372C38.663 15.372 38.8243 15.3243 38.949 15.229C39.081 15.1263 39.147 14.987 39.147 14.811C39.147 14.5837 39.0407 14.4077 38.828 14.283C38.6153 14.1583 38.2707 14.019 37.794 13.865C37.288 13.6963 36.8773 13.535 36.562 13.381C36.254 13.2197 35.9827 12.9887 35.748 12.688C35.5207 12.38 35.407 11.9803 35.407 11.489C35.407 10.9903 35.5317 10.565 35.781 10.213C36.0303 9.85367 36.375 9.58233 36.815 9.399C37.255 9.21567 37.7537 9.124 38.311 9.124C39.213 9.124 39.9317 9.33667 40.467 9.762C41.0097 10.18 41.2993 10.7703 41.336 11.533H38.993C38.9857 11.2983 38.9123 11.1223 38.773 11.005C38.641 10.8877 38.4687 10.829 38.256 10.829C38.0947 10.829 37.9627 10.8767 37.86 10.972C37.7573 11.0673 37.706 11.203 37.706 11.379C37.706 11.5257 37.761 11.654 37.871 11.764C37.9883 11.8667 38.1313 11.9583 38.3 12.039C38.4687 12.1123 38.718 12.2077 39.048 12.325C39.5393 12.4937 39.9427 12.6623 40.258 12.831C40.5807 12.9923 40.8557 13.2233 41.083 13.524C41.3177 13.8173 41.435 14.1913 41.435 14.646C41.435 15.108 41.3177 15.5223 41.083 15.889C40.8557 16.2557 40.522 16.5453 40.082 16.758C39.6493 16.9707 39.136 17.077 38.542 17.077ZM48.2783 9.245V10.961H46.2103V17H44.0543V10.961H42.0083V9.245H48.2783ZM51.188 9.245V13.744C51.188 14.162 51.2833 14.4847 51.474 14.712C51.672 14.9393 51.969 15.053 52.365 15.053C52.761 15.053 53.058 14.9393 53.256 14.712C53.4613 14.4773 53.564 14.1547 53.564 13.744V9.245H55.72V13.744C55.72 14.4553 55.5696 15.064 55.269 15.57C54.9683 16.0687 54.5576 16.4463 54.037 16.703C53.5236 16.9523 52.9516 17.077 52.321 17.077C51.6903 17.077 51.1256 16.9523 50.627 16.703C50.1356 16.4463 49.747 16.0687 49.461 15.57C49.1823 15.0713 49.043 14.4627 49.043 13.744V9.245H51.188ZM59.976 9.245C60.79 9.245 61.5013 9.41 62.11 9.74C62.726 10.0627 63.199 10.5173 63.529 11.104C63.859 11.6907 64.024 12.3617 64.024 13.117C64.024 13.865 63.8553 14.5323 63.518 15.119C63.188 15.7057 62.715 16.1677 62.099 16.505C61.4903 16.835 60.7827 17 59.976 17H56.907V9.245H59.976ZM59.811 15.097C60.4417 15.097 60.9367 14.9247 61.296 14.58C61.6553 14.2353 61.835 13.7477 61.835 13.117C61.835 12.479 61.6553 11.9877 61.296 11.643C60.9367 11.291 60.4417 11.115 59.811 11.115H59.063V15.097H59.811ZM72.0469 9.245L69.3189 14.536V17H67.1519V14.536L64.4239 9.245H66.8879L68.2519 12.237L69.6159 9.245H72.0469ZM83.8672 9.245V17H81.7112V12.721L80.2482 17H78.4442L76.9702 12.688V17H74.8142V9.245H77.4212L79.3682 14.283L81.2712 9.245H83.8672ZM90.0005 15.735H87.2505L86.8325 17H84.5665L87.3935 9.245H89.8795L92.6955 17H90.4185L90.0005 15.735ZM89.4615 14.085L88.6255 11.577L87.8005 14.085H89.4615ZM99.2392 9.245V10.961H97.1712V17H95.0152V10.961H92.9692V9.245H99.2392ZM102.193 10.972V12.237H104.668V13.876H102.193V15.273H104.998V17H100.037V9.245H104.998V10.972H102.193ZM109.99 17L108.45 14.14H108.219V17H106.063V9.245H109.462C110.086 9.245 110.614 9.355 111.046 9.575C111.479 9.78767 111.805 10.0847 112.025 10.466C112.245 10.84 112.355 11.2617 112.355 11.731C112.355 12.259 112.209 12.7247 111.915 13.128C111.629 13.524 111.208 13.8063 110.65 13.975L112.399 17H109.99ZM108.219 12.666H109.286C109.58 12.666 109.8 12.5963 109.946 12.457C110.093 12.3177 110.166 12.116 110.166 11.852C110.166 11.6027 110.089 11.4083 109.935 11.269C109.789 11.1223 109.572 11.049 109.286 11.049H108.219V12.666ZM115.492 9.245V17H113.336V9.245H115.492ZM121.626 15.735H118.876L118.458 17H116.192L119.019 9.245H121.505L124.321 17H122.044L121.626 15.735ZM121.087 14.085L120.251 11.577L119.426 14.085H121.087ZM127.179 15.35H129.588V17H125.023V9.245H127.179V15.35ZM133.353 17.077C132.451 17.077 131.71 16.8643 131.131 16.439C130.551 16.0063 130.24 15.3903 130.196 14.591H132.495C132.517 14.8623 132.597 15.0603 132.737 15.185C132.876 15.3097 133.056 15.372 133.276 15.372C133.474 15.372 133.635 15.3243 133.76 15.229C133.892 15.1263 133.958 14.987 133.958 14.811C133.958 14.5837 133.851 14.4077 133.639 14.283C133.426 14.1583 133.081 14.019 132.605 13.865C132.099 13.6963 131.688 13.535 131.373 13.381C131.065 13.2197 130.793 12.9887 130.559 12.688C130.331 12.38 130.218 11.9803 130.218 11.489C130.218 10.9903 130.342 10.565 130.592 10.213C130.841 9.85367 131.186 9.58233 131.626 9.399C132.066 9.21567 132.564 9.124 133.122 9.124C134.024 9.124 134.742 9.33667 135.278 9.762C135.82 10.18 136.11 10.7703 136.147 11.533H133.804C133.796 11.2983 133.723 11.1223 133.584 11.005C133.452 10.8877 133.279 10.829 133.067 10.829C132.905 10.829 132.773 10.8767 132.671 10.972C132.568 11.0673 132.517 11.203 132.517 11.379C132.517 11.5257 132.572 11.654 132.682 11.764C132.799 11.8667 132.942 11.9583 133.111 12.039C133.279 12.1123 133.529 12.2077 133.859 12.325C134.35 12.4937 134.753 12.6623 135.069 12.831C135.391 12.9923 135.666 13.2233 135.894 13.524C136.128 13.8173 136.246 14.1913 136.246 14.646C136.246 15.108 136.128 15.5223 135.894 15.889C135.666 16.2557 135.333 16.5453 134.893 16.758C134.46 16.9707 133.947 17.077 133.353 17.077Z" fill="white"/>
<path d="M1.51201 17.1411L2.39401 18.8463C2.5773 19.2052 2.84074 19.4873 3.15002 19.6924L6.30004 13.5898H0C0 13.9873 0.0916371 14.3847 0.274911 14.7437L1.51201 17.1411Z" fill="#0066DA"/>
<path d="M9.99988 6.41043L6.84986 0.307861C6.5406 0.512989 6.27714 0.795041 6.09387 1.15402L0.274911 12.4361C0.0950076 12.7873 0.000239532 13.185 0 13.5899H6.30004L9.99988 6.41043Z" fill="#00AC47"/>
<path d="M16.8497 19.6924C17.159 19.4873 17.4224 19.2052 17.6057 18.8463L17.9723 18.1411L19.7249 14.7437C19.908 14.3847 19.9997 13.9873 19.9997 13.5898H13.6992L15.0399 16.5386L16.8497 19.6924Z" fill="#EA4335"/>
<path d="M10.0006 6.41026L13.1506 0.307692C12.8414 0.102564 12.4863 0 12.1197 0H7.88151C7.51496 0 7.15987 0.115385 6.85059 0.307692L10.0006 6.41026Z" fill="#00832D"/>
<path d="M13.6991 13.5898H6.29944L3.14941 19.6924C3.45869 19.8975 3.81379 20.0001 4.18033 20.0001H15.8182C16.1848 20.0001 16.5399 19.8847 16.8492 19.6924L13.6991 13.5898Z" fill="#2684FC"/>
<path d="M16.8155 6.79505L13.906 1.15402C13.7228 0.795041 13.4593 0.512989 13.15 0.307861L10 6.41043L13.6999 13.5899H19.9884C19.9884 13.1925 19.8968 12.795 19.7136 12.4361L16.8155 6.79505Z" fill="#FFBA00"/>
</svg>
