<svg width="124" height="44" viewBox="0 0 124 44" fill="none" xmlns="http://www.w3.org/2000/svg">
<path d="M84.3093 22.766C84.3573 21.41 84.7773 20.372 85.5693 19.652C86.3613 18.92 87.4653 18.554 88.8813 18.554C89.8053 18.554 90.5913 18.716 91.2393 19.04C91.8993 19.352 92.3973 19.784 92.7333 20.336C93.0693 20.876 93.2373 21.488 93.2373 22.172C93.2373 22.988 93.0393 23.642 92.6433 24.134C92.2473 24.614 91.7973 24.938 91.2933 25.106V25.178C92.7453 25.718 93.4713 26.75 93.4713 28.274C93.4713 29.03 93.2973 29.696 92.9493 30.272C92.6013 30.848 92.0973 31.298 91.4373 31.622C90.7773 31.946 89.9913 32.108 89.0793 32.108C87.5793 32.108 86.3913 31.748 85.5153 31.028C84.6513 30.296 84.2013 29.18 84.1653 27.68H87.6033C87.5793 28.16 87.6813 28.532 87.9093 28.796C88.1373 29.06 88.4793 29.192 88.9353 29.192C89.2833 29.192 89.5533 29.084 89.7453 28.868C89.9493 28.652 90.0513 28.364 90.0513 28.004C90.0513 27.548 89.9013 27.212 89.6013 26.996C89.3133 26.78 88.8393 26.672 88.1793 26.672H87.5493V23.81H88.1613C88.6173 23.822 89.0013 23.75 89.3133 23.594C89.6373 23.426 89.7993 23.096 89.7993 22.604C89.7993 22.232 89.7093 21.956 89.5293 21.776C89.3493 21.584 89.1033 21.488 88.7913 21.488C88.4433 21.488 88.1853 21.614 88.0173 21.866C87.8613 22.106 87.7713 22.406 87.7473 22.766H84.3093ZM105.311 32L102.791 27.32H102.413V32H98.885V19.31H104.447C105.467 19.31 106.331 19.49 107.039 19.85C107.747 20.198 108.281 20.684 108.641 21.308C109.001 21.92 109.181 22.61 109.181 23.378C109.181 24.242 108.941 25.004 108.461 25.664C107.993 26.312 107.303 26.774 106.391 27.05L109.253 32H105.311ZM102.413 24.908H104.159C104.639 24.908 104.999 24.794 105.239 24.566C105.479 24.338 105.599 24.008 105.599 23.576C105.599 23.168 105.473 22.85 105.221 22.622C104.981 22.382 104.627 22.262 104.159 22.262H102.413V24.908ZM115.807 19.31C117.139 19.31 118.303 19.58 119.299 20.12C120.307 20.648 121.081 21.392 121.621 22.352C122.161 23.312 122.431 24.41 122.431 25.646C122.431 26.87 122.155 27.962 121.603 28.922C121.063 29.882 120.289 30.638 119.281 31.19C118.285 31.73 117.127 32 115.807 32H110.785V19.31H115.807ZM115.537 28.886C116.569 28.886 117.379 28.604 117.967 28.04C118.555 27.476 118.849 26.678 118.849 25.646C118.849 24.602 118.555 23.798 117.967 23.234C117.379 22.658 116.569 22.37 115.537 22.37H114.313V28.886H115.537Z" fill="white"/>
<path d="M20.213 11.555L13.021 25.504V32H7.308V25.504L0.116 11.555H6.612L10.208 19.443L13.804 11.555H20.213ZM27.642 16.108V19.443H34.167V23.764H27.642V27.447H35.037V32H21.958V11.555H35.037V16.108H27.642ZM50.7797 28.665H43.5297L42.4277 32H36.4537L43.9067 11.555H50.4607L57.8847 32H51.8817L50.7797 28.665ZM49.3587 24.315L47.1547 17.703L44.9797 24.315H49.3587ZM70.0903 32L66.0303 24.46H65.4213V32H59.7373V11.555H68.6983C70.3416 11.555 71.7336 11.845 72.8743 12.425C74.0149 12.9857 74.8753 13.7687 75.4553 14.774C76.0353 15.76 76.3253 16.8717 76.3253 18.109C76.3253 19.501 75.9386 20.7287 75.1653 21.792C74.4113 22.836 73.2996 23.5803 71.8303 24.025L76.4413 32H70.0903ZM65.4213 20.574H68.2343C69.0076 20.574 69.5876 20.3903 69.9743 20.023C70.3609 19.6557 70.5543 19.124 70.5543 18.428C70.5543 17.7707 70.3513 17.2583 69.9453 16.891C69.5586 16.5043 68.9883 16.311 68.2343 16.311H65.4213V20.574Z" fill="white"/>
</svg>
