<svg width="53" height="50" viewBox="0 0 53 50" fill="none" xmlns="http://www.w3.org/2000/svg">
<path fill-rule="evenodd" clip-rule="evenodd" d="M25.3232 45.6522C37.3469 45.6522 47.094 36.4059 47.094 25C47.094 13.5941 37.3469 4.34784 25.3232 4.34784C13.2995 4.34784 3.55243 13.5941 3.55243 25C3.55243 36.4059 13.2995 45.6522 25.3232 45.6522ZM25.3232 35.3261C31.335 35.3261 36.2086 30.703 36.2086 25C36.2086 19.2971 31.335 14.6739 25.3232 14.6739C19.3114 14.6739 14.4378 19.2971 14.4378 25C14.4378 30.703 19.3114 35.3261 25.3232 35.3261Z" fill="url(#paint0_linear_528_21)"/>
<path d="M32.7711 50H25.8961C24.314 50 23.0315 48.7834 23.0315 47.2826V2.71739C23.0315 1.21662 24.314 0 25.8961 0H26.4666C34.5026 0 41.8069 4.42767 45.183 11.3454L52.8389 27.0324C53.3663 28.1129 52.5344 29.3478 51.2792 29.3478H47.6669V39.1304C47.6669 40.9314 46.1278 42.3913 44.2294 42.3913H37.3544C36.4052 42.3913 35.6357 43.1213 35.6357 44.0217V47.2826C35.6357 48.7834 34.3531 50 32.7711 50Z" fill="#1B70F0"/>
<path d="M6.18674 16.5761C5.52519 15.4891 3.87133 15.4891 3.20978 16.5761L0.232832 21.4674C-0.428713 22.5543 0.398218 23.913 1.72131 23.913H7.67521C8.9983 23.913 9.82524 22.5543 9.16369 21.4674L6.18674 16.5761Z" fill="url(#paint1_linear_528_21)"/>
<path d="M6.18674 33.4239C5.52519 34.5109 3.87133 34.5109 3.20978 33.4239L0.232832 28.5326C-0.428713 27.4456 0.398218 26.0869 1.72131 26.0869H7.67521C8.9983 26.0869 9.82524 27.4456 9.16369 28.5326L6.18674 33.4239Z" fill="url(#paint2_linear_528_21)"/>
<path d="M28.7607 25C28.7607 26.8009 27.2217 28.2609 25.3232 28.2609C24.7634 28.2609 24.2349 28.134 23.7679 27.9088C22.9812 27.5295 23.4497 26.6304 24.3321 26.6304H24.7503C25.0667 26.6304 25.3232 26.3871 25.3232 26.087C25.3232 25.7868 25.0667 25.5435 24.7503 25.5435H22.5088C22.1766 25.5435 21.8857 25.3151 21.8857 25C21.8857 23.1991 23.4247 21.7391 25.3232 21.7391C25.883 21.7391 26.4115 21.8661 26.8785 22.0912C27.6652 22.4705 27.1967 23.3696 26.3143 23.3696H25.8961C25.5797 23.3696 25.3232 23.6129 25.3232 23.913C25.3232 24.2132 25.5797 24.4565 25.8961 24.4565H28.1376C28.4698 24.4565 28.7607 24.6849 28.7607 25Z" fill="url(#paint3_linear_528_21)"/>
<ellipse cx="25.3232" cy="25" rx="6.30206" ry="5.97826" fill="#1B70F0"/>
<path d="M30.4794 9.78259C30.4794 10.6474 30.8416 11.4768 31.4862 12.0884C32.1309 12.6999 33.0052 13.0435 33.9169 13.0435C34.8286 13.0435 35.7029 12.6999 36.3476 12.0884C36.9922 11.4768 37.3544 10.6474 37.3544 9.78259" stroke="url(#paint4_linear_528_21)" stroke-width="2" stroke-linecap="round"/>
<path d="M33.9169 8.69562C33.9169 7.83079 33.5547 7.00137 32.9101 6.38984C32.2654 5.77831 31.3911 5.43475 30.4794 5.43475C29.5677 5.43475 28.6934 5.77831 28.0487 6.38984C27.4041 7.00137 27.0419 7.83079 27.0419 8.69562" stroke="url(#paint5_linear_528_21)" stroke-width="2" stroke-linecap="round"/>
<path d="M28.0445 42.8669C28.0445 43.4297 27.5636 43.8859 26.9703 43.8859C26.3771 43.8859 25.8961 43.4297 25.8961 42.8669C25.8961 42.3041 26.3771 41.8478 26.9703 41.8478C27.5636 41.8478 28.0445 42.3041 28.0445 42.8669Z" fill="url(#paint6_linear_528_21)"/>
<path d="M28.0445 46.2636C28.0445 46.8264 27.5636 47.2826 26.9703 47.2826C26.3771 47.2826 25.8961 46.8264 25.8961 46.2636C25.8961 45.7008 26.3771 45.2446 26.9703 45.2446C27.5636 45.2446 28.0445 45.7008 28.0445 46.2636Z" fill="url(#paint7_linear_528_21)"/>
<path d="M30.5511 47.2826C31.1443 47.2826 31.6253 46.8264 31.6253 46.2636C31.6253 45.7008 31.1443 45.2446 30.5511 45.2446C29.9578 45.2446 29.4768 45.7008 29.4768 46.2636C29.4768 46.8264 29.9578 47.2826 30.5511 47.2826Z" fill="url(#paint8_linear_528_21)"/>
<defs>
<linearGradient id="paint0_linear_528_21" x1="35.9221" y1="25" x2="3.55243" y2="25" gradientUnits="userSpaceOnUse">
<stop stop-color="#96C6FF"/>
<stop offset="1" stop-color="#F3F8FF"/>
</linearGradient>
<linearGradient id="paint1_linear_528_21" x1="0.11494" y1="24.1848" x2="14.9725" y2="26.1104" gradientUnits="userSpaceOnUse">
<stop stop-color="#ECF4FF"/>
<stop offset="1" stop-color="#8EC2FF"/>
</linearGradient>
<linearGradient id="paint2_linear_528_21" x1="0.11494" y1="24.1848" x2="14.9725" y2="26.1104" gradientUnits="userSpaceOnUse">
<stop stop-color="#ECF4FF"/>
<stop offset="1" stop-color="#8EC2FF"/>
</linearGradient>
<linearGradient id="paint3_linear_528_21" x1="30.7659" y1="23.3696" x2="24.6053" y2="28.9506" gradientUnits="userSpaceOnUse">
<stop stop-color="#8EC2FF"/>
<stop offset="1" stop-color="#DBEAFF"/>
</linearGradient>
<linearGradient id="paint4_linear_528_21" x1="33.9169" y1="13.0435" x2="33.9169" y2="9.78259" gradientUnits="userSpaceOnUse">
<stop stop-color="#BCDBFF"/>
<stop offset="1" stop-color="#639EF8"/>
</linearGradient>
<linearGradient id="paint5_linear_528_21" x1="30.4794" y1="5.43475" x2="30.4794" y2="8.69562" gradientUnits="userSpaceOnUse">
<stop stop-color="#BCDBFF"/>
<stop offset="1" stop-color="#639EF8"/>
</linearGradient>
<linearGradient id="paint6_linear_528_21" x1="31.6253" y1="41.8478" x2="30.0631" y2="48.2926" gradientUnits="userSpaceOnUse">
<stop stop-color="#639EF8"/>
<stop offset="1" stop-color="#B6D7FF"/>
</linearGradient>
<linearGradient id="paint7_linear_528_21" x1="31.6253" y1="41.8478" x2="30.0631" y2="48.2926" gradientUnits="userSpaceOnUse">
<stop stop-color="#639EF8"/>
<stop offset="1" stop-color="#B6D7FF"/>
</linearGradient>
<linearGradient id="paint8_linear_528_21" x1="31.6253" y1="41.8478" x2="30.0631" y2="48.2926" gradientUnits="userSpaceOnUse">
<stop stop-color="#639EF8"/>
<stop offset="1" stop-color="#B6D7FF"/>
</linearGradient>
</defs>
</svg>
