<svg width="112" height="26" viewBox="0 0 112 26" fill="none" xmlns="http://www.w3.org/2000/svg">
<path d="M39.542 17.077C38.64 17.077 37.8993 16.8643 37.32 16.439C36.7407 16.0063 36.429 15.3903 36.385 14.591H38.684C38.706 14.8623 38.7867 15.0603 38.926 15.185C39.0653 15.3097 39.245 15.372 39.465 15.372C39.663 15.372 39.8243 15.3243 39.949 15.229C40.081 15.1263 40.147 14.987 40.147 14.811C40.147 14.5837 40.0407 14.4077 39.828 14.283C39.6153 14.1583 39.2707 14.019 38.794 13.865C38.288 13.6963 37.8773 13.535 37.562 13.381C37.254 13.2197 36.9827 12.9887 36.748 12.688C36.5207 12.38 36.407 11.9803 36.407 11.489C36.407 10.9903 36.5317 10.565 36.781 10.213C37.0303 9.85367 37.375 9.58233 37.815 9.399C38.255 9.21567 38.7537 9.124 39.311 9.124C40.213 9.124 40.9317 9.33667 41.467 9.762C42.0097 10.18 42.2993 10.7703 42.336 11.533H39.993C39.9857 11.2983 39.9123 11.1223 39.773 11.005C39.641 10.8877 39.4687 10.829 39.256 10.829C39.0947 10.829 38.9627 10.8767 38.86 10.972C38.7573 11.0673 38.706 11.203 38.706 11.379C38.706 11.5257 38.761 11.654 38.871 11.764C38.9883 11.8667 39.1313 11.9583 39.3 12.039C39.4687 12.1123 39.718 12.2077 40.048 12.325C40.5393 12.4937 40.9427 12.6623 41.258 12.831C41.5807 12.9923 41.8557 13.2233 42.083 13.524C42.3177 13.8173 42.435 14.1913 42.435 14.646C42.435 15.108 42.3177 15.5223 42.083 15.889C41.8557 16.2557 41.522 16.5453 41.082 16.758C40.6493 16.9707 40.136 17.077 39.542 17.077ZM47.1553 17.077C46.4293 17.077 45.762 16.9083 45.1533 16.571C44.5446 16.2263 44.0606 15.7533 43.7013 15.152C43.3493 14.5433 43.1733 13.8577 43.1733 13.095C43.1733 12.3323 43.3493 11.6503 43.7013 11.049C44.0606 10.4403 44.5446 9.96733 45.1533 9.63C45.762 9.29267 46.4293 9.124 47.1553 9.124C47.8886 9.124 48.556 9.29267 49.1573 9.63C49.766 9.96733 50.2463 10.4403 50.5983 11.049C50.9503 11.6503 51.1263 12.3323 51.1263 13.095C51.1263 13.8577 50.9503 14.5433 50.5983 15.152C50.2463 15.7533 49.766 16.2263 49.1573 16.571C48.5486 16.9083 47.8813 17.077 47.1553 17.077ZM47.1553 15.075C47.7053 15.075 48.138 14.8953 48.4533 14.536C48.776 14.1767 48.9373 13.6963 48.9373 13.095C48.9373 12.479 48.776 11.995 48.4533 11.643C48.138 11.2837 47.7053 11.104 47.1553 11.104C46.598 11.104 46.1616 11.2837 45.8463 11.643C45.531 11.995 45.3733 12.479 45.3733 13.095C45.3733 13.7037 45.531 14.1877 45.8463 14.547C46.1616 14.899 46.598 15.075 47.1553 15.075ZM54.2515 15.35H56.6605V17H52.0955V9.245H54.2515V15.35ZM65.0448 9.245L62.3718 17H59.6108L56.9268 9.245H59.2368L60.9968 14.844L62.7458 9.245H65.0448ZM67.8726 10.972V12.237H70.3476V13.876H67.8726V15.273H70.6776V17H65.7166V9.245H70.6776V10.972H67.8726ZM76.9174 9.245C77.7314 9.245 78.4428 9.41 79.0514 9.74C79.6674 10.0627 80.1404 10.5173 80.4704 11.104C80.8004 11.6907 80.9654 12.3617 80.9654 13.117C80.9654 13.865 80.7968 14.5323 80.4594 15.119C80.1294 15.7057 79.6564 16.1677 79.0404 16.505C78.4318 16.835 77.7241 17 76.9174 17H73.8484V9.245H76.9174ZM76.7524 15.097C77.3831 15.097 77.8781 14.9247 78.2374 14.58C78.5968 14.2353 78.7764 13.7477 78.7764 13.117C78.7764 12.479 78.5968 11.9877 78.2374 11.643C77.8781 11.291 77.3831 11.115 76.7524 11.115H76.0044V15.097H76.7524ZM85.6553 17.077C84.9293 17.077 84.262 16.9083 83.6533 16.571C83.0446 16.2263 82.5606 15.7533 82.2013 15.152C81.8493 14.5433 81.6733 13.8577 81.6733 13.095C81.6733 12.3323 81.8493 11.6503 82.2013 11.049C82.5606 10.4403 83.0446 9.96733 83.6533 9.63C84.262 9.29267 84.9293 9.124 85.6553 9.124C86.3886 9.124 87.056 9.29267 87.6573 9.63C88.266 9.96733 88.7463 10.4403 89.0983 11.049C89.4503 11.6503 89.6263 12.3323 89.6263 13.095C89.6263 13.8577 89.4503 14.5433 89.0983 15.152C88.7463 15.7533 88.266 16.2263 87.6573 16.571C87.0486 16.9083 86.3813 17.077 85.6553 17.077ZM85.6553 15.075C86.2053 15.075 86.638 14.8953 86.9533 14.536C87.276 14.1767 87.4373 13.6963 87.4373 13.095C87.4373 12.479 87.276 11.995 86.9533 11.643C86.638 11.2837 86.2053 11.104 85.6553 11.104C85.098 11.104 84.6616 11.2837 84.3463 11.643C84.031 11.995 83.8733 12.479 83.8733 13.095C83.8733 13.7037 84.031 14.1877 84.3463 14.547C84.6616 14.899 85.098 15.075 85.6553 15.075ZM92.7075 9.245V13.744C92.7075 14.162 92.8028 14.4847 92.9935 14.712C93.1915 14.9393 93.4885 15.053 93.8845 15.053C94.2805 15.053 94.5775 14.9393 94.7755 14.712C94.9808 14.4773 95.0835 14.1547 95.0835 13.744V9.245H97.2395V13.744C97.2395 14.4553 97.0892 15.064 96.7885 15.57C96.4878 16.0687 96.0772 16.4463 95.5565 16.703C95.0432 16.9523 94.4712 17.077 93.8405 17.077C93.2098 17.077 92.6452 16.9523 92.1465 16.703C91.6552 16.4463 91.2665 16.0687 90.9805 15.57C90.7018 15.0713 90.5625 14.4627 90.5625 13.744V9.245H92.7075ZM103.377 13.018C103.831 13.1207 104.191 13.348 104.455 13.7C104.726 14.0447 104.862 14.4407 104.862 14.888C104.862 15.548 104.634 16.065 104.18 16.439C103.725 16.813 103.087 17 102.266 17H98.4265V9.245H102.145C102.937 9.245 103.556 9.421 104.004 9.773C104.458 10.125 104.686 10.62 104.686 11.258C104.686 11.7127 104.565 12.094 104.323 12.402C104.088 12.7027 103.773 12.908 103.377 13.018ZM100.583 12.325H101.672C102.214 12.325 102.486 12.1013 102.486 11.654C102.486 11.192 102.214 10.961 101.672 10.961H100.583V12.325ZM101.837 15.262C102.379 15.262 102.651 15.0347 102.651 14.58C102.651 14.3453 102.577 14.1657 102.431 14.041C102.291 13.9163 102.09 13.854 101.826 13.854H100.583V15.262H101.837ZM111.647 9.245V10.961H109.579V17H107.423V10.961H105.377V9.245H111.647Z" fill="white"/>
<g clip-path="url(#clip0_220_340)">
<g filter="url(#filter0_d_220_340)">
<path fill-rule="evenodd" clip-rule="evenodd" d="M23.4609 9.0042C23.4609 8.75583 23.461 8.50744 23.4595 8.25904C23.4583 8.0498 23.4559 7.84061 23.4502 7.63146C23.4379 7.17563 23.411 6.71588 23.3299 6.26512C23.2477 5.80787 23.1134 5.38229 22.9019 4.96683C22.6939 4.55847 22.4222 4.1848 22.098 3.86084C21.7739 3.53688 21.4001 3.26536 20.9916 3.05749C20.5757 2.84586 20.1497 2.71164 19.6919 2.62945C19.2411 2.54851 18.7812 2.52167 18.3254 2.50936C18.1161 2.50369 17.9068 2.50131 17.6975 2.50001C17.4489 2.49849 17.2004 2.49862 16.9519 2.49862L14.0663 2.48828H11.9081L9.07362 2.49862C8.82462 2.49862 8.57561 2.49849 8.32661 2.50001C8.11683 2.50131 7.90716 2.50369 7.69746 2.50936C7.24056 2.52167 6.77965 2.54853 6.32777 2.62958C5.8694 2.71174 5.44274 2.84591 5.02628 3.05738C4.61691 3.26528 4.24233 3.53683 3.91753 3.86084C3.59279 4.18478 3.32058 4.55837 3.1122 4.96665C2.90004 5.38232 2.76552 5.80814 2.6831 6.26566C2.60195 6.71624 2.57507 7.17583 2.5627 7.63146C2.55706 7.84063 2.55463 8.04982 2.55336 8.25904C2.55183 8.50746 2.53906 8.81603 2.53906 9.06443L2.53914 11.8597L2.53906 14.041L2.55196 16.8956C2.55196 17.1443 2.55186 17.3931 2.55336 17.6418C2.55463 17.8513 2.55706 18.0608 2.56273 18.2702C2.57507 18.7266 2.60201 19.1871 2.68323 19.6384C2.76562 20.0963 2.90011 20.5225 3.1121 20.9385C3.3205 21.3474 3.59277 21.7216 3.91753 22.046C4.2423 22.3704 4.61679 22.6423 5.02608 22.8504C5.44279 23.0624 5.86965 23.1967 6.32831 23.279C6.77998 23.3601 7.24074 23.387 7.69746 23.3993C7.90716 23.405 8.11686 23.4074 8.32663 23.4087C8.57564 23.4102 8.82462 23.4101 9.07362 23.4101L11.9338 23.4102H14.0973L16.9519 23.4101C17.2004 23.4101 17.4489 23.4102 17.6975 23.4087C17.9068 23.4074 18.1161 23.405 18.3254 23.3993C18.7814 23.387 19.2414 23.3601 19.6924 23.2789C20.1499 23.1966 20.5757 23.0623 20.9914 22.8505C21.4 22.6424 21.7738 22.3704 22.098 22.046C22.4221 21.7216 22.6938 21.3475 22.9018 20.9386C23.1135 20.5224 23.2478 20.0961 23.33 19.6379C23.411 19.1867 23.4379 18.7265 23.4502 18.2702C23.4559 18.0608 23.4583 17.8513 23.4595 17.6418C23.4611 17.3931 23.4609 17.1443 23.4609 16.8956C23.4609 16.8956 23.4608 14.0914 23.4608 14.041V11.8574C23.4608 11.8202 23.4609 9.0042 23.4609 9.0042" fill="url(#paint0_linear_220_340)"/>
</g>
<mask id="mask0_220_340" style="mask-type:luminance" maskUnits="userSpaceOnUse" x="2" y="2" width="22" height="22">
<path fill-rule="evenodd" clip-rule="evenodd" d="M23.4609 9.0042C23.4609 8.75583 23.461 8.50744 23.4595 8.25904C23.4583 8.0498 23.4559 7.84061 23.4502 7.63146C23.4379 7.17563 23.411 6.71588 23.3299 6.26512C23.2477 5.80787 23.1134 5.38229 22.9019 4.96683C22.6939 4.55847 22.4222 4.1848 22.098 3.86084C21.7739 3.53688 21.4001 3.26536 20.9916 3.05749C20.5757 2.84586 20.1497 2.71164 19.6919 2.62945C19.2411 2.54851 18.7812 2.52167 18.3254 2.50936C18.1161 2.50369 17.9068 2.50131 17.6975 2.50001C17.4489 2.49849 17.2004 2.49862 16.9519 2.49862L14.0663 2.48828H11.9081L9.07362 2.49862C8.82462 2.49862 8.57561 2.49849 8.32661 2.50001C8.11683 2.50131 7.90716 2.50369 7.69746 2.50936C7.24056 2.52167 6.77965 2.54853 6.32777 2.62958C5.8694 2.71174 5.44274 2.84591 5.02628 3.05738C4.61691 3.26528 4.24233 3.53683 3.91753 3.86084C3.59279 4.18478 3.32058 4.55837 3.1122 4.96665C2.90004 5.38232 2.76552 5.80814 2.6831 6.26566C2.60195 6.71624 2.57507 7.17583 2.5627 7.63146C2.55706 7.84063 2.55463 8.04982 2.55336 8.25904C2.55183 8.50746 2.53906 8.81603 2.53906 9.06443L2.53914 11.8597L2.53906 14.041L2.55196 16.8956C2.55196 17.1443 2.55186 17.3931 2.55336 17.6418C2.55463 17.8513 2.55706 18.0608 2.56273 18.2702C2.57507 18.7266 2.60201 19.1871 2.68323 19.6384C2.76562 20.0963 2.90011 20.5225 3.1121 20.9385C3.3205 21.3474 3.59277 21.7216 3.91753 22.046C4.2423 22.3704 4.61679 22.6423 5.02608 22.8504C5.44279 23.0624 5.86965 23.1967 6.32831 23.279C6.77998 23.3601 7.24074 23.387 7.69746 23.3993C7.90716 23.405 8.11686 23.4074 8.32663 23.4087C8.57564 23.4102 8.82462 23.4101 9.07362 23.4101L11.9338 23.4102H14.0973L16.9519 23.4101C17.2004 23.4101 17.4489 23.4102 17.6975 23.4087C17.9068 23.4074 18.1161 23.405 18.3254 23.3993C18.7814 23.387 19.2414 23.3601 19.6924 23.2789C20.1499 23.1966 20.5757 23.0623 20.9914 22.8505C21.4 22.6424 21.7738 22.3704 22.098 22.046C22.4221 21.7216 22.6938 21.3475 22.9018 20.9386C23.1135 20.5224 23.2478 20.0961 23.33 19.6379C23.411 19.1867 23.4379 18.7265 23.4502 18.2702C23.4559 18.0608 23.4583 17.8513 23.4595 17.6418C23.4611 17.3931 23.4609 17.1443 23.4609 16.8956C23.4609 16.8956 23.4608 14.0914 23.4608 14.041V11.8574C23.4608 11.8202 23.4609 9.0042 23.4609 9.0042" fill="white"/>
</mask>
<g mask="url(#mask0_220_340)">
<rect x="1.06641" y="0.914062" width="23.207" height="23.207" fill="url(#paint1_linear_220_340)"/>
<g filter="url(#filter1_b_220_340)">
<rect x="2.53906" y="2.48828" width="20.9219" height="20.9219" rx="10.4609" fill="black" fill-opacity="0.01"/>
</g>
<g filter="url(#filter2_ii_220_340)">
<path fill-rule="evenodd" clip-rule="evenodd" d="M23.4609 9.0042C23.4609 8.75583 23.461 8.50744 23.4595 8.25904C23.4583 8.0498 23.4559 7.84061 23.4502 7.63146C23.4379 7.17563 23.411 6.71588 23.3299 6.26512C23.2477 5.80787 23.1134 5.38229 22.9019 4.96683C22.6939 4.55847 22.4222 4.1848 22.098 3.86084C21.7739 3.53688 21.4001 3.26536 20.9916 3.05749C20.5757 2.84586 20.1497 2.71164 19.6919 2.62945C19.2411 2.54851 18.7812 2.52167 18.3254 2.50936C18.1161 2.50369 17.9068 2.50131 17.6975 2.50001C17.4489 2.49849 17.2004 2.49862 16.9519 2.49862L14.0663 2.48828H11.9081L9.07362 2.49862C8.82462 2.49862 8.57561 2.49849 8.32661 2.50001C8.11683 2.50131 7.90716 2.50369 7.69746 2.50936C7.24056 2.52167 6.77965 2.54853 6.32777 2.62958C5.8694 2.71174 5.44274 2.84591 5.02628 3.05738C4.61691 3.26528 4.24233 3.53683 3.91753 3.86084C3.59279 4.18478 3.32058 4.55837 3.1122 4.96665C2.90004 5.38232 2.76552 5.80814 2.6831 6.26566C2.60195 6.71624 2.57507 7.17583 2.5627 7.63146C2.55706 7.84063 2.55463 8.04982 2.55336 8.25904C2.55183 8.50746 2.53906 8.81603 2.53906 9.06443L2.53914 11.8597L2.53906 14.041L2.55196 16.8956C2.55196 17.1443 2.55186 17.3931 2.55336 17.6418C2.55463 17.8513 2.55706 18.0608 2.56273 18.2702C2.57507 18.7266 2.60201 19.1871 2.68323 19.6384C2.76562 20.0963 2.90011 20.5225 3.1121 20.9385C3.3205 21.3474 3.59277 21.7216 3.91753 22.046C4.2423 22.3704 4.61679 22.6423 5.02608 22.8504C5.44279 23.0624 5.86965 23.1967 6.32831 23.279C6.77998 23.3601 7.24074 23.387 7.69746 23.3993C7.90716 23.405 8.11686 23.4074 8.32663 23.4087C8.57564 23.4102 8.82462 23.4101 9.07362 23.4101L11.9338 23.4102H14.0973L16.9519 23.4101C17.2004 23.4101 17.4489 23.4102 17.6975 23.4087C17.9068 23.4074 18.1161 23.405 18.3254 23.3993C18.7814 23.387 19.2414 23.3601 19.6924 23.2789C20.1499 23.1966 20.5757 23.0623 20.9914 22.8505C21.4 22.6424 21.7738 22.3704 22.098 22.046C22.4221 21.7216 22.6938 21.3475 22.9018 20.9386C23.1135 20.5224 23.2478 20.0961 23.33 19.6379C23.411 19.1867 23.4379 18.7265 23.4502 18.2702C23.4559 18.0608 23.4583 17.8513 23.4595 17.6418C23.4611 17.3931 23.4609 17.1443 23.4609 16.8956C23.4609 16.8956 23.4608 14.0914 23.4608 14.041V11.8574C23.4608 11.8202 23.4609 9.0042 23.4609 9.0042" fill="url(#paint2_linear_220_340)" fill-opacity="0.01"/>
</g>
<g filter="url(#filter3_dddii_220_340)">
<path d="M12.2298 5.59916C10.6198 5.59916 9.18954 6.63425 8.69111 8.16291C7.65601 8.37594 6.7624 9.02318 6.23876 9.94037C5.43134 11.334 5.61591 13.0863 6.69735 14.2808C6.36316 15.2817 6.47781 16.3762 7.01121 17.2828C7.81376 18.6813 9.4286 19.3985 11.0085 19.0651C11.7086 19.8538 12.7144 20.3035 13.7698 20.2994C15.3798 20.2994 16.81 19.2643 17.3093 17.7357C18.346 17.5218 19.238 16.8746 19.7568 15.959C20.5691 14.5654 20.3845 12.8131 19.303 11.6178V11.6129C19.6372 10.612 19.5226 9.51674 18.9892 8.60605C18.1866 7.21238 16.5718 6.49521 14.9968 6.82859C14.2926 6.04149 13.2852 5.59428 12.2298 5.59916ZM12.2298 6.55457L12.2249 6.55945C12.8729 6.55945 13.4958 6.78305 13.9942 7.19693C13.9739 7.20669 13.9341 7.23189 13.9048 7.24653L10.9735 8.93455C10.8239 9.01911 10.7345 9.17849 10.7345 9.35249V13.3148L9.47332 12.5879V9.31265C9.47251 7.79131 10.706 6.55701 12.2298 6.55457ZM15.7603 7.70838C16.7491 7.70675 17.663 8.23283 18.1566 9.08904C18.4753 9.64684 18.5948 10.299 18.4851 10.9307C18.4647 10.9161 18.4257 10.8958 18.4005 10.8811L15.47 9.18824C15.3204 9.10368 15.1367 9.10368 14.987 9.18824L11.5525 11.1698V9.71595L14.3878 8.07834C14.8049 7.83685 15.2781 7.70919 15.7603 7.70838ZM8.51141 9.21264V12.6919C8.51141 12.866 8.60085 13.0204 8.75046 13.1099L12.1794 15.0858L10.9133 15.8176L8.08208 14.1848C6.76484 13.4221 6.31438 11.7382 7.07545 10.4217C7.39826 9.86394 7.90564 9.43624 8.51141 9.21264ZM15.0805 10.0745L17.9167 11.7073C19.238 12.4692 19.686 14.1515 18.9233 15.4704L18.9282 15.4752C18.6046 16.033 18.0956 16.4607 17.4931 16.6803V13.2001C17.4931 13.0261 17.4036 12.8668 17.254 12.7822L13.8202 10.8006L15.0805 10.0745ZM12.9974 11.2739L14.4431 12.1098V13.7775L12.9974 14.6133L11.5516 13.7775V12.1098L12.9974 11.2739ZM15.27 12.5879L16.5311 13.3148V16.5851C16.5311 18.1081 15.2952 19.3432 13.7747 19.3432V19.3383C13.1315 19.3383 12.5038 19.1139 12.0102 18.7009C12.0306 18.6911 12.0753 18.6659 12.0997 18.6513L15.0301 16.964C15.1797 16.8795 15.2741 16.7201 15.2692 16.5461L15.27 12.5879ZM14.4471 14.7288V16.1826L11.611 17.8154C10.2897 18.5724 8.60573 18.1244 7.84303 16.8096H7.84791C7.52429 16.2566 7.40883 15.5996 7.5186 14.9679C7.53892 14.9825 7.57877 15.0028 7.60316 15.0175L10.5336 16.7104C10.6832 16.7949 10.867 16.7949 11.0166 16.7104L14.4471 14.7288Z" fill="#ECFFF8"/>
</g>
</g>
</g>
<defs>
<filter id="filter0_d_220_340" x="-7.46094" y="2.48828" width="40.9219" height="40.9219" filterUnits="userSpaceOnUse" color-interpolation-filters="sRGB">
<feFlood flood-opacity="0" result="BackgroundImageFix"/>
<feColorMatrix in="SourceAlpha" type="matrix" values="0 0 0 0 0 0 0 0 0 0 0 0 0 0 0 0 0 0 127 0" result="hardAlpha"/>
<feOffset dy="10"/>
<feGaussianBlur stdDeviation="5"/>
<feColorMatrix type="matrix" values="0 0 0 0 0 0 0 0 0 0 0 0 0 0 0 0 0 0 0.3 0"/>
<feBlend mode="normal" in2="BackgroundImageFix" result="effect1_dropShadow_220_340"/>
<feBlend mode="normal" in="SourceGraphic" in2="effect1_dropShadow_220_340" result="shape"/>
</filter>
<filter id="filter1_b_220_340" x="-8.33406" y="-8.38485" width="42.6681" height="42.6681" filterUnits="userSpaceOnUse" color-interpolation-filters="sRGB">
<feFlood flood-opacity="0" result="BackgroundImageFix"/>
<feGaussianBlur in="BackgroundImageFix" stdDeviation="5.43656"/>
<feComposite in2="SourceAlpha" operator="in" result="effect1_backgroundBlur_220_340"/>
<feBlend mode="normal" in="SourceGraphic" in2="effect1_backgroundBlur_220_340" result="shape"/>
</filter>
<filter id="filter2_ii_220_340" x="2.53906" y="-17.5117" width="20.9219" height="54.9219" filterUnits="userSpaceOnUse" color-interpolation-filters="sRGB">
<feFlood flood-opacity="0" result="BackgroundImageFix"/>
<feBlend mode="normal" in="SourceGraphic" in2="BackgroundImageFix" result="shape"/>
<feColorMatrix in="SourceAlpha" type="matrix" values="0 0 0 0 0 0 0 0 0 0 0 0 0 0 0 0 0 0 127 0" result="hardAlpha"/>
<feOffset dy="-20"/>
<feGaussianBlur stdDeviation="20"/>
<feComposite in2="hardAlpha" operator="arithmetic" k2="-1" k3="1"/>
<feColorMatrix type="matrix" values="0 0 0 0 0 0 0 0 0 0 0 0 0 0 0 0 0 0 0.2 0"/>
<feBlend mode="normal" in2="shape" result="effect1_innerShadow_220_340"/>
<feColorMatrix in="SourceAlpha" type="matrix" values="0 0 0 0 0 0 0 0 0 0 0 0 0 0 0 0 0 0 127 0" result="hardAlpha"/>
<feOffset dy="14"/>
<feGaussianBlur stdDeviation="32"/>
<feComposite in2="hardAlpha" operator="arithmetic" k2="-1" k3="1"/>
<feColorMatrix type="matrix" values="0 0 0 0 0.304167 0 0 0 0 0.71194 0 0 0 0 1 0 0 0 0.1 0"/>
<feBlend mode="normal" in2="effect1_innerShadow_220_340" result="effect2_innerShadow_220_340"/>
</filter>
<filter id="filter3_dddii_220_340" x="-96.2607" y="-90.4009" width="230.521" height="230.7" filterUnits="userSpaceOnUse" color-interpolation-filters="sRGB">
<feFlood flood-opacity="0" result="BackgroundImageFix"/>
<feColorMatrix in="SourceAlpha" type="matrix" values="0 0 0 0 0 0 0 0 0 0 0 0 0 0 0 0 0 0 127 0" result="hardAlpha"/>
<feOffset dx="-14" dy="12"/>
<feGaussianBlur stdDeviation="5"/>
<feColorMatrix type="matrix" values="0 0 0 0 0 0 0 0 0 0.0833333 0 0 0 0 0.166667 0 0 0 0.1 0"/>
<feBlend mode="normal" in2="BackgroundImageFix" result="effect1_dropShadow_220_340"/>
<feColorMatrix in="SourceAlpha" type="matrix" values="0 0 0 0 0 0 0 0 0 0 0 0 0 0 0 0 0 0 127 0" result="hardAlpha"/>
<feOffset dx="6" dy="12"/>
<feGaussianBlur stdDeviation="54"/>
<feColorMatrix type="matrix" values="0 0 0 0 0.14875 0 0 0 0 0.7 0 0 0 0 0.534625 0 0 0 0.3 0"/>
<feBlend mode="normal" in2="effect1_dropShadow_220_340" result="effect2_dropShadow_220_340"/>
<feColorMatrix in="SourceAlpha" type="matrix" values="0 0 0 0 0 0 0 0 0 0 0 0 0 0 0 0 0 0 127 0" result="hardAlpha"/>
<feOffset dy="6"/>
<feGaussianBlur stdDeviation="20"/>
<feColorMatrix type="matrix" values="0 0 0 0 0 0 0 0 0 0.316667 0 0 0 0 0.202667 0 0 0 0.2 0"/>
<feBlend mode="normal" in2="effect2_dropShadow_220_340" result="effect3_dropShadow_220_340"/>
<feBlend mode="normal" in="SourceGraphic" in2="effect3_dropShadow_220_340" result="shape"/>
<feColorMatrix in="SourceAlpha" type="matrix" values="0 0 0 0 0 0 0 0 0 0 0 0 0 0 0 0 0 0 127 0" result="hardAlpha"/>
<feOffset dx="10" dy="-15"/>
<feGaussianBlur stdDeviation="7"/>
<feComposite in2="hardAlpha" operator="arithmetic" k2="-1" k3="1"/>
<feColorMatrix type="matrix" values="0 0 0 0 0.332622 0 0 0 0 0.670833 0 0 0 0 0.549588 0 0 0 0.28 0"/>
<feBlend mode="normal" in2="shape" result="effect4_innerShadow_220_340"/>
<feColorMatrix in="SourceAlpha" type="matrix" values="0 0 0 0 0 0 0 0 0 0 0 0 0 0 0 0 0 0 127 0" result="hardAlpha"/>
<feOffset dx="3" dy="4"/>
<feGaussianBlur stdDeviation="2"/>
<feComposite in2="hardAlpha" operator="arithmetic" k2="-1" k3="1"/>
<feColorMatrix type="matrix" values="0 0 0 0 1 0 0 0 0 1 0 0 0 0 1 0 0 0 1 0"/>
<feBlend mode="normal" in2="effect4_innerShadow_220_340" result="effect5_innerShadow_220_340"/>
</filter>
<linearGradient id="paint0_linear_220_340" x1="-4.59927" y1="2.48828" x2="-4.59927" y2="37.6868" gradientUnits="userSpaceOnUse">
<stop stop-color="white"/>
<stop offset="0.489516" stop-color="#EFEFEF"/>
<stop offset="1" stop-color="#C0C0C0"/>
</linearGradient>
<linearGradient id="paint1_linear_220_340" x1="12.6699" y1="0.914062" x2="12.6699" y2="24.1211" gradientUnits="userSpaceOnUse">
<stop stop-color="#88F2CC"/>
<stop offset="1" stop-color="#5EB391"/>
</linearGradient>
<linearGradient id="paint2_linear_220_340" x1="-4.59927" y1="2.48828" x2="-4.59927" y2="37.6868" gradientUnits="userSpaceOnUse">
<stop stop-color="white"/>
<stop offset="0.489516" stop-color="#EFEFEF"/>
<stop offset="1" stop-color="#C0C0C0"/>
</linearGradient>
<clipPath id="clip0_220_340">
<rect width="26" height="26" fill="white"/>
</clipPath>
</defs>
</svg>
