<svg width="125" height="44" viewBox="0 0 125 44" fill="none" xmlns="http://www.w3.org/2000/svg">
<path d="M84.0393 29.174C85.2033 28.262 86.1573 27.476 86.9013 26.816C87.6453 26.156 88.2693 25.478 88.7733 24.782C89.2773 24.074 89.5293 23.402 89.5293 22.766C89.5293 22.382 89.4393 22.082 89.2593 21.866C89.0913 21.65 88.8393 21.542 88.5033 21.542C88.1553 21.542 87.8853 21.692 87.6933 21.992C87.5013 22.28 87.4113 22.706 87.4233 23.27H84.0033C84.0393 22.202 84.2733 21.32 84.7053 20.624C85.1373 19.916 85.7013 19.4 86.3973 19.076C87.0933 18.74 87.8673 18.572 88.7193 18.572C90.1953 18.572 91.2933 18.938 92.0133 19.67C92.7333 20.402 93.0933 21.35 93.0933 22.514C93.0933 23.762 92.6733 24.932 91.8333 26.024C91.0053 27.116 89.9673 28.094 88.7193 28.958H93.2193V31.82H84.0393V29.174ZM109.901 32H106.373L101.675 24.908V32H98.1467V19.31H101.675L106.373 26.492V19.31H109.901V32ZM116.932 19.31C118.264 19.31 119.428 19.58 120.424 20.12C121.432 20.648 122.206 21.392 122.746 22.352C123.286 23.312 123.556 24.41 123.556 25.646C123.556 26.87 123.28 27.962 122.728 28.922C122.188 29.882 121.414 30.638 120.406 31.19C119.41 31.73 118.252 32 116.932 32H111.91V19.31H116.932ZM116.662 28.886C117.694 28.886 118.504 28.604 119.092 28.04C119.68 27.476 119.974 26.678 119.974 25.646C119.974 24.602 119.68 23.798 119.092 23.234C118.504 22.658 117.694 22.37 116.662 22.37H115.438V28.886H116.662Z" fill="white"/>
<path d="M20.213 11.555L13.021 25.504V32H7.308V25.504L0.116 11.555H6.612L10.208 19.443L13.804 11.555H20.213ZM27.642 16.108V19.443H34.167V23.764H27.642V27.447H35.037V32H21.958V11.555H35.037V16.108H27.642ZM50.7797 28.665H43.5297L42.4277 32H36.4537L43.9067 11.555H50.4607L57.8847 32H51.8817L50.7797 28.665ZM49.3587 24.315L47.1547 17.703L44.9797 24.315H49.3587ZM70.0903 32L66.0303 24.46H65.4213V32H59.7373V11.555H68.6983C70.3416 11.555 71.7336 11.845 72.8743 12.425C74.0149 12.9857 74.8753 13.7687 75.4553 14.774C76.0353 15.76 76.3253 16.8717 76.3253 18.109C76.3253 19.501 75.9386 20.7287 75.1653 21.792C74.4113 22.836 73.2996 23.5803 71.8303 24.025L76.4413 32H70.0903ZM65.4213 20.574H68.2343C69.0076 20.574 69.5876 20.3903 69.9743 20.023C70.3609 19.6557 70.5543 19.124 70.5543 18.428C70.5543 17.7707 70.3513 17.2583 69.9453 16.891C69.5586 16.5043 68.9883 16.311 68.2343 16.311H65.4213V20.574Z" fill="white"/>
</svg>
