<svg width="70" height="70" viewBox="0 0 190 180" fill="none" xmlns="http://www.w3.org/2000/svg">
<path d="M21.8678 39.163V26.099H43.7358V78H29.1808V39.163H21.8678ZM84.4987 78.497C78.6767 78.497 73.8961 77.1243 70.1567 74.379C66.4174 71.5863 64.4057 67.6103 64.1217 62.451H78.9607C79.1027 64.2023 79.6234 65.4803 80.5227 66.285C81.4221 67.0897 82.5817 67.492 84.0017 67.492C85.2797 67.492 86.3211 67.1843 87.1257 66.569C87.9777 65.9063 88.4037 65.007 88.4037 63.871C88.4037 62.4037 87.7174 61.2677 86.3447 60.463C84.9721 59.6583 82.7474 58.759 79.6707 57.765C76.4047 56.6763 73.7541 55.635 71.7187 54.641C69.7307 53.5997 67.9794 52.1087 66.4647 50.168C64.9974 48.18 64.2637 45.6003 64.2637 42.429C64.2637 39.2103 65.0684 36.465 66.6777 34.193C68.2871 31.8737 70.5117 30.1223 73.3517 28.939C76.1917 27.7557 79.4104 27.164 83.0077 27.164C88.8297 27.164 93.4684 28.5367 96.9237 31.282C100.426 33.98 102.296 37.7903 102.533 42.713H87.4097C87.3624 41.1983 86.8891 40.0623 85.9897 39.305C85.1377 38.5477 84.0254 38.169 82.6527 38.169C81.6114 38.169 80.7594 38.4767 80.0967 39.092C79.4341 39.7073 79.1027 40.583 79.1027 41.719C79.1027 42.6657 79.4577 43.494 80.1677 44.204C80.9251 44.8667 81.8481 45.4583 82.9367 45.979C84.0254 46.4523 85.6347 47.0677 87.7647 47.825C90.9361 48.9137 93.5394 50.0023 95.5747 51.091C97.6574 52.1323 99.4324 53.6233 100.9 55.564C102.414 57.4573 103.172 59.8713 103.172 62.806C103.172 65.788 102.414 68.4623 100.9 70.829C99.4324 73.1957 97.2787 75.0653 94.4387 76.438C91.6461 77.8107 88.3327 78.497 84.4987 78.497ZM147.342 27.945V39.021H133.994V78H120.078V39.021H106.872V27.945H147.342Z" fill="white"/>
<path d="M49.487 100.945L31.879 135.096V151H17.892V135.096L0.284 100.945H16.188L24.992 120.257L33.796 100.945H49.487ZM67.6752 112.092V120.257H83.6502V130.836H67.6752V139.853H85.7802V151H53.7592V100.945H85.7802V112.092H67.6752ZM124.323 142.835H106.573L103.875 151H89.2487L107.496 100.945H123.542L141.718 151H127.021L124.323 142.835ZM120.844 132.185L115.448 115.997L110.123 132.185H120.844ZM171.6 151L161.66 132.54H160.169V151H146.253V100.945H168.192C172.216 100.945 175.624 101.655 178.416 103.075C181.209 104.448 183.315 106.365 184.735 108.826C186.155 111.24 186.865 113.962 186.865 116.991C186.865 120.399 185.919 123.405 184.025 126.008C182.179 128.564 179.458 130.386 175.86 131.475L187.149 151H171.6ZM160.169 123.026H167.056C168.95 123.026 170.37 122.576 171.316 121.677C172.263 120.778 172.736 119.476 172.736 117.772C172.736 116.163 172.239 114.908 171.245 114.009C170.299 113.062 168.902 112.589 167.056 112.589H160.169V123.026Z" fill="white"/>
</svg>
