<svg width="75" height="64" viewBox="0 0 75 64" fill="none" xmlns="http://www.w3.org/2000/svg">
<path d="M67.1722 24.3739C65.8229 18.8137 63.5716 13.6303 61.2312 10.0749C55.5859 1.53381 42.4626 -2.23145 33.4024 1.3484C25.6763 4.40462 22.9796 13.6222 16.2237 18.0394C10.0137 22.1022 4.37967 25.4151 2.20036 33.1596C-2.38756 49.5225 15.7519 62.5665 29.2996 58.4243C33.5767 57.1162 37.1944 54.3595 41.7577 54.3493C51.0131 54.3147 54.2745 55.6798 61.7637 50.3029C69.1525 44.9912 69.5354 34.109 67.1722 24.3739Z" fill="#5667FD"/>
<path opacity="0.8" d="M67.1722 24.3739C65.8229 18.8137 63.5716 13.6303 61.2312 10.0749C55.5859 1.53381 42.4626 -2.23145 33.4024 1.3484C25.6763 4.40462 22.9796 13.6222 16.2237 18.0394C10.0137 22.1022 4.37967 25.4151 2.20036 33.1596C-2.38756 49.5225 15.7519 62.5665 29.2996 58.4243C33.5767 57.1162 37.1944 54.3595 41.7577 54.3493C51.0131 54.3147 54.2745 55.6798 61.7637 50.3029C69.1525 44.9912 69.5354 34.109 67.1722 24.3739Z" fill="white"/>
<path d="M73.291 60.1148C72.5444 60.1148 72.5444 61.0072 71.7959 61.0072C71.0473 61.0072 71.0492 60.1148 70.3026 60.1148C69.5559 60.1148 69.5445 61.0072 68.8074 61.0072C68.0702 61.0072 68.0588 60.1148 67.3122 60.1148C66.5655 60.1148 66.5655 61.0072 65.817 61.0072C65.0684 61.0072 65.0703 60.1148 64.3218 60.1148C63.5732 60.1148 63.5751 61.0072 62.8285 61.0072C62.0818 61.0072 62.0799 60.1148 61.3333 60.1148C60.5866 60.1148 60.5866 61.0072 59.8381 61.0072C59.0895 61.0072 59.0914 60.1148 58.3448 60.1148C57.5981 60.1148 57.5962 61.0072 56.8496 61.0072C56.1029 61.0072 56.1029 60.1148 55.3563 60.1148C54.6096 60.1148 54.5983 61.0072 53.8611 61.0072C53.1239 61.0072 53.1144 60.1148 52.3678 60.1148C51.6211 60.1148 51.6211 61.0072 50.8726 61.0072C50.124 61.0072 50.1259 60.1148 49.3793 60.1148C48.6326 60.1148 48.6326 61.0072 47.886 61.0072C47.1393 61.0072 47.1374 60.1148 46.3908 60.1148C45.6441 60.1148 45.6441 61.0072 44.8975 61.0072C44.1508 61.0072 44.1508 60.1148 43.4042 60.1148C42.6575 60.1148 42.6575 61.0072 41.909 61.0072C41.1604 61.0072 41.1623 60.1148 40.4157 60.1148C39.669 60.1148 39.669 61.0072 38.9205 61.0072C38.1719 61.0072 38.1738 60.1148 37.4272 60.1148C36.6805 60.1148 36.6692 61.0072 35.932 61.0072C35.1948 61.0072 35.1853 60.1148 34.4387 60.1148C33.692 60.1148 33.6901 61.0072 32.9435 61.0072C32.1968 61.0072 32.1968 60.1148 31.4502 60.1148C30.7035 60.1148 30.7016 61.0072 29.955 61.0072C29.2083 61.0072 29.2083 60.1148 28.4617 60.1148C27.715 60.1148 27.7169 61.0072 26.9589 61.0072C26.2009 61.0072 26.2123 60.1148 25.4656 60.1148C24.719 60.1148 24.719 61.0072 23.9723 61.0072C23.2257 61.0072 23.2238 60.1148 22.4771 60.1148C21.7305 60.1148 21.7305 61.0072 20.9838 61.0072C20.2372 61.0072 20.2353 60.1148 19.4886 60.1148C18.742 60.1148 18.742 61.0072 17.9953 61.0072C17.2487 61.0072 17.2487 60.1148 16.5001 60.1148C15.7516 60.1148 15.7535 61.0072 15.0068 61.0072C14.2602 61.0072 14.2602 60.1148 13.5135 60.1148C12.7669 60.1148 12.7669 61.0072 12.0183 61.0072C11.2698 61.0072 11.2717 60.1148 10.525 60.1148C9.77838 60.1148 9.77838 61.0072 9.03173 61.0072C8.28508 61.0072 8.28508 60.1148 7.53653 60.1148C6.78798 60.1148 6.78988 61.0072 6.04323 61.0072C5.29658 61.0072 5.29658 60.1148 4.54993 60.1148C3.80328 60.1148 3.80328 61.0072 3.05473 61.0072C2.30619 61.0072 2.32324 60.1148 1.56522 60.1148C0.8072 60.1148 0.81857 61.0072 0.0719199 61.0072H-9.15527e-05V63.9819H74.5778V60.9767C74.0339 60.8239 73.9562 60.1148 73.291 60.1148Z" fill="#5667FD"/>
<path d="M16.4224 63.4137V55.1802" stroke="#263238" stroke-width="1.65533" stroke-miterlimit="10"/>
<path d="M12.8882 55.5615L16.4225 58.3487" stroke="#263238" stroke-width="1.65533" stroke-miterlimit="10"/>
<path d="M16.4224 61.1334L20.4285 55.4346" stroke="#263238" stroke-width="1.65533" stroke-miterlimit="10"/>
<path d="M27.2071 55.8057V53.1814C27.2074 51.7305 26.9418 50.2938 26.4255 48.9532C25.9093 47.6127 25.1525 46.3946 24.1983 45.3686C23.2442 44.3425 22.1114 43.5286 20.8647 42.9733C19.6179 42.418 18.2817 42.1322 16.9322 42.1322C15.5827 42.1322 14.2464 42.418 12.9997 42.9733C11.7529 43.5286 10.6201 44.3425 9.66599 45.3686C8.71185 46.3946 7.95504 47.6127 7.43879 48.9532C6.92253 50.2938 6.65695 51.7305 6.6572 53.1814V55.8057H27.2071Z" fill="#5667FD"/>
<path opacity="0.5" d="M27.2071 55.8057V53.1814C27.2074 51.7305 26.9418 50.2938 26.4255 48.9532C25.9093 47.6127 25.1525 46.3946 24.1983 45.3686C23.2442 44.3425 22.1114 43.5286 20.8647 42.9733C19.6179 42.418 18.2817 42.1322 16.9322 42.1322C15.5827 42.1322 14.2464 42.418 12.9997 42.9733C11.7529 43.5286 10.6201 44.3425 9.66599 45.3686C8.71185 46.3946 7.95504 47.6127 7.43879 48.9532C6.92253 50.2938 6.65695 51.7305 6.6572 53.1814V55.8057H27.2071Z" fill="white"/>
<path opacity="0.1" d="M6.6573 55.8056H27.2072V53.1813C27.2074 51.5839 26.8841 50.0057 26.2597 48.5562L26.2029 48.6133C26.0938 48.3592 25.9197 48.1437 25.701 47.992C25.4823 47.8402 25.2279 47.7585 24.9676 47.7564C24.7073 47.7543 24.4518 47.8318 24.231 47.9799C24.0101 48.128 23.833 48.3406 23.7204 48.5929C23.5894 48.4882 23.4306 48.4318 23.2674 48.4319C23.1076 48.4288 22.9511 48.4821 22.8221 48.5837C22.6931 48.6853 22.5985 48.8295 22.553 48.9943C22.4828 48.8861 22.3892 48.7979 22.2802 48.7372C22.1713 48.6766 22.0503 48.6452 21.9276 48.6459C21.7565 48.6453 21.5901 48.7071 21.4558 48.8211C21.4122 48.6611 21.324 48.5193 21.2031 48.4148C21.0823 48.3104 20.9345 48.2483 20.7798 48.237C20.625 48.2256 20.4708 48.2656 20.3379 48.3515C20.205 48.4374 20.0997 48.565 20.0364 48.7172C19.9084 48.6237 19.7571 48.574 19.6024 48.5746C19.4155 48.5729 19.2347 48.6454 19.0945 48.7783C18.9901 48.5257 18.8216 48.3097 18.6084 48.1552C18.3952 48.0006 18.1458 47.9137 17.8888 47.9044C17.6319 47.895 17.3776 47.9636 17.1551 48.1023C16.9327 48.241 16.751 48.4442 16.631 48.6887C16.56 48.5856 16.4674 48.502 16.3607 48.4446C16.254 48.3873 16.1362 48.3578 16.017 48.3586C15.8563 48.3553 15.699 48.409 15.5696 48.5113C15.4401 48.6137 15.3456 48.7591 15.3006 48.925C15.2453 48.7766 15.1494 48.6498 15.0255 48.5614C14.9016 48.473 14.7557 48.4271 14.607 48.4299C14.4991 48.4306 14.3926 48.456 14.2945 48.5045C14.1965 48.553 14.1092 48.6234 14.0385 48.7111C13.9772 48.5633 13.8764 48.4386 13.749 48.3526C13.6215 48.2667 13.4731 48.2235 13.3227 48.2285C13.1724 48.2336 13.0268 48.2866 12.9045 48.3809C12.7822 48.4751 12.6888 48.6064 12.6362 48.7579C12.496 48.6079 12.3276 48.4918 12.1423 48.4173C11.957 48.3429 11.7591 48.3119 11.5617 48.3264C11.3643 48.3408 11.1721 48.4004 10.9979 48.5012C10.8237 48.602 10.6716 48.7416 10.5516 48.9107C10.5175 48.7316 10.4259 48.5711 10.2929 48.4571C10.1599 48.3432 9.99395 48.2831 9.82394 48.2873C9.67636 48.285 9.53154 48.3304 9.40822 48.4175C9.2849 48.5047 9.18876 48.6297 9.13224 48.7763C9.05956 48.6981 8.97285 48.6367 8.8774 48.5957C8.78195 48.5548 8.67974 48.5351 8.57699 48.5379C8.50431 48.5386 8.43215 48.551 8.36285 48.5746C8.25573 48.3267 8.08303 48.1184 7.86635 47.9755C7.06883 49.5766 6.65278 51.3651 6.65541 53.1813L6.6573 55.8056Z" fill="#263238"/>
<path opacity="0.1" d="M27.2074 53.1818C27.2079 52.4518 27.1412 51.7236 27.0084 51.0078C26.9136 50.9931 26.818 50.9856 26.7222 50.9854C26.04 50.9854 25.4582 51.3317 25.2062 51.8228C25.0388 51.716 24.8475 51.6604 24.6528 51.6618C24.4715 51.6487 24.2908 51.6956 24.135 51.7961C23.9792 51.8966 23.8557 52.046 23.7811 52.2241C23.6859 52.1103 23.5687 52.0202 23.4378 51.96C23.3069 51.8999 23.1654 51.8711 23.0231 51.8757C22.822 51.875 22.6248 51.9358 22.4546 52.051C22.3731 51.7087 22.0073 51.4397 21.5696 51.4397C21.3991 51.4297 21.2295 51.4712 21.0798 51.5594C20.9301 51.6476 20.8063 51.779 20.7225 51.9389C20.5611 51.8439 20.3797 51.7948 20.1957 51.7963C19.9743 51.7926 19.7576 51.8639 19.576 52C19.3448 51.4845 18.7497 51.1178 18.0467 51.1178C17.3872 51.1178 16.8187 51.4438 16.5629 51.9104C16.4665 51.8022 16.3501 51.7169 16.2211 51.66C16.0922 51.6032 15.9536 51.576 15.8143 51.5803C15.6323 51.5671 15.4508 51.6144 15.2946 51.7157C15.1384 51.817 15.0148 51.9675 14.9407 52.1467C14.8563 51.9881 14.7326 51.8578 14.5833 51.7704C14.4341 51.683 14.2652 51.6418 14.0955 51.6516C13.8371 51.6468 13.5866 51.7472 13.3943 51.9328C13.3088 51.7781 13.1855 51.6515 13.0379 51.5667C12.8902 51.482 12.7238 51.4423 12.5567 51.4519C12.3787 51.4399 12.2013 51.4852 12.0474 51.5821C11.8935 51.679 11.7699 51.8231 11.6926 51.9959C11.3527 51.7052 10.9291 51.551 10.4949 51.5599C10.2451 51.5522 9.99644 51.6004 9.76482 51.7014C9.5332 51.8024 9.32364 51.954 9.14941 52.1467C9.07739 51.7942 8.70975 51.5232 8.26252 51.5232C8.09329 51.5138 7.9249 51.5546 7.77581 51.6412C7.62673 51.7278 7.5027 51.8569 7.41733 52.0143C7.23051 51.8533 6.99724 51.7675 6.75785 51.7718C6.70224 52.2401 6.67439 52.7117 6.67447 53.1838V55.8081H27.2074V53.1818Z" fill="#263238"/>
<path d="M58.0453 63.4137V55.1802" stroke="#263238" stroke-width="1.65533" stroke-miterlimit="10"/>
<path d="M54.5112 55.5615L58.0454 58.3487" stroke="#263238" stroke-width="1.65533" stroke-miterlimit="10"/>
<path d="M58.0453 61.1334L62.0515 55.4346" stroke="#263238" stroke-width="1.65533" stroke-miterlimit="10"/>
<path d="M68.8395 55.8057V53.1814C68.8397 51.7305 68.5742 50.2938 68.0579 48.9532C67.5416 47.6127 66.7848 46.3946 65.8307 45.3686C64.8766 44.3425 63.7438 43.5286 62.497 42.9733C61.2503 42.418 59.914 42.1322 58.5645 42.1322C57.215 42.1322 55.8788 42.418 54.632 42.9733C53.3853 43.5286 52.2525 44.3425 51.2984 45.3686C50.3442 46.3946 49.5874 47.6127 49.0711 48.9532C48.5549 50.2938 48.2893 51.7305 48.2896 53.1814V55.8057H68.8395Z" fill="#5667FD"/>
<path opacity="0.5" d="M68.8395 55.8057V53.1814C68.8397 51.7305 68.5742 50.2938 68.0579 48.9532C67.5416 47.6127 66.7848 46.3946 65.8307 45.3686C64.8766 44.3425 63.7438 43.5286 62.497 42.9733C61.2503 42.418 59.914 42.1322 58.5645 42.1322C57.215 42.1322 55.8788 42.418 54.632 42.9733C53.3853 43.5286 52.2525 44.3425 51.2984 45.3686C50.3442 46.3946 49.5874 47.6127 49.0711 48.9532C48.5549 50.2938 48.2893 51.7305 48.2896 53.1814V55.8057H68.8395Z" fill="white"/>
<path opacity="0.1" d="M48.2802 55.8056H68.8396V53.1813C68.8398 51.5839 68.5164 50.0057 67.8921 48.5562L67.8352 48.6133C67.7261 48.3592 67.5521 48.1437 67.3333 47.992C67.1146 47.8402 66.8603 47.7585 66.6 47.7564C66.3397 47.7543 66.0842 47.8318 65.8633 47.9799C65.6425 48.128 65.4654 48.3406 65.3527 48.5929C65.2218 48.4882 65.0629 48.4318 64.8998 48.4319C64.7399 48.4288 64.5835 48.4821 64.4544 48.5837C64.3254 48.6853 64.2309 48.8295 64.1853 48.9943C64.1151 48.8861 64.0215 48.7979 63.9126 48.7372C63.8037 48.6766 63.6827 48.6452 63.56 48.6459C63.3888 48.6453 63.2225 48.7071 63.0881 48.8211C63.0445 48.6611 62.9564 48.5193 62.8355 48.4148C62.7146 48.3104 62.5668 48.2483 62.4121 48.237C62.2574 48.2256 62.1032 48.2656 61.9702 48.3515C61.8373 48.4374 61.7321 48.565 61.6687 48.7172C61.5407 48.6237 61.3895 48.574 61.2348 48.5746C61.0479 48.5729 60.867 48.6454 60.7269 48.7783C60.6224 48.5257 60.454 48.3097 60.2408 48.1552C60.0276 48.0006 59.7782 47.9137 59.5212 47.9044C59.2642 47.895 59.0099 47.9636 58.7875 48.1023C58.565 48.241 58.3834 48.4442 58.2633 48.6887C58.1923 48.5856 58.0997 48.502 57.9931 48.4446C57.8864 48.3873 57.7686 48.3578 57.6493 48.3586C57.4886 48.3553 57.3314 48.409 57.2019 48.5113C57.0724 48.6137 56.9779 48.7591 56.933 48.925C56.8777 48.7766 56.7817 48.6498 56.6579 48.5614C56.534 48.473 56.3881 48.4271 56.2394 48.4299C56.1315 48.4306 56.0249 48.456 55.9269 48.5045C55.8289 48.553 55.7416 48.6234 55.6709 48.7111C55.6096 48.5633 55.5088 48.4386 55.3813 48.3526C55.2538 48.2667 55.1055 48.2235 54.9551 48.2285C54.8047 48.2336 54.6591 48.2866 54.5369 48.3809C54.4146 48.4751 54.3212 48.6064 54.2685 48.7579C54.1283 48.6079 53.96 48.4918 53.7747 48.4173C53.5894 48.3429 53.3914 48.3119 53.194 48.3264C52.9967 48.3408 52.8045 48.4004 52.6303 48.5012C52.4561 48.602 52.3039 48.7416 52.184 48.9107C52.1498 48.7316 52.0583 48.5711 51.9253 48.4571C51.7923 48.3432 51.6263 48.2831 51.4563 48.2873C51.3087 48.285 51.1639 48.3304 51.0406 48.4175C50.9172 48.5047 50.8211 48.6297 50.7646 48.7763C50.6936 48.6995 50.6092 48.6387 50.5161 48.5974C50.423 48.5562 50.3233 48.5352 50.2226 48.5359C50.1499 48.5366 50.0778 48.549 50.0085 48.5725C49.9012 48.3242 49.7277 48.1157 49.5101 47.9735C48.7137 49.5749 48.2983 51.3633 48.301 53.1793L48.2802 55.8056Z" fill="#263238"/>
<path opacity="0.1" d="M68.8397 53.1818C68.8402 52.4518 68.7736 51.7236 68.6407 51.0078C68.5459 50.9931 68.4503 50.9856 68.3546 50.9854C67.6723 50.9854 67.0906 51.3317 66.8385 51.8228C66.6711 51.716 66.4798 51.6604 66.2852 51.6618C66.1039 51.6487 65.9232 51.6956 65.7674 51.7961C65.6115 51.8966 65.488 52.046 65.4134 52.2241C65.3182 52.1103 65.2011 52.0202 65.0702 51.96C64.9393 51.8999 64.7977 51.8711 64.6554 51.8757C64.4543 51.875 64.2571 51.9358 64.0869 52.051C64.0054 51.7087 63.6397 51.4397 63.2019 51.4397C63.0315 51.4297 62.8618 51.4712 62.7121 51.5594C62.5625 51.6476 62.4387 51.779 62.3548 51.9389C62.1934 51.8439 62.012 51.7948 61.828 51.7963C61.6067 51.7926 61.3899 51.8639 61.2083 52C60.9771 51.4845 60.3821 51.1178 59.679 51.1178C59.0195 51.1178 58.451 51.4438 58.1952 51.9104C58.0988 51.8022 57.9824 51.7169 57.8535 51.66C57.7245 51.6032 57.5859 51.576 57.4466 51.5803C57.2646 51.5671 57.0832 51.6144 56.9269 51.7157C56.7707 51.817 56.6471 51.9675 56.573 52.1467C56.4886 51.9881 56.3649 51.8578 56.2157 51.7704C56.0664 51.683 55.8975 51.6418 55.7278 51.6516C55.4695 51.6468 55.219 51.7472 55.0267 51.9328C54.9423 51.7742 54.8186 51.6439 54.6693 51.5565C54.5201 51.469 54.3512 51.4279 54.1815 51.4377C54.0034 51.4256 53.8261 51.4709 53.6722 51.5678C53.5182 51.6647 53.3947 51.8088 53.3173 51.9817C52.9774 51.691 52.5539 51.5368 52.1197 51.5457C51.8698 51.5379 51.6212 51.5861 51.3896 51.6871C51.158 51.7881 50.9484 51.9398 50.7742 52.1325C50.7022 51.78 50.3345 51.509 49.8873 51.509C49.718 51.4995 49.5497 51.5403 49.4006 51.6269C49.2515 51.7136 49.1275 51.8426 49.0421 52C48.8553 51.839 48.622 51.7533 48.3826 51.7576C48.327 52.2258 48.2991 52.6974 48.2992 53.1695V55.7938H68.8397V53.1818Z" fill="#263238"/>
<path d="M52.98 6.95572C52.222 6.51562 51.8884 6.88237 51.6156 6.51562C51.3427 6.14888 52.3736 5.1933 50.3193 4.23976C50.3193 4.23976 50.1829 2.18598 47.3858 2.11263C44.5887 2.03928 45.341 4.16641 44.583 4.67985C43.825 5.1933 43.6355 4.38646 42.8775 4.8999C42.1195 5.41335 42.4681 6.44227 41.8541 6.58897C41.2401 6.73567 40.4215 5.92883 39.671 6.44227C38.9206 6.95572 38.913 7.39581 38.5776 7.39581C38.2422 7.39581 37.5543 7.10242 37.1449 7.39581C36.7356 7.68921 36.2581 8.05595 36.2581 8.05595H53.522C53.522 8.05595 53.7304 7.39581 52.98 6.95572Z" fill="white"/>
<path d="M63.9126 25.6273C63.3934 25.3237 63.1546 25.5784 62.9651 25.3237C62.7756 25.069 63.4824 24.4109 62.0687 23.7528C62.0687 23.7528 61.974 22.3265 60.041 22.2838C58.1081 22.241 58.6273 23.71 58.11 24.0564C57.5926 24.4027 57.4486 23.8526 56.9312 24.2092C56.4139 24.5657 56.6489 25.2727 56.2244 25.3746C55.7999 25.4765 55.2333 24.9182 54.7083 25.2727C54.1834 25.6273 54.1891 25.9329 53.9503 25.9329C53.7115 25.9329 53.2435 25.7291 52.9592 25.9329C52.675 26.1366 52.3471 26.3893 52.3471 26.3893H64.2916C64.2916 26.3893 64.4375 25.9329 63.9126 25.6273Z" fill="white"/>
<path d="M56.7855 22.7548C56.4595 22.5653 56.3117 22.7242 56.1942 22.5653C56.0767 22.4064 56.5202 21.9907 55.6257 21.5771C55.6257 21.5771 55.5651 20.6847 54.3503 20.6541C53.1356 20.6236 53.4616 21.5445 53.1356 21.7686C52.8097 21.9927 52.7225 21.6403 52.3965 21.8644C52.0706 22.0885 52.2184 22.5327 51.9512 22.5958C51.684 22.659 51.3296 22.3106 51.0037 22.5327C50.6777 22.7548 50.6777 22.9402 50.5299 22.9402C50.3821 22.9402 50.0846 22.8139 49.9064 22.9402C49.7283 23.0665 49.5274 23.2275 49.5274 23.2275H57.0224C57.0429 23.1312 57.0301 23.0302 56.9866 22.9432C56.943 22.8563 56.8715 22.7893 56.7855 22.7548Z" fill="white"/>
<path d="M30.158 29.8552C28.9925 29.1727 28.4638 29.7411 28.0393 29.1727C27.6148 28.6042 29.2048 27.123 26.0268 25.6417C26.0268 25.6417 25.8145 22.451 21.4786 22.339C17.1428 22.2269 18.3006 25.5276 17.1352 26.3243C15.9697 27.1209 15.6514 25.8699 14.4821 26.6666C13.3129 27.4632 13.8473 29.0586 12.8941 29.2868C11.9408 29.515 10.6693 28.268 9.50381 29.0586C8.33835 29.8491 8.33835 30.5398 7.79826 30.5398C7.25817 30.5398 6.21021 30.0834 5.57347 30.5398C4.93674 30.9962 4.19577 31.5586 4.19577 31.5586H31.007C31.007 31.5586 31.3178 30.5398 30.158 29.8552Z" fill="white"/>
<path d="M32.0759 46.903C32.0759 46.903 32.1574 49.4355 32.7259 51.037C33.2944 52.6385 35.7315 57.18 36.3265 58.3149C36.9216 59.4497 37.0845 59.7696 37.0845 59.7696C36.6117 60.3956 36.169 61.047 35.758 61.7215C35.3525 62.4489 34.621 62.8279 34.784 63.1192C34.9469 63.4106 35.1364 63.38 36.0025 63.1478C36.8685 62.9155 37.1395 62.3898 37.8445 61.7786C38.5494 61.1673 39.116 61.1388 39.1426 60.6722C39.1691 60.2056 38.2765 59.3336 38.087 58.7794C37.8975 58.2252 36.8155 55.7823 36.192 53.1315C35.5685 50.4808 34.9735 49.6393 34.9469 49.3194C34.9204 48.9995 35.1895 46.9885 35.1895 46.9885L32.0759 46.903Z" fill="white"/>
<path d="M39.1312 60.5941C39.0706 60.1153 38.2595 59.3043 38.0795 58.7787C37.8994 58.253 36.8079 55.7815 36.1844 53.1308C35.5609 50.48 34.9659 49.6386 34.9394 49.3187C34.9128 48.9988 35.1819 46.9878 35.1819 46.9878L32.0759 46.9022C32.0759 46.9022 32.1044 47.8109 32.2503 48.8847C32.4246 48.9132 32.6293 48.9377 32.8737 48.954C33.4023 48.9981 33.9339 48.9352 34.441 48.7685C34.441 48.7685 34.2666 49.5163 34.8465 51.4499C35.4264 53.3834 37.2835 58.0635 37.6891 58.8744C37.9032 59.3166 38.5684 60.0317 39.1312 60.5941Z" fill="#5667FD"/>
<path opacity="0.5" d="M39.1312 60.5941C39.0706 60.1153 38.2595 59.3043 38.0795 58.7787C37.8994 58.253 36.8079 55.7815 36.1844 53.1308C35.5609 50.48 34.9659 49.6386 34.9394 49.3187C34.9128 48.9988 35.1819 46.9878 35.1819 46.9878L32.0759 46.9022C32.0759 46.9022 32.1044 47.8109 32.2503 48.8847C32.4246 48.9132 32.6293 48.9377 32.8737 48.954C33.4023 48.9981 33.9339 48.9352 34.441 48.7685C34.441 48.7685 34.2666 49.5163 34.8465 51.4499C35.4264 53.3834 37.2835 58.0635 37.6891 58.8744C37.9032 59.3166 38.5684 60.0317 39.1312 60.5941Z" fill="white"/>
<path d="M32.0759 46.903C32.0759 46.903 32.1574 49.4355 32.7259 51.037C33.2944 52.6385 35.7315 57.18 36.3265 58.3149C36.9216 59.4497 37.0845 59.7696 37.0845 59.7696C36.6117 60.3956 36.169 61.047 35.758 61.7215C35.3525 62.4489 34.621 62.8279 34.784 63.1192C34.9469 63.4106 35.1364 63.38 36.0025 63.1478C36.8685 62.9155 37.1395 62.3898 37.8445 61.7786C38.5494 61.1673 39.116 61.1388 39.1426 60.6722C39.1691 60.2056 38.2765 59.3336 38.087 58.7794C37.8975 58.2252 36.8155 55.7823 36.192 53.1315C35.5685 50.4808 34.9735 49.6393 34.9469 49.3194C34.9204 48.9995 35.1895 46.9885 35.1895 46.9885L32.0759 46.903Z" stroke="#263238" stroke-width="0.75" stroke-linecap="round" stroke-linejoin="round"/>
<path d="M39.135 60.6721C39.1502 60.4317 38.9171 60.0813 38.6631 59.7227L37.4029 60.9064C37.4029 60.9064 37.2665 60.4989 37.1054 60.12C37.0778 60.0378 37.0276 59.9667 36.9614 59.9162C36.5289 60.4915 36.1247 61.0906 35.7504 61.7112C35.3449 62.4386 34.6134 62.8176 34.7764 63.1089C34.9393 63.4003 35.1289 63.3697 35.9949 63.1375C36.8609 62.9052 37.1319 62.3795 37.8369 61.7683C38.5418 61.157 39.1085 61.1387 39.135 60.6721Z" fill="#263238" stroke="#263238" stroke-width="0.75" stroke-linecap="round" stroke-linejoin="round"/>
<path d="M38.2688 46.64C38.5593 47.594 38.9788 48.4968 39.5139 49.3193C40.4614 50.8332 44.1984 55.0833 44.5509 55.6355C44.9034 56.1877 45.5269 58.5185 45.7694 59.3335C46.012 60.1485 46.7719 59.8286 47.0429 58.7793C47.3139 57.73 45.7979 55.4032 45.4985 54.9366C45.199 54.4701 43.6034 52.3755 42.6293 49.8124C41.6553 47.2492 41.0849 45.7965 41.0849 45.7965C41.0849 45.7965 38.6478 46.3201 38.2688 46.64Z" fill="white"/>
<path d="M45.4988 54.9366C45.2012 54.4721 43.6037 52.3755 42.6297 49.8124C41.6556 47.2492 41.0852 45.7965 41.0852 45.7965C41.0852 45.7965 38.6481 46.3201 38.2691 46.64C38.4422 47.2247 38.6708 47.7887 38.9514 48.323C39.5931 48.2656 40.2224 48.0999 40.8161 47.832C40.8161 47.832 42.2089 51.2019 43.1963 52.6995C43.7193 53.4941 44.8506 54.5719 45.7963 55.4073C45.6655 55.1954 45.5575 55.0283 45.4988 54.9366Z" fill="#5667FD"/>
<path opacity="0.5" d="M45.4988 54.9366C45.2012 54.4721 43.6037 52.3755 42.6297 49.8124C41.6556 47.2492 41.0852 45.7965 41.0852 45.7965C41.0852 45.7965 38.6481 46.3201 38.2691 46.64C38.4422 47.2247 38.6708 47.7887 38.9514 48.323C39.5931 48.2656 40.2224 48.0999 40.8161 47.832C40.8161 47.832 42.2089 51.2019 43.1963 52.6995C43.7193 53.4941 44.8506 54.5719 45.7963 55.4073C45.6655 55.1954 45.5575 55.0283 45.4988 54.9366Z" fill="white"/>
<path d="M38.2688 46.64C38.5593 47.594 38.9788 48.4968 39.5139 49.3193C40.4614 50.8332 44.1984 55.0833 44.5509 55.6355C44.9034 56.1877 45.5269 58.5185 45.7694 59.3335C46.012 60.1485 46.7719 59.8286 47.0429 58.7793C47.3139 57.73 45.7979 55.4032 45.4985 54.9366C45.199 54.4701 43.6034 52.3755 42.6293 49.8124C41.6553 47.2492 41.0849 45.7965 41.0849 45.7965C41.0849 45.7965 38.6478 46.3201 38.2688 46.64Z" stroke="#263238" stroke-width="0.75" stroke-linecap="round" stroke-linejoin="round"/>
<path d="M45.7694 59.3332C46.0139 60.1482 46.7719 59.8283 47.0429 58.779C47.3139 57.7297 45.7978 55.4029 45.4984 54.9363L45.4188 54.8161C45.5515 55.1971 45.6879 55.5781 45.6879 55.5781C45.6059 55.486 45.5014 55.4207 45.3864 55.3897C45.2714 55.3587 45.1506 55.3633 45.0379 55.4029C44.6058 55.519 44.8219 56.2179 44.8219 56.2179V56.2362C45.163 57.1572 45.5799 58.6995 45.7694 59.3332Z" fill="#263238" stroke="#263238" stroke-width="0.75" stroke-linecap="round" stroke-linejoin="round"/>
<path d="M27.5278 40.7128C27.5278 40.7128 27.9485 39.6818 29.5138 39.3803C31.0791 39.0787 33.0537 40.8065 33.8572 41.1142C34.6607 41.4218 35.108 35.8595 34.3064 30.6354C33.5048 25.4113 32.3791 25.0263 30.6925 27.4427C29.0059 29.8592 27.6907 39.2458 27.5278 40.7128Z" fill="#263238" stroke="#263238" stroke-width="0.75" stroke-linecap="round" stroke-linejoin="round"/>
<path d="M49.3207 25.6782C47.0201 20.9023 45.3127 20.2626 43.9331 19.1582C42.5535 18.0539 42.4701 18.0234 41.3065 17.1208C40.143 16.2182 37.8367 15.1668 37.0029 14.9345C36.7696 14.8627 36.5232 14.8552 36.2864 14.9125C36.0497 14.9698 35.8301 15.0902 35.6479 15.2626C35.6479 15.2626 34.4559 15.6701 32.9948 17.2634C31.5338 18.8567 32.7769 20.2035 32.7769 20.2035C32.7769 20.2035 32.3979 21.9801 34.3214 24.0176C36.2449 26.0551 37.3535 31.9964 43.7966 32.3448C50.2398 32.6932 51.6194 30.452 49.3207 25.6782ZM33.3454 18.8363C32.8906 19.5189 32.8868 19.8347 32.9342 19.9692C32.9518 20.0005 32.9714 20.0305 32.9929 20.0588C32.9647 20.0367 32.9441 20.0052 32.9342 19.9692C32.8376 19.7851 32.7763 19.5821 32.7538 19.3721C32.7314 19.1622 32.7482 18.9495 32.8034 18.7467C32.9929 17.9032 34.4825 17.0882 34.4825 17.0882C34.4825 17.0882 34.0182 17.8176 33.3416 18.8363H33.3454Z" fill="#263238" stroke="#263238" stroke-width="0.75" stroke-linecap="round" stroke-linejoin="round"/>
<path d="M35.6765 22.6789C35.3381 22.6837 35.001 22.6349 34.6759 22.5343C34.0524 22.3591 33.5388 22.5343 32.8604 23.3778C32.182 24.2213 31.3709 26.4931 31.3709 28.1822C31.3709 29.8712 32.3468 31.8496 32.3468 31.8496C32.3468 31.8496 31.2629 33.5102 30.8308 36.654C30.3987 39.7978 31.0468 47.3956 31.0468 47.3956C31.0468 47.3956 33.9178 48.125 36.8684 47.5993C38.6964 47.2647 40.4787 46.6878 42.1746 45.8817C42.1746 45.8817 42.2826 42.4771 40.9276 37.9926C40.2271 35.6011 39.4137 33.2496 38.4906 30.947C38.4906 30.947 39.1956 27.9479 39.2221 25.9104C39.2486 23.8729 38.5721 23.2026 38.0585 22.9418C37.545 22.681 35.6765 22.6789 35.6765 22.6789Z" fill="#263238"/>
<path opacity="0.3" d="M35.6765 22.6796C35.3381 22.6843 35.001 22.6356 34.6759 22.5349C34.0524 22.3597 33.5388 22.5349 32.8604 23.3785C32.182 24.222 31.3709 26.4938 31.3709 28.1828C31.3709 29.8719 32.3468 31.8503 32.3468 31.8503C32.3468 31.8503 31.2629 33.5108 30.8308 36.6547C30.3987 39.7985 31.0468 47.3963 31.0468 47.3963C31.0468 47.3963 33.9178 48.1257 36.8684 47.6C38.6964 47.2654 40.4787 46.6884 42.1746 45.8824C42.1746 45.8824 42.2826 42.4778 40.9276 37.9933C40.2271 35.6018 39.4137 33.2502 38.4906 30.9477C38.4906 30.9477 39.1956 27.9485 39.2221 25.911C39.2486 23.8736 38.5721 23.2032 38.0585 22.9424C37.545 22.6816 35.6765 22.6796 35.6765 22.6796Z" fill="white" stroke="#263238" stroke-width="0.75" stroke-linecap="round" stroke-linejoin="round"/>
<path d="M35.6765 22.6789C35.3381 22.6837 35.001 22.6349 34.6759 22.5343C34.0524 22.3591 33.5388 22.5343 32.8604 23.3778C32.182 24.2213 31.3709 26.4931 31.3709 28.1822C31.3709 29.8712 32.3468 31.8496 32.3468 31.8496C32.3468 31.8496 31.2629 33.5102 30.8308 36.654C30.3987 39.7978 31.0468 47.3956 31.0468 47.3956C31.0468 47.3956 33.9178 48.125 36.8684 47.5993C38.6964 47.2647 40.4787 46.6878 42.1746 45.8817C42.1746 45.8817 42.2826 42.4771 40.9276 37.9926C40.2271 35.6011 39.4137 33.2496 38.4906 30.947C38.4906 30.947 39.1956 27.9479 39.2221 25.9104C39.2486 23.8729 38.5721 23.2026 38.0585 22.9418C37.545 22.681 35.6765 22.6789 35.6765 22.6789Z" stroke="#263238" stroke-width="0.75" stroke-linecap="round" stroke-linejoin="round"/>
<path d="M34.9391 29.0544C34.9391 29.0544 35.3712 30.4806 36.5367 31.1224" stroke="#263238" stroke-width="0.75" stroke-linecap="round" stroke-linejoin="round"/>
<path d="M35.4527 20.6417C35.3897 21.2688 35.2534 21.8849 35.0472 22.4755C34.7497 23.2028 34.5602 23.0296 34.2892 24.3397C34.0182 25.6498 34.9392 27.396 35.9682 26.6686C36.9972 25.9412 37.6472 24.4559 37.5923 23.9017C37.5373 23.3475 37.2947 23.2334 37.2947 22.4755C37.3026 21.974 37.3663 21.4754 37.4842 20.9901C37.4842 20.9901 36.0762 21.1063 35.4527 20.6417Z" fill="white"/>
<path d="M35.4528 20.6418C35.3898 21.2578 35.2574 21.8633 35.0587 22.445C35.396 22.8402 36.0839 23.2824 37.31 22.773C37.2996 22.6742 37.2945 22.5749 37.2948 22.4755C37.3025 21.974 37.3662 21.4754 37.4843 20.9902C37.4843 20.9902 36.0763 21.1063 35.4528 20.6418Z" fill="#5667FD"/>
<path opacity="0.5" d="M35.4528 20.6418C35.3898 21.2578 35.2574 21.8633 35.0587 22.445C35.396 22.8402 36.0839 23.2824 37.31 22.773C37.2996 22.6742 37.2945 22.5749 37.2948 22.4755C37.3025 21.974 37.3662 21.4754 37.4843 20.9902C37.4843 20.9902 36.0763 21.1063 35.4528 20.6418Z" fill="white"/>
<path d="M35.4527 20.6417C35.3897 21.2688 35.2534 21.8849 35.0472 22.4755C34.7497 23.2028 34.5602 23.0296 34.2892 24.3397C34.0182 25.6498 34.9392 27.396 35.9682 26.6686C36.9972 25.9412 37.6472 24.4559 37.5923 23.9017C37.5373 23.3475 37.2947 23.2334 37.2947 22.4755C37.3026 21.974 37.3663 21.4754 37.4842 20.9901C37.4842 20.9901 36.0762 21.1063 35.4527 20.6417Z" stroke="#263238" stroke-width="0.75" stroke-linecap="round" stroke-linejoin="round"/>
<path d="M36.266 13.2458C36.266 13.2458 34.7215 18.0502 34.6135 19.3032C34.588 19.6209 34.6234 19.9408 34.7174 20.2431C34.8114 20.5455 34.9621 20.8239 35.1601 21.0613C35.3581 21.2986 35.5992 21.4898 35.8687 21.623C36.1381 21.7562 36.43 21.8286 36.7265 21.8358C38.053 21.8643 39.1085 20.2058 39.1085 20.2058C39.1085 20.2058 39.6505 20.6724 40.3536 20.1488C41.0567 19.6251 42.6883 14.994 42.6883 14.994C42.6883 14.994 41.8488 13.4496 39.7093 13.0135C37.5698 12.5775 36.266 13.2458 36.266 13.2458Z" fill="white"/>
<path d="M39.7033 13.0136C39.328 12.9368 38.9479 12.8898 38.5662 12.873L37.9238 15.318C37.9238 15.318 38.8505 18.201 38.7936 19.0119C38.7368 19.8228 38.0962 21.3815 36.4134 21.3815C36.0152 21.3849 35.62 21.3082 35.248 21.1553C35.6401 21.5849 36.174 21.8309 36.7337 21.8399C38.0602 21.8685 39.1158 20.2099 39.1158 20.2099C39.1158 20.2099 39.6578 20.6765 40.3608 20.1529C41.0639 19.6293 42.688 14.994 42.688 14.994C42.688 14.994 41.8428 13.4496 39.7033 13.0136Z" fill="#5667FD"/>
<path opacity="0.5" d="M39.7033 13.0136C39.328 12.9368 38.9479 12.8898 38.5662 12.873L37.9238 15.318C37.9238 15.318 38.8505 18.201 38.7936 19.0119C38.7368 19.8228 38.0962 21.3815 36.4134 21.3815C36.0152 21.3849 35.62 21.3082 35.248 21.1553C35.6401 21.5849 36.174 21.8309 36.7337 21.8399C38.0602 21.8685 39.1158 20.2099 39.1158 20.2099C39.1158 20.2099 39.6578 20.6765 40.3608 20.1529C41.0639 19.6293 42.688 14.994 42.688 14.994C42.688 14.994 41.8428 13.4496 39.7033 13.0136Z" fill="white"/>
<path d="M36.266 13.2458C36.266 13.2458 34.7215 18.0502 34.6135 19.3032C34.588 19.6209 34.6234 19.9408 34.7174 20.2431C34.8114 20.5455 34.9621 20.8239 35.1601 21.0613C35.3581 21.2986 35.5992 21.4898 35.8687 21.623C36.1381 21.7562 36.43 21.8286 36.7265 21.8358C38.053 21.8643 39.1085 20.2058 39.1085 20.2058C39.1085 20.2058 39.6505 20.6724 40.3536 20.1488C41.0567 19.6251 42.6883 14.994 42.6883 14.994C42.6883 14.994 41.8488 13.4496 39.7093 13.0135C37.5698 12.5775 36.266 13.2458 36.266 13.2458Z" stroke="#263238" stroke-width="0.75" stroke-linecap="round" stroke-linejoin="round"/>
<path d="M37.0238 16.8273C36.943 17.1234 36.7581 17.374 36.5084 17.5261C36.1028 17.7584 35.7504 17.7299 35.8868 17.9621C36.0115 18.124 36.1829 18.2366 36.3738 18.282" stroke="#263238" stroke-width="0.75" stroke-linecap="round" stroke-linejoin="round"/>
<path d="M36.1026 18.7775C36.3236 18.9517 36.587 19.053 36.8607 19.0688C37.1862 19.096 37.5108 19.0041 37.7817 18.808C37.7817 18.808 36.9422 19.8553 36.5082 19.8553C36.0742 19.8553 36.1026 18.7775 36.1026 18.7775Z" fill="#263238"/>
<path d="M37.5107 17.09C37.5107 17.09 37.9978 16.5358 38.3768 17.2061" stroke="#263238" stroke-width="0.75" stroke-linecap="round" stroke-linejoin="round"/>
<path d="M35.9683 16.8274C36.0154 16.7731 36.0746 16.7326 36.1404 16.7098C36.2062 16.687 36.2762 16.6826 36.344 16.6971C36.4118 16.7116 36.475 16.7445 36.5276 16.7926C36.5803 16.8407 36.6206 16.9025 36.6448 16.9721" stroke="#263238" stroke-width="0.75" stroke-linecap="round" stroke-linejoin="round"/>
<path d="M35.866 16.2162C35.9305 16.0687 36.0347 15.9454 36.1651 15.8622C36.2955 15.7791 36.4461 15.7398 36.5975 15.7496" stroke="#263238" stroke-width="0.75" stroke-linecap="round" stroke-linejoin="round"/>
<path d="M37.7004 15.7801C37.7004 15.7801 37.9979 15.6619 38.2689 16.2446" stroke="#263238" stroke-width="0.75" stroke-linecap="round" stroke-linejoin="round"/>
<path d="M37.9164 15.3136C37.9164 15.3136 38.6744 17.0597 39.3793 18.8934C40.0843 20.7272 42.9534 22.999 43.4461 23.1457C43.9388 23.2924 45.5041 20.4664 45.5041 20.4664C45.5041 20.4664 42.7563 18.38 41.7481 17.4733C40.74 16.5666 39.6238 15.605 37.9164 15.3136Z" fill="#263238" stroke="#263238" stroke-width="0.75" stroke-linecap="round" stroke-linejoin="round"/>
<path d="M36.2449 14.7899L33.1598 12.6648C33.1598 12.6648 36.9499 10.9757 37.8974 10.0446C37.8974 10.0446 44.0165 14.3233 46.2641 14.6147C46.2641 14.6147 42.8265 16.0409 41.2555 16.4484L36.2449 14.7899Z" fill="#5667FD" stroke="#263238" stroke-width="0.75" stroke-linecap="round" stroke-linejoin="round"/>
<path d="M42.688 14.994C42.688 14.994 41.8485 13.4496 39.709 13.0135C37.5695 12.5775 36.2714 13.2458 36.2714 13.2458C36.2714 13.2458 35.9833 14.1423 35.6479 15.2629C36.5936 15.0306 37.5819 15.1014 38.4905 15.4667C39.817 15.9516 41.0166 16.8583 41.7481 17.4817C42.2541 16.2144 42.688 14.994 42.688 14.994Z" fill="#5667FD" stroke="#263238" stroke-width="0.75" stroke-linecap="round" stroke-linejoin="round"/>
<path d="M33.1523 12.665C33.1523 12.665 32.9343 14.352 31.7973 14.1789C30.6603 14.0057 31.0658 12.3736 32.3658 11.0635C33.6658 9.75345 33.0708 8.21108 32.2029 7.94824" stroke="#263238" stroke-width="0.75" stroke-linecap="round" stroke-linejoin="round"/>
<path d="M32.4208 8.00503C32.4208 8.00503 32.0683 7.65662 31.2288 7.54049C30.3893 7.42435 29.0362 7.13299 29.0893 7.24913C29.1423 7.36526 29.1158 7.65662 29.1708 7.86037C29.2257 8.06412 29.3337 8.32695 29.6313 8.32695C29.9288 8.32695 31.9868 8.26787 32.2313 8.26787C32.4757 8.26787 32.4208 8.00503 32.4208 8.00503Z" fill="#263238" stroke="#263238" stroke-width="0.75" stroke-linecap="round" stroke-linejoin="round"/>
<path d="M49.6997 15.4579C49.6997 15.4579 49.9707 18.2534 50.5127 19.5635C51.0547 20.8736 51.8013 23.6771 51.6763 25.2684C51.5872 26.4237 51.2158 26.5785 50.9182 26.5785C50.6207 26.5785 49.6656 25.8756 49.0497 24.5981C47.8994 22.2163 48.2386 20.464 48.5892 19.0663C48.9398 17.6686 49.6997 15.4579 49.6997 15.4579Z" fill="#263238"/>
<path opacity="0.3" d="M49.6998 15.4586C49.6998 15.4586 49.9708 18.254 50.5127 19.5641C51.0547 20.8742 51.7711 23.582 51.6763 25.2691C51.6119 26.4264 51.2158 26.5792 50.9183 26.5792C50.6208 26.5792 50.0788 27.0437 49.0498 24.5987C48.0207 22.1538 48.2387 20.4647 48.5893 19.067C48.9398 17.6693 49.6998 15.4586 49.6998 15.4586Z" fill="white" stroke="#263238" stroke-width="0.75" stroke-linecap="round" stroke-linejoin="round"/>
<path d="M49.6997 15.4579C49.6997 15.4579 49.9707 18.2534 50.5127 19.5635C51.0547 20.8736 51.8013 23.6771 51.6763 25.2684C51.5872 26.4237 51.2158 26.5785 50.9182 26.5785C50.6207 26.5785 49.6656 25.8756 49.0497 24.5981C47.8994 22.2163 48.2386 20.464 48.5892 19.0663C48.9398 17.6686 49.6997 15.4579 49.6997 15.4579Z" stroke="#263238" stroke-width="0.75" stroke-linecap="round" stroke-linejoin="round"/>
<path d="M49.7227 15.8084C49.7227 15.8084 51.4566 13.3043 51.7807 12.6055C52.1047 11.9066 52.6202 11.1792 52.9992 11.1202C53.3782 11.0611 54.3542 11.9351 54.4072 12.4893C54.4603 13.0435 53.8671 13.7118 53.3782 13.9441C53.061 14.0831 52.7116 14.1137 52.3776 14.0317C52.3776 14.0317 50.9696 16.768 50.1832 18.0496C49.3967 19.3312 48.9381 19.9139 48.7751 20.0586C48.6122 20.2032 48.2066 19.5064 48.4511 18.5447C48.6955 17.583 49.7227 15.8084 49.7227 15.8084Z" fill="white" stroke="#263238" stroke-width="0.75" stroke-linecap="round" stroke-linejoin="round"/>
<path d="M53.9126 11.4218C53.9126 11.4218 53.344 12.3386 53.4047 12.5118C53.4653 12.685 53.6586 12.9193 53.7742 12.7604C53.8898 12.6015 54.3427 11.9169 54.3276 11.6439C54.3124 11.3708 54.1191 11.2975 53.9126 11.4218Z" fill="white" stroke="#263238" stroke-width="0.75" stroke-linecap="round" stroke-linejoin="round"/>
<path d="M54.3124 11.8806C54.3124 11.8806 53.8065 12.6956 53.8671 12.8402C53.9277 12.9849 54.0888 13.1886 54.1912 13.0582C54.2935 12.9278 54.6971 12.3166 54.6763 12.0762C54.6555 11.8357 54.4944 11.7726 54.3124 11.8806Z" fill="white" stroke="#263238" stroke-width="0.75" stroke-linecap="round" stroke-linejoin="round"/>
<path d="M53.4899 10.8292C53.4899 10.8292 52.8115 11.907 52.893 12.1107C52.9745 12.3145 53.1905 12.5773 53.327 12.4021C53.4634 12.2269 54.0035 11.4119 53.977 11.092C53.9504 10.7721 53.7306 10.6845 53.4899 10.8292Z" fill="white" stroke="#263238" stroke-width="0.75" stroke-linecap="round" stroke-linejoin="round"/>
<path d="M52.9726 10.3645C52.9726 10.3645 52.2961 11.4403 52.3775 11.646C52.459 11.8518 52.6751 12.1106 52.8096 11.9354C52.9442 11.7601 53.488 10.9472 53.4596 10.6253C53.4312 10.3033 53.217 10.2178 52.9726 10.3645Z" fill="white" stroke="#263238" stroke-width="0.75" stroke-linecap="round" stroke-linejoin="round"/>
<path d="M51.7542 12.9565C51.7542 12.9565 52.4857 10.9475 52.6487 10.9475C52.8117 10.9475 53.7042 11.4997 53.7573 11.7625C53.8103 12.0253 53.7573 12.0539 53.5962 12.0824C53.4351 12.1109 52.9197 11.791 52.9197 11.791C52.9197 11.791 53.1622 12.4023 52.8098 12.8383C52.4573 13.2743 52.1598 13.3049 52.1598 13.3049" fill="white"/>
<path d="M51.7542 12.9565C51.7542 12.9565 52.4857 10.9475 52.6487 10.9475C52.8117 10.9475 53.7042 11.4997 53.7573 11.7625C53.8103 12.0253 53.7573 12.0539 53.5962 12.0824C53.4351 12.1109 52.9197 11.791 52.9197 11.791C52.9197 11.791 53.1622 12.4023 52.8098 12.8383C52.4573 13.2743 52.1598 13.3049 52.1598 13.3049" stroke="#263238" stroke-width="0.75" stroke-linecap="round" stroke-linejoin="round"/>
<path d="M27.4897 13.0197C27.4897 13.0197 26.0646 10.3017 25.824 9.55594C25.5833 8.81022 25.1588 8.02783 24.7893 7.92596C24.4197 7.82408 23.3509 8.55146 23.2315 9.09343C23.1121 9.6354 23.6257 10.3791 24.0824 10.6766C24.3801 10.8593 24.7226 10.9397 25.0641 10.9068C25.0641 10.9068 26.1404 13.8122 26.7696 15.1855C27.3988 16.5588 27.7853 17.2026 27.9294 17.3697C28.0734 17.5367 28.5585 16.897 28.4297 15.9108C28.3008 14.9247 27.4897 13.0197 27.4897 13.0197Z" fill="white" stroke="#263238" stroke-width="0.75" stroke-linecap="round" stroke-linejoin="round"/>
<path d="M23.8495 8.10111C23.8495 8.10111 24.3138 9.08929 24.2285 9.25228C24.1432 9.41528 23.9291 9.61088 23.8324 9.45603C23.7358 9.30118 23.3606 8.5412 23.4155 8.27429C23.4705 8.00738 23.6581 7.95033 23.8495 8.10111Z" fill="white" stroke="#263238" stroke-width="0.75" stroke-linecap="round" stroke-linejoin="round"/>
<path d="M23.3983 8.50258C23.3983 8.50258 23.8057 9.37055 23.728 9.52132C23.6503 9.6721 23.4665 9.83713 23.3812 9.69451C23.2959 9.55189 22.9643 8.8897 23.0136 8.65539C23.0628 8.42108 23.2296 8.37015 23.3983 8.50258Z" fill="white" stroke="#263238" stroke-width="0.75" stroke-linecap="round" stroke-linejoin="round"/>
<path d="M24.3403 7.57077C24.3403 7.57077 24.8842 8.73009 24.7799 8.92162C24.6757 9.11314 24.4312 9.34337 24.3157 9.15185C24.2001 8.96033 23.7604 8.0781 23.8248 7.76433C23.8893 7.45056 24.1167 7.39351 24.3403 7.57077Z" fill="white" stroke="#263238" stroke-width="0.75" stroke-linecap="round" stroke-linejoin="round"/>
<path d="M24.905 7.17792C24.905 7.17792 25.4508 8.33929 25.3446 8.53081C25.2385 8.72233 24.996 8.95257 24.8823 8.76105C24.7686 8.56952 24.3251 7.6873 24.3895 7.37352C24.454 7.05975 24.6852 7.00066 24.905 7.17792Z" fill="white" stroke="#263238" stroke-width="0.75" stroke-linecap="round" stroke-linejoin="round"/>
<path d="M25.8089 9.91405C25.8089 9.91405 25.32 7.82155 25.1589 7.80118C24.9978 7.7808 24.0465 8.20868 23.9612 8.45929C23.876 8.7099 23.9271 8.74657 24.0863 8.79751C24.2455 8.84844 24.7913 8.59376 24.7913 8.59376C24.7913 8.59376 24.4786 9.16629 24.7761 9.64714C25.0736 10.128 25.3655 10.1973 25.3655 10.1973" fill="white"/>
<path d="M25.8089 9.91405C25.8089 9.91405 25.32 7.82155 25.1589 7.80118C24.9978 7.7808 24.0465 8.20868 23.9612 8.45929C23.876 8.7099 23.9271 8.74657 24.0863 8.79751C24.2455 8.84844 24.7913 8.59376 24.7913 8.59376C24.7913 8.59376 24.4786 9.16629 24.7761 9.64714C25.0736 10.128 25.3655 10.1973 25.3655 10.1973" stroke="#263238" stroke-width="0.75" stroke-linecap="round" stroke-linejoin="round"/>
<path d="M39.0874 22.6789C39.0874 22.6789 38.6269 21.7478 38.0584 21.8924C37.4899 22.0371 36.8664 24.0766 36.8664 26.7824C36.8664 29.4882 38.3294 34.8467 39.5195 38.1923C40.7096 41.5378 41.009 46.4033 40.901 49.431C40.793 52.4587 40.3059 52.8662 40.4405 53.0109C40.575 53.1555 41.0905 53.1861 43.935 51.8475C46.7794 50.5088 46.7226 49.0806 46.7226 49.0806L46.2356 47.0431C46.2356 47.0431 47.238 46.6641 48.9985 46.6947C50.759 46.7252 52.4362 45.5883 52.4911 44.0154C52.5461 42.4425 50.5961 40.5517 49.7831 39.8223C48.9701 39.0928 50.9884 37.5077 46.8041 34.6695C44.5679 33.1536 43.393 30.564 42.8775 29.4576C42.3621 28.3513 42.4455 27.7115 42.9855 27.2164C43.5256 26.7213 45.8035 25.8187 47.2911 25.9063C48.7787 25.9939 50.9201 26.5766 50.9201 26.5766C50.9201 26.5766 49.1596 25.6455 49.0781 21.976C49.0281 19.783 49.2376 17.5922 49.7016 15.4561C49.7016 15.4561 48.9985 16.1549 47.6985 17.4365C46.3985 18.7181 46.48 19.0379 45.451 19.0379C44.422 19.0379 43.501 19.2702 43.1769 20.1728C42.8529 21.0754 42.4739 21.5991 41.6893 21.5705C40.9048 21.542 40.6603 20.9878 39.9004 21.5991C39.1405 22.2103 39.0874 22.6789 39.0874 22.6789Z" fill="#5667FD" stroke="#263238" stroke-width="0.75" stroke-linecap="round" stroke-linejoin="round"/>
<path d="M39.0874 22.679C39.0874 22.679 38.0584 25.0955 38.3294 28.7915C38.6004 32.4874 40.2245 36.7967 42.4455 39.5636C44.6665 42.3305 46.0726 46.7253 46.0726 46.7253" stroke="#263238" stroke-width="0.75" stroke-linecap="round" stroke-linejoin="round"/>
<path d="M41.1928 30.2766C41.1928 30.2766 41.9243 33.5671 43.9824 36.3035C46.0404 39.0398 49.3435 39.7387 49.3435 39.7387" stroke="#263238" stroke-width="0.75" stroke-linecap="round" stroke-linejoin="round"/>
<path d="M40.6243 26.4935C40.6243 26.4935 40.3002 27.5713 41.0583 29.3174C41.8163 31.0635 42.0058 31.2978 42.0058 31.2978" stroke="#263238" stroke-width="0.75" stroke-linecap="round" stroke-linejoin="round"/>
<path d="M42.8776 27.2493C42.3984 27.7096 42.0037 28.2625 41.7141 28.8793" stroke="#263238" stroke-width="0.75" stroke-linecap="round" stroke-linejoin="round"/>
<path d="M47.2857 25.9105C47.5642 25.9268 47.8655 25.9615 48.1706 26.0043C47.9244 25.895 47.707 25.7219 47.5381 25.5004C47.3691 25.279 47.2537 25.016 47.2023 24.7349C46.9256 23.6 47.7822 20.4562 48.1498 19.1196C48.3738 18.2969 48.5087 17.4491 48.5516 16.5931L47.7556 17.3796C47.6914 17.8943 47.5913 18.403 47.4562 18.9016C46.791 21.3364 46.2168 23.7528 46.5087 24.9325C46.5901 25.2831 46.7308 25.6147 46.9237 25.9105C47.0469 25.9044 47.1682 25.9044 47.2857 25.9105Z" fill="#263238"/>
<path d="M34.35 22.7384C34.35 22.7384 34.621 21.8053 34.079 21.3407C33.537 20.8762 32.9704 21.573 32.9704 21.573C32.4835 21.2568 32.0966 20.7904 31.8599 20.2344C31.3994 19.2441 31.9413 18.6044 30.8839 17.1781C29.8265 15.7519 29.1518 15.3159 29.4228 13.9773C29.6938 12.6386 30.8308 11.6484 30.0179 11.0657C29.2049 10.483 27.2284 10.5115 25.7673 12.2882C24.3062 14.0649 24.4673 15.0531 23.8987 15.7234C23.3302 16.3937 22.0833 17.2372 22.8413 18.5473C23.5993 19.8574 24.8728 20.3525 26.0629 20.5563C27.253 20.76 28.9604 22.3024 29.3394 24.02C29.7185 25.7376 29.2314 27.7465 28.4999 29.3786C27.7684 31.0106 25.7104 33.1622 25.0888 36.4812C24.4673 39.8003 26.4154 41.5179 26.7679 42.828C27.1203 44.1381 27.6074 47.4856 27.0388 49.3785C26.6877 50.5203 25.9505 51.4787 24.9732 52.0638C24.9732 52.0638 25.7597 53.3149 27.7078 53.5471C29.6559 53.7794 30.0368 53.5471 30.1998 52.6445C30.3628 51.7419 30.5523 48.7142 29.9023 45.4828C29.2523 42.2514 27.8442 40.7966 28.7652 37.9441C29.6862 35.0917 30.5523 31.6544 31.5529 29.1504C32.5535 26.6463 34.35 22.7384 34.35 22.7384Z" fill="#5667FD" stroke="#263238" stroke-width="0.75" stroke-linecap="round" stroke-linejoin="round"/>
<path d="M30.4158 21.3097C30.4158 21.3097 30.9577 21.3688 30.6602 22.8541C30.3627 24.3394 29.3337 27.0167 29.3337 27.0167" stroke="#263238" stroke-width="0.75" stroke-linecap="round" stroke-linejoin="round"/>
<path d="M26.7072 42.5628C26.7072 42.5628 26.1387 41.544 26.4363 38.9829C26.7338 36.4218 27.9068 33.1027 28.8543 30.1606C29.8019 27.2185 30.2339 26.1142 30.2339 26.1142" stroke="#263238" stroke-width="0.75" stroke-linecap="round" stroke-linejoin="round"/>
<path d="M33.0971 21.8353C33.0971 21.8353 33.0971 22.3874 31.8236 25.2114C30.5502 28.0353 29.902 30.3641 29.8755 32.0247" stroke="#263238" stroke-width="0.75" stroke-linecap="round" stroke-linejoin="round"/>
<path d="M25.2251 16.9738C25.4525 16.77 25.6875 16.5663 25.8998 16.3523C26.5081 15.7411 26.7507 15.03 26.9648 14.4127C27.1543 13.8768 27.3097 13.4123 27.6792 13.1229C28.1227 12.7705 28.9925 13.1433 29.5572 13.4734C29.6462 13.2313 29.7488 12.9952 29.8642 12.7664C29.1934 12.3752 28.0374 11.874 27.2509 12.4974C26.709 12.9253 26.4929 13.5427 26.2864 14.1417C26.0969 14.7061 25.8884 15.2908 25.4014 15.788C25.2119 15.9917 24.9939 16.173 24.7684 16.3727C24.0995 16.9615 23.3206 17.6502 22.9738 18.7668C23.142 19.0176 23.3387 19.2449 23.5594 19.4432C23.7375 18.2879 24.4652 17.6441 25.2251 16.9738Z" fill="#263238"/>
</svg>
