<svg width="139" height="26" viewBox="0 0 139 26" fill="none" xmlns="http://www.w3.org/2000/svg">
<path d="M40.542 19.077C39.64 19.077 38.8993 18.8643 38.32 18.439C37.7407 18.0063 37.429 17.3903 37.385 16.591H39.684C39.706 16.8623 39.7867 17.0603 39.926 17.185C40.0653 17.3097 40.245 17.372 40.465 17.372C40.663 17.372 40.8243 17.3243 40.949 17.229C41.081 17.1263 41.147 16.987 41.147 16.811C41.147 16.5837 41.0407 16.4077 40.828 16.283C40.6153 16.1583 40.2707 16.019 39.794 15.865C39.288 15.6963 38.8773 15.535 38.562 15.381C38.254 15.2197 37.9827 14.9887 37.748 14.688C37.5207 14.38 37.407 13.9803 37.407 13.489C37.407 12.9903 37.5317 12.565 37.781 12.213C38.0303 11.8537 38.375 11.5823 38.815 11.399C39.255 11.2157 39.7537 11.124 40.311 11.124C41.213 11.124 41.9317 11.3367 42.467 11.762C43.0097 12.18 43.2993 12.7703 43.336 13.533H40.993C40.9857 13.2983 40.9123 13.1223 40.773 13.005C40.641 12.8877 40.4687 12.829 40.256 12.829C40.0947 12.829 39.9627 12.8767 39.86 12.972C39.7573 13.0673 39.706 13.203 39.706 13.379C39.706 13.5257 39.761 13.654 39.871 13.764C39.9883 13.8667 40.1313 13.9583 40.3 14.039C40.4687 14.1123 40.718 14.2077 41.048 14.325C41.5393 14.4937 41.9427 14.6623 42.258 14.831C42.5807 14.9923 42.8557 15.2233 43.083 15.524C43.3177 15.8173 43.435 16.1913 43.435 16.646C43.435 17.108 43.3177 17.5223 43.083 17.889C42.8557 18.2557 42.522 18.5453 42.082 18.758C41.6493 18.9707 41.136 19.077 40.542 19.077ZM50.2783 11.245V12.961H48.2103V19H46.0543V12.961H44.0083V11.245H50.2783ZM53.188 11.245V15.744C53.188 16.162 53.2833 16.4847 53.474 16.712C53.672 16.9393 53.969 17.053 54.365 17.053C54.761 17.053 55.058 16.9393 55.256 16.712C55.4613 16.4773 55.564 16.1547 55.564 15.744V11.245H57.72V15.744C57.72 16.4553 57.5696 17.064 57.269 17.57C56.9683 18.0687 56.5576 18.4463 56.037 18.703C55.5236 18.9523 54.9516 19.077 54.321 19.077C53.6903 19.077 53.1256 18.9523 52.627 18.703C52.1356 18.4463 51.747 18.0687 51.461 17.57C51.1823 17.0713 51.043 16.4627 51.043 15.744V11.245H53.188ZM61.976 11.245C62.79 11.245 63.5013 11.41 64.11 11.74C64.726 12.0627 65.199 12.5173 65.529 13.104C65.859 13.6907 66.024 14.3617 66.024 15.117C66.024 15.865 65.8553 16.5323 65.518 17.119C65.188 17.7057 64.715 18.1677 64.099 18.505C63.4903 18.835 62.7827 19 61.976 19H58.907V11.245H61.976ZM61.811 17.097C62.4417 17.097 62.9367 16.9247 63.296 16.58C63.6553 16.2353 63.835 15.7477 63.835 15.117C63.835 14.479 63.6553 13.9877 63.296 13.643C62.9367 13.291 62.4417 13.115 61.811 13.115H61.063V17.097H61.811ZM74.0469 11.245L71.3189 16.536V19H69.1519V16.536L66.4239 11.245H68.8879L70.2519 14.237L71.6159 11.245H74.0469ZM85.8672 11.245V19H83.7112V14.721L82.2482 19H80.4442L78.9702 14.688V19H76.8142V11.245H79.4212L81.3682 16.283L83.2712 11.245H85.8672ZM92.0005 17.735H89.2505L88.8325 19H86.5665L89.3935 11.245H91.8795L94.6955 19H92.4185L92.0005 17.735ZM91.4615 16.085L90.6255 13.577L89.8005 16.085H91.4615ZM101.239 11.245V12.961H99.1712V19H97.0152V12.961H94.9692V11.245H101.239ZM104.193 12.972V14.237H106.668V15.876H104.193V17.273H106.998V19H102.037V11.245H106.998V12.972H104.193ZM111.99 19L110.45 16.14H110.219V19H108.063V11.245H111.462C112.086 11.245 112.614 11.355 113.046 11.575C113.479 11.7877 113.805 12.0847 114.025 12.466C114.245 12.84 114.355 13.2617 114.355 13.731C114.355 14.259 114.209 14.7247 113.915 15.128C113.629 15.524 113.208 15.8063 112.65 15.975L114.399 19H111.99ZM110.219 14.666H111.286C111.58 14.666 111.8 14.5963 111.946 14.457C112.093 14.3177 112.166 14.116 112.166 13.852C112.166 13.6027 112.089 13.4083 111.935 13.269C111.789 13.1223 111.572 13.049 111.286 13.049H110.219V14.666ZM117.492 11.245V19H115.336V11.245H117.492ZM123.626 17.735H120.876L120.458 19H118.192L121.019 11.245H123.505L126.321 19H124.044L123.626 17.735ZM123.087 16.085L122.251 13.577L121.426 16.085H123.087ZM129.179 17.35H131.588V19H127.023V11.245H129.179V17.35ZM135.353 19.077C134.451 19.077 133.71 18.8643 133.131 18.439C132.551 18.0063 132.24 17.3903 132.196 16.591H134.495C134.517 16.8623 134.597 17.0603 134.737 17.185C134.876 17.3097 135.056 17.372 135.276 17.372C135.474 17.372 135.635 17.3243 135.76 17.229C135.892 17.1263 135.958 16.987 135.958 16.811C135.958 16.5837 135.851 16.4077 135.639 16.283C135.426 16.1583 135.081 16.019 134.605 15.865C134.099 15.6963 133.688 15.535 133.373 15.381C133.065 15.2197 132.793 14.9887 132.559 14.688C132.331 14.38 132.218 13.9803 132.218 13.489C132.218 12.9903 132.342 12.565 132.592 12.213C132.841 11.8537 133.186 11.5823 133.626 11.399C134.066 11.2157 134.564 11.124 135.122 11.124C136.024 11.124 136.742 11.3367 137.278 11.762C137.82 12.18 138.11 12.7703 138.147 13.533H135.804C135.796 13.2983 135.723 13.1223 135.584 13.005C135.452 12.8877 135.279 12.829 135.067 12.829C134.905 12.829 134.773 12.8767 134.671 12.972C134.568 13.0673 134.517 13.203 134.517 13.379C134.517 13.5257 134.572 13.654 134.682 13.764C134.799 13.8667 134.942 13.9583 135.111 14.039C135.279 14.1123 135.529 14.2077 135.859 14.325C136.35 14.4937 136.753 14.6623 137.069 14.831C137.391 14.9923 137.666 15.2233 137.894 15.524C138.128 15.8173 138.246 16.1913 138.246 16.646C138.246 17.108 138.128 17.5223 137.894 17.889C137.666 18.2557 137.333 18.5453 136.893 18.758C136.46 18.9707 135.947 19.077 135.353 19.077Z" fill="white"/>
<path d="M1.96564 22.2834L3.11225 24.5001C3.35052 24.9667 3.69301 25.3334 4.09508 25.6001L8.19015 17.6667H0C0 18.1834 0.11913 18.7001 0.357388 19.1667L1.96564 22.2834Z" fill="#0066DA"/>
<path d="M13 8.33348L8.90492 0.400146C8.50288 0.666813 8.16037 1.03348 7.92212 1.50015L0.357388 16.1668C0.123511 16.6234 0.000311395 17.1405 0 17.6668H8.19015L13 8.33348Z" fill="#00AC47"/>
<path d="M21.9052 25.6001C22.3073 25.3334 22.6498 24.9667 22.8881 24.5001L23.3646 23.5834L25.643 19.1667C25.8811 18.7001 26.0003 18.1834 26.0003 17.6667H17.8096L19.5524 21.5001L21.9052 25.6001Z" fill="#EA4335"/>
<path d="M13.0003 8.33334L17.0954 0.4C16.6934 0.133333 16.2317 0 15.7552 0H10.2455C9.76897 0 9.30734 0.15 8.90527 0.4L13.0003 8.33334Z" fill="#00832D"/>
<path d="M17.8095 17.6667H8.1898L4.09473 25.6001C4.4968 25.8668 4.95843 26.0001 5.43493 26.0001H20.5644C21.0409 26.0001 21.5025 25.8501 21.9046 25.6001L17.8095 17.6667Z" fill="#2684FC"/>
<path d="M21.8603 8.83349L18.0779 1.50015C17.8397 1.03348 17.4971 0.666813 17.0951 0.400146L13 8.33348L17.8099 17.6668H25.9851C25.9851 17.1501 25.866 16.6335 25.6279 16.1668L21.8603 8.83349Z" fill="#FFBA00"/>
</svg>
