<svg width="100" height="34" viewBox="0 0 116 44" fill="none" xmlns="http://www.w3.org/2000/svg">
<path d="M83.7693 22.154V18.842H89.3133V32H85.6233V22.154H83.7693ZM99.6476 32.126C98.1716 32.126 96.9596 31.778 96.0116 31.082C95.0636 30.374 94.5536 29.366 94.4816 28.058H98.2436C98.2796 28.502 98.4116 28.826 98.6396 29.03C98.8676 29.234 99.1616 29.336 99.5216 29.336C99.8456 29.336 100.11 29.258 100.314 29.102C100.53 28.934 100.638 28.706 100.638 28.418C100.638 28.046 100.464 27.758 100.116 27.554C99.7676 27.35 99.2036 27.122 98.4236 26.87C97.5956 26.594 96.9236 26.33 96.4076 26.078C95.9036 25.814 95.4596 25.436 95.0756 24.944C94.7036 24.44 94.5176 23.786 94.5176 22.982C94.5176 22.166 94.7216 21.47 95.1296 20.894C95.5376 20.306 96.1016 19.862 96.8216 19.562C97.5416 19.262 98.3576 19.112 99.2696 19.112C100.746 19.112 101.922 19.46 102.798 20.156C103.686 20.84 104.16 21.806 104.22 23.054H100.386C100.374 22.67 100.254 22.382 100.026 22.19C99.8096 21.998 99.5276 21.902 99.1796 21.902C98.9156 21.902 98.6996 21.98 98.5316 22.136C98.3636 22.292 98.2796 22.514 98.2796 22.802C98.2796 23.042 98.3696 23.252 98.5496 23.432C98.7416 23.6 98.9756 23.75 99.2516 23.882C99.5276 24.002 99.9356 24.158 100.476 24.35C101.28 24.626 101.94 24.902 102.456 25.178C102.984 25.442 103.434 25.82 103.806 26.312C104.19 26.792 104.382 27.404 104.382 28.148C104.382 28.904 104.19 29.582 103.806 30.182C103.434 30.782 102.888 31.256 102.168 31.604C101.46 31.952 100.62 32.126 99.6476 32.126ZM115.58 19.31V22.118H112.196V32H108.668V22.118H105.32V19.31H115.58Z" fill="white"/>
<path d="M20.213 11.555L13.021 25.504V32H7.308V25.504L0.116 11.555H6.612L10.208 19.443L13.804 11.555H20.213ZM27.642 16.108V19.443H34.167V23.764H27.642V27.447H35.037V32H21.958V11.555H35.037V16.108H27.642ZM50.7797 28.665H43.5297L42.4277 32H36.4537L43.9067 11.555H50.4607L57.8847 32H51.8817L50.7797 28.665ZM49.3587 24.315L47.1547 17.703L44.9797 24.315H49.3587ZM70.0903 32L66.0303 24.46H65.4213V32H59.7373V11.555H68.6983C70.3416 11.555 71.7336 11.845 72.8743 12.425C74.0149 12.9857 74.8753 13.7687 75.4553 14.774C76.0353 15.76 76.3253 16.8717 76.3253 18.109C76.3253 19.501 75.9386 20.7287 75.1653 21.792C74.4113 22.836 73.2996 23.5803 71.8303 24.025L76.4413 32H70.0903ZM65.4213 20.574H68.2343C69.0076 20.574 69.5876 20.3903 69.9743 20.023C70.3609 19.6557 70.5543 19.124 70.5543 18.428C70.5543 17.7707 70.3513 17.2583 69.9453 16.891C69.5586 16.5043 68.9883 16.311 68.2343 16.311H65.4213V20.574Z" fill="white"/>
</svg>
