<svg width="50" height="40" viewBox="0 0 38 42" fill="none" xmlns="http://www.w3.org/2000/svg">
<path d="M3.804 39.144C3.34 39.144 2.928 39.096 2.568 39C2.208 38.896 1.896 38.756 1.632 38.58C1.368 38.396 1.152 38.196 0.984 37.98C0.816 37.756 0.692 37.52 0.612 37.272L1.584 36.936C1.704 37.288 1.944 37.596 2.304 37.86C2.672 38.116 3.12 38.244 3.648 38.244C4.296 38.244 4.804 38.116 5.172 37.86C5.54 37.604 5.724 37.264 5.724 36.84C5.724 36.448 5.56 36.132 5.232 35.892C4.904 35.644 4.472 35.452 3.936 35.316L3.012 35.076C2.636 34.98 2.288 34.84 1.968 34.656C1.656 34.464 1.404 34.224 1.212 33.936C1.028 33.64 0.936 33.288 0.936 32.88C0.936 32.12 1.18 31.528 1.668 31.104C2.164 30.672 2.876 30.456 3.804 30.456C4.356 30.456 4.832 30.548 5.232 30.732C5.632 30.908 5.956 31.136 6.204 31.416C6.46 31.688 6.64 31.984 6.744 32.304L5.784 32.64C5.632 32.24 5.376 31.928 5.016 31.704C4.656 31.472 4.22 31.356 3.708 31.356C3.172 31.356 2.744 31.488 2.424 31.752C2.112 32.008 1.956 32.36 1.956 32.808C1.956 33.192 2.08 33.488 2.328 33.696C2.576 33.896 2.9 34.044 3.3 34.14L4.224 34.368C5.04 34.56 5.664 34.88 6.096 35.328C6.536 35.768 6.756 36.244 6.756 36.756C6.756 37.196 6.644 37.6 6.42 37.968C6.196 38.328 5.864 38.616 5.424 38.832C4.992 39.04 4.452 39.144 3.804 39.144ZM10.8391 39.144C10.2551 39.144 9.73909 39.012 9.29109 38.748C8.84309 38.476 8.49109 38.104 8.23509 37.632C7.98709 37.16 7.86309 36.616 7.86309 36C7.86309 35.384 7.98709 34.84 8.23509 34.368C8.49109 33.896 8.83909 33.528 9.27909 33.264C9.72709 32.992 10.2391 32.856 10.8151 32.856C11.3671 32.856 11.8471 32.996 12.2551 33.276C12.6711 33.548 12.9911 33.932 13.2151 34.428C13.4391 34.924 13.5511 35.508 13.5511 36.18H12.5911C12.5911 35.668 12.5231 35.232 12.3871 34.872C12.2511 34.504 12.0471 34.22 11.7751 34.02C11.5111 33.82 11.1871 33.72 10.8031 33.72C10.4111 33.72 10.0631 33.816 9.75909 34.008C9.46309 34.192 9.23509 34.456 9.07509 34.8C8.91509 35.144 8.83509 35.548 8.83509 36.012C8.83509 36.468 8.92309 36.864 9.09909 37.2C9.27509 37.528 9.51909 37.788 9.83109 37.98C10.1431 38.164 10.4951 38.256 10.8871 38.256C11.3031 38.256 11.6551 38.156 11.9431 37.956C12.2311 37.756 12.4591 37.496 12.6271 37.176L13.4671 37.596C13.3151 37.908 13.1111 38.18 12.8551 38.412C12.6071 38.644 12.3111 38.824 11.9671 38.952C11.6311 39.08 11.2551 39.144 10.8391 39.144ZM8.49909 36.18L8.51109 35.352H12.9631V36.18H8.49909ZM18.4579 39L18.3979 38.016V35.832C18.3979 35.36 18.3419 34.972 18.2299 34.668C18.1259 34.356 17.9619 34.124 17.7379 33.972C17.5219 33.812 17.2339 33.732 16.8739 33.732C16.5299 33.732 16.2299 33.8 15.9739 33.936C15.7259 34.072 15.5219 34.284 15.3619 34.572L14.4979 34.224C14.6579 33.944 14.8499 33.7 15.0739 33.492C15.2979 33.284 15.5579 33.128 15.8539 33.024C16.1579 32.912 16.5019 32.856 16.8859 32.856C17.4379 32.856 17.8979 32.964 18.2659 33.18C18.6339 33.396 18.9099 33.72 19.0939 34.152C19.2779 34.576 19.3659 35.108 19.3579 35.748L19.3459 39H18.4579ZM16.6579 39.144C15.9539 39.144 15.4019 38.984 15.0019 38.664C14.6099 38.336 14.4139 37.884 14.4139 37.308C14.4139 36.7 14.6139 36.236 15.0139 35.916C15.4219 35.588 15.9899 35.424 16.7179 35.424H18.4339V36.228H16.9339C16.3739 36.228 15.9739 36.32 15.7339 36.504C15.5019 36.688 15.3859 36.952 15.3859 37.296C15.3859 37.608 15.5019 37.856 15.7339 38.04C15.9659 38.216 16.2899 38.304 16.7059 38.304C17.0499 38.304 17.3499 38.224 17.6059 38.064C17.8619 37.904 18.0579 37.688 18.1939 37.416C18.3299 37.136 18.3979 36.82 18.3979 36.468H18.9859C18.9859 37.284 18.7859 37.936 18.3859 38.424C17.9859 38.904 17.4099 39.144 16.6579 39.144ZM21.4071 35.748C21.4071 35.1 21.5311 34.576 21.7791 34.176C22.0271 33.768 22.3431 33.468 22.7271 33.276C23.1191 33.076 23.5311 32.976 23.9631 32.976V33.876C23.6111 33.876 23.2711 33.936 22.9431 34.056C22.6231 34.168 22.3591 34.356 22.1511 34.62C21.9431 34.884 21.8391 35.244 21.8391 35.7L21.4071 35.748ZM20.8791 39V33H21.8391V39H20.8791ZM27.6098 39.144C27.0178 39.144 26.4938 39.012 26.0378 38.748C25.5818 38.476 25.2258 38.104 24.9698 37.632C24.7138 37.16 24.5858 36.616 24.5858 36C24.5858 35.384 24.7098 34.84 24.9578 34.368C25.2138 33.896 25.5698 33.528 26.0258 33.264C26.4818 32.992 27.0018 32.856 27.5858 32.856C28.1618 32.856 28.6778 32.988 29.1338 33.252C29.5898 33.516 29.9378 33.888 30.1778 34.368L29.3018 34.764C29.1418 34.444 28.9098 34.196 28.6058 34.02C28.3018 33.836 27.9538 33.744 27.5618 33.744C27.1698 33.744 26.8218 33.84 26.5178 34.032C26.2218 34.224 25.9858 34.492 25.8098 34.836C25.6418 35.172 25.5578 35.56 25.5578 36C25.5578 36.44 25.6418 36.832 25.8098 37.176C25.9858 37.512 26.2258 37.776 26.5298 37.968C26.8418 38.16 27.1938 38.256 27.5858 38.256C27.9778 38.256 28.3258 38.156 28.6298 37.956C28.9418 37.756 29.1778 37.476 29.3378 37.116L30.2138 37.512C29.9738 38.024 29.6258 38.424 29.1698 38.712C28.7138 39 28.1938 39.144 27.6098 39.144ZM31.4259 39V30.444H32.3859V39H31.4259ZM35.6499 39V35.928L36.6099 35.568V39H35.6499ZM35.6499 35.928C35.6499 35.336 35.5779 34.884 35.4339 34.572C35.2979 34.26 35.1099 34.048 34.8699 33.936C34.6299 33.816 34.3579 33.756 34.0539 33.756C33.5259 33.756 33.1139 33.944 32.8179 34.32C32.5299 34.688 32.3859 35.212 32.3859 35.892H31.9179C31.9179 35.26 32.0099 34.716 32.1939 34.26C32.3779 33.804 32.6459 33.456 32.9979 33.216C33.3499 32.976 33.7739 32.856 34.2699 32.856C34.9899 32.856 35.5619 33.08 35.9859 33.528C36.4099 33.976 36.6179 34.656 36.6099 35.568L35.6499 35.928Z" fill="#5E5F60"/>
<path fill-rule="evenodd" clip-rule="evenodd" d="M17.6667 2C12.8802 2 9 5.88019 9 10.6667C9 15.4531 12.8802 19.3333 17.6667 19.3333C22.4531 19.3333 26.3333 15.4531 26.3333 10.6667C26.3333 5.88019 22.4531 2 17.6667 2ZM10.3333 10.6667C10.3333 6.61657 13.6166 3.33333 17.6667 3.33333C21.7167 3.33333 25 6.61657 25 10.6667C25 14.7167 21.7167 18 17.6667 18C13.6166 18 10.3333 14.7167 10.3333 10.6667Z" fill="#5E5F60"/>
<path d="M25.2492 17.3064C24.9889 17.0461 24.5668 17.0461 24.3064 17.3064C24.0461 17.5668 24.0461 17.9889 24.3064 18.2492L27.8619 21.8047C28.1222 22.0651 28.5443 22.0651 28.8047 21.8047C29.065 21.5444 29.065 21.1223 28.8047 20.8619L25.2492 17.3064Z" fill="#5E5F60"/>
</svg>
