<svg width="118" height="21" viewBox="0 0 118 21" fill="none" xmlns="http://www.w3.org/2000/svg">
<path d="M41.566 12.018C42.0207 12.1207 42.38 12.348 42.644 12.7C42.9153 13.0447 43.051 13.4407 43.051 13.888C43.051 14.548 42.8237 15.065 42.369 15.439C41.9143 15.813 41.2763 16 40.455 16H36.616V8.245H40.334C41.126 8.245 41.7457 8.421 42.193 8.773C42.6477 9.125 42.875 9.62 42.875 10.258C42.875 10.7127 42.754 11.094 42.512 11.402C42.2773 11.7027 41.962 11.908 41.566 12.018ZM38.772 11.325H39.861C40.4037 11.325 40.675 11.1013 40.675 10.654C40.675 10.192 40.4037 9.961 39.861 9.961H38.772V11.325ZM40.026 14.262C40.5687 14.262 40.84 14.0347 40.84 13.58C40.84 13.3453 40.7667 13.1657 40.62 13.041C40.4807 12.9163 40.279 12.854 40.015 12.854H38.772V14.262H40.026ZM43.7319 12.106C43.7319 11.3433 43.8895 10.665 44.2049 10.071C44.5275 9.46967 44.9822 9.004 45.5689 8.674C46.1555 8.33667 46.8302 8.168 47.5929 8.168C48.5609 8.168 49.3749 8.42833 50.0349 8.949C50.6949 9.46233 51.1202 10.1627 51.3109 11.05H48.9899C48.8505 10.7567 48.6562 10.533 48.4069 10.379C48.1649 10.225 47.8825 10.148 47.5599 10.148C47.0612 10.148 46.6615 10.3277 46.3609 10.687C46.0675 11.039 45.9209 11.512 45.9209 12.106C45.9209 12.7073 46.0675 13.1877 46.3609 13.547C46.6615 13.899 47.0612 14.075 47.5599 14.075C47.8825 14.075 48.1649 13.998 48.4069 13.844C48.6562 13.69 48.8505 13.4663 48.9899 13.173H51.3109C51.1202 14.0603 50.6949 14.7643 50.0349 15.285C49.3749 15.7983 48.5609 16.055 47.5929 16.055C46.8302 16.055 46.1555 15.89 45.5689 15.56C44.9822 15.2227 44.5275 14.757 44.2049 14.163C43.8895 13.5617 43.7319 12.876 43.7319 12.106ZM57.2378 14.735H54.4878L54.0698 16H51.8038L54.6308 8.245H57.1168L59.9328 16H57.6558L57.2378 14.735ZM56.6988 13.085L55.8628 10.577L55.0378 13.085H56.6988ZM65.667 16.077C64.765 16.077 64.0243 15.8643 63.445 15.439C62.8657 15.0063 62.554 14.3903 62.51 13.591H64.809C64.831 13.8623 64.9117 14.0603 65.051 14.185C65.1903 14.3097 65.37 14.372 65.59 14.372C65.788 14.372 65.9493 14.3243 66.074 14.229C66.206 14.1263 66.272 13.987 66.272 13.811C66.272 13.5837 66.1657 13.4077 65.953 13.283C65.7403 13.1583 65.3957 13.019 64.919 12.865C64.413 12.6963 64.0023 12.535 63.687 12.381C63.379 12.2197 63.1077 11.9887 62.873 11.688C62.6457 11.38 62.532 10.9803 62.532 10.489C62.532 9.99033 62.6567 9.565 62.906 9.213C63.1553 8.85367 63.5 8.58233 63.94 8.399C64.38 8.21567 64.8787 8.124 65.436 8.124C66.338 8.124 67.0567 8.33667 67.592 8.762C68.1347 9.18 68.4243 9.77033 68.461 10.533H66.118C66.1107 10.2983 66.0373 10.1223 65.898 10.005C65.766 9.88767 65.5937 9.829 65.381 9.829C65.2197 9.829 65.0877 9.87667 64.985 9.972C64.8823 10.0673 64.831 10.203 64.831 10.379C64.831 10.5257 64.886 10.654 64.996 10.764C65.1133 10.8667 65.2563 10.9583 65.425 11.039C65.5937 11.1123 65.843 11.2077 66.173 11.325C66.6643 11.4937 67.0677 11.6623 67.383 11.831C67.7057 11.9923 67.9807 12.2233 68.208 12.524C68.4427 12.8173 68.56 13.1913 68.56 13.646C68.56 14.108 68.4427 14.5223 68.208 14.889C67.9807 15.2557 67.647 15.5453 67.207 15.758C66.7743 15.9707 66.261 16.077 65.667 16.077ZM76.6133 8.245L73.8853 13.536V16H71.7183V13.536L68.9903 8.245H71.4543L72.8183 11.237L74.1823 8.245H76.6133ZM79.4312 14.35H81.8402V16H77.2752V8.245H79.4312V14.35ZM84.8345 14.35H87.2435V16H82.6785V8.245H84.8345V14.35ZM92.9878 14.735H90.2378L89.8198 16H87.5538L90.3808 8.245H92.8668L95.6828 16H93.4058L92.9878 14.735ZM92.4488 13.085L91.6128 10.577L90.7878 13.085H92.4488ZM101.336 12.018C101.79 12.1207 102.15 12.348 102.414 12.7C102.685 13.0447 102.821 13.4407 102.821 13.888C102.821 14.548 102.593 15.065 102.139 15.439C101.684 15.813 101.046 16 100.225 16H96.3855V8.245H100.104C100.896 8.245 101.515 8.421 101.963 8.773C102.417 9.125 102.645 9.62 102.645 10.258C102.645 10.7127 102.524 11.094 102.282 11.402C102.047 11.7027 101.732 11.908 101.336 12.018ZM98.5415 11.325H99.6305C100.173 11.325 100.445 11.1013 100.445 10.654C100.445 10.192 100.173 9.961 99.6305 9.961H98.5415V11.325ZM99.7955 14.262C100.338 14.262 100.61 14.0347 100.61 13.58C100.61 13.3453 100.536 13.1657 100.39 13.041C100.25 12.9163 100.049 12.854 99.7845 12.854H98.5415V14.262H99.7955ZM105.877 8.245V12.744C105.877 13.162 105.973 13.4847 106.163 13.712C106.361 13.9393 106.658 14.053 107.054 14.053C107.45 14.053 107.747 13.9393 107.945 13.712C108.151 13.4773 108.253 13.1547 108.253 12.744V8.245H110.409V12.744C110.409 13.4553 110.259 14.064 109.958 14.57C109.658 15.0687 109.247 15.4463 108.726 15.703C108.213 15.9523 107.641 16.077 107.01 16.077C106.38 16.077 105.815 15.9523 105.316 15.703C104.825 15.4463 104.436 15.0687 104.15 14.57C103.872 14.0713 103.732 13.4627 103.732 12.744V8.245H105.877ZM114.522 16.077C113.62 16.077 112.88 15.8643 112.3 15.439C111.721 15.0063 111.409 14.3903 111.365 13.591H113.664C113.686 13.8623 113.767 14.0603 113.906 14.185C114.046 14.3097 114.225 14.372 114.445 14.372C114.643 14.372 114.805 14.3243 114.929 14.229C115.061 14.1263 115.127 13.987 115.127 13.811C115.127 13.5837 115.021 13.4077 114.808 13.283C114.596 13.1583 114.251 13.019 113.774 12.865C113.268 12.6963 112.858 12.535 112.542 12.381C112.234 12.2197 111.963 11.9887 111.728 11.688C111.501 11.38 111.387 10.9803 111.387 10.489C111.387 9.99033 111.512 9.565 111.761 9.213C112.011 8.85367 112.355 8.58233 112.795 8.399C113.235 8.21567 113.734 8.124 114.291 8.124C115.193 8.124 115.912 8.33667 116.447 8.762C116.99 9.18 117.28 9.77033 117.316 10.533H114.973C114.966 10.2983 114.893 10.1223 114.753 10.005C114.621 9.88767 114.449 9.829 114.236 9.829C114.075 9.829 113.943 9.87667 113.84 9.972C113.738 10.0673 113.686 10.203 113.686 10.379C113.686 10.5257 113.741 10.654 113.851 10.764C113.969 10.8667 114.112 10.9583 114.28 11.039C114.449 11.1123 114.698 11.2077 115.028 11.325C115.52 11.4937 115.923 11.6623 116.238 11.831C116.561 11.9923 116.836 12.2233 117.063 12.524C117.298 12.8173 117.415 13.1913 117.415 13.646C117.415 14.108 117.298 14.5223 117.063 14.889C116.836 15.2557 116.502 15.5453 116.062 15.758C115.63 15.9707 115.116 16.077 114.522 16.077Z" fill="white"/>
<g clip-path="url(#clip0_224_440)">
<mask id="mask0_224_440" style="mask-type:alpha" maskUnits="userSpaceOnUse" x="-1" y="0" width="20" height="20">
<path d="M11.4056 0H1.4892C0.526735 0 -0.260742 0.605114 -0.260742 1.3447V18.3775C-0.260742 19.1171 0.526735 19.7222 1.4892 19.7222H16.6554C17.6179 19.7222 18.4054 19.1171 18.4054 18.3775V5.37878L11.4056 0Z" fill="white"/>
</mask>
<g mask="url(#mask0_224_440)">
<path d="M11.4056 0H1.4892C0.526735 0 -0.260742 0.605114 -0.260742 1.3447V18.3775C-0.260742 19.1171 0.526735 19.7222 1.4892 19.7222H16.6554C17.6179 19.7222 18.4054 19.1171 18.4054 18.3775V5.37878L14.3221 3.13762L11.4056 0Z" fill="#673AB7"/>
</g>
<mask id="mask1_224_440" style="mask-type:alpha" maskUnits="userSpaceOnUse" x="-1" y="0" width="20" height="20">
<path d="M11.4056 0H1.4892C0.526735 0 -0.260742 0.605114 -0.260742 1.3447V18.3775C-0.260742 19.1171 0.526735 19.7222 1.4892 19.7222H16.6554C17.6179 19.7222 18.4054 19.1171 18.4054 18.3775V5.37878L11.4056 0Z" fill="white"/>
</mask>
<g mask="url(#mask1_224_440)">
<path d="M7.3225 15.2399H13.739V14.3434H7.3225V15.2399ZM7.3225 9.86108V10.7575H13.739V9.86108H7.3225ZM5.86421 10.3093C5.86421 10.6802 5.47192 10.9817 4.98925 10.9817C4.50654 10.9817 4.11426 10.6802 4.11426 10.3093C4.11426 9.9384 4.50654 9.63696 4.98925 9.63696C5.47192 9.63696 5.86421 9.9384 5.86421 10.3093ZM5.86421 12.5505C5.86421 12.9214 5.47192 13.2228 4.98925 13.2228C4.50654 13.2228 4.11426 12.9214 4.11426 12.5505C4.11426 12.1796 4.50654 11.8781 4.98925 11.8781C5.47192 11.8781 5.86421 12.1796 5.86421 12.5505ZM5.86421 14.7916C5.86421 15.1625 5.47192 15.464 4.98925 15.464C4.50654 15.464 4.11426 15.1625 4.11426 14.7916C4.11426 14.4207 4.50654 14.1193 4.98925 14.1193C5.47192 14.1193 5.86421 14.4207 5.86421 14.7916ZM7.3225 12.9987H13.739V12.1022H7.3225V12.9987Z" fill="#F1F1F1"/>
</g>
<mask id="mask2_224_440" style="mask-type:alpha" maskUnits="userSpaceOnUse" x="-1" y="0" width="20" height="20">
<path d="M11.4056 0H1.4892C0.526735 0 -0.260742 0.605114 -0.260742 1.3447V18.3775C-0.260742 19.1171 0.526735 19.7222 1.4892 19.7222H16.6554C17.6179 19.7222 18.4054 19.1171 18.4054 18.3775V5.37878L11.4056 0Z" fill="white"/>
</mask>
<g mask="url(#mask2_224_440)">
<path d="M11.918 4.98535L18.4059 9.96969V5.37867L11.918 4.98535Z" fill="url(#paint0_linear_224_440)"/>
</g>
<mask id="mask3_224_440" style="mask-type:alpha" maskUnits="userSpaceOnUse" x="-1" y="0" width="20" height="20">
<path d="M11.4056 0H1.4892C0.526735 0 -0.260742 0.605114 -0.260742 1.3447V18.3775C-0.260742 19.1171 0.526735 19.7222 1.4892 19.7222H16.6554C17.6179 19.7222 18.4054 19.1171 18.4054 18.3775V5.37878L11.4056 0Z" fill="white"/>
</mask>
<g mask="url(#mask3_224_440)">
<path d="M11.4062 0V4.0341C11.4062 4.77704 12.1894 5.37878 13.1562 5.37878H18.4061L11.4062 0Z" fill="#B39DDB"/>
</g>
<mask id="mask4_224_440" style="mask-type:alpha" maskUnits="userSpaceOnUse" x="-1" y="0" width="20" height="20">
<path d="M11.4056 0H1.4892C0.526735 0 -0.260742 0.605114 -0.260742 1.3447V18.3775C-0.260742 19.1171 0.526735 19.7222 1.4892 19.7222H16.6554C17.6179 19.7222 18.4054 19.1171 18.4054 18.3775V5.37878L11.4056 0Z" fill="white"/>
</mask>
<g mask="url(#mask4_224_440)">
<path d="M1.4892 0C0.526735 0 -0.260742 0.605114 -0.260742 1.3447V1.45675C-0.260742 0.717172 0.526735 0.112058 1.4892 0.112058H11.4056V0H1.4892Z" fill="white" fill-opacity="0.2"/>
</g>
<mask id="mask5_224_440" style="mask-type:alpha" maskUnits="userSpaceOnUse" x="-1" y="0" width="20" height="20">
<path d="M11.4056 0H1.4892C0.526735 0 -0.260742 0.605114 -0.260742 1.3447V18.3775C-0.260742 19.1171 0.526735 19.7222 1.4892 19.7222H16.6554C17.6179 19.7222 18.4054 19.1171 18.4054 18.3775V5.37878L11.4056 0Z" fill="white"/>
</mask>
<g mask="url(#mask5_224_440)">
<path d="M16.9162 19.6101H1.74995C0.787477 19.6101 0 19.005 0 18.2654V18.3774C0 19.117 0.787477 19.7221 1.74995 19.7221H16.9162C17.8786 19.7221 18.6661 19.117 18.6661 18.3774V18.2654C18.6661 19.005 17.8786 19.6101 16.9162 19.6101Z" fill="#311B92" fill-opacity="0.2"/>
</g>
<mask id="mask6_224_440" style="mask-type:alpha" maskUnits="userSpaceOnUse" x="-1" y="0" width="20" height="20">
<path d="M11.4056 0H1.4892C0.526735 0 -0.260742 0.605114 -0.260742 1.3447V18.3775C-0.260742 19.1171 0.526735 19.7222 1.4892 19.7222H16.6554C17.6179 19.7222 18.4054 19.1171 18.4054 18.3775V5.37878L11.4056 0Z" fill="white"/>
</mask>
<g mask="url(#mask6_224_440)">
<path d="M13.1562 5.37886C12.1894 5.37886 11.4062 4.77712 11.4062 4.03418V4.14622C11.4062 4.88918 12.1894 5.49092 13.1562 5.49092H18.4061V5.37886H13.1562Z" fill="#311B92" fill-opacity="0.1"/>
<path d="M9.63508 0H1.22363C0.407227 0 -0.260742 0.613637 -0.260742 1.36364V18.6364C-0.260742 19.3864 0.407227 20 1.22363 20H14.0882C14.9046 20 15.5726 19.3864 15.5726 18.6364V5.45454L9.63508 0Z" fill="url(#paint1_radial_224_440)"/>
</g>
</g>
<defs>
<linearGradient id="paint0_linear_224_440" x1="15.1623" y1="5.41333" x2="15.1623" y2="9.97039" gradientUnits="userSpaceOnUse">
<stop stop-color="#311B92" stop-opacity="0.2"/>
<stop offset="1" stop-color="#311B92" stop-opacity="0.02"/>
</linearGradient>
<radialGradient id="paint1_radial_224_440" cx="0" cy="0" r="1" gradientUnits="userSpaceOnUse" gradientTransform="translate(0.240866 0.397542) scale(25.531 23.4544)">
<stop stop-color="white" stop-opacity="0.1"/>
<stop offset="1" stop-color="white" stop-opacity="0"/>
</radialGradient>
<clipPath id="clip0_224_440">
<rect width="19" height="20" fill="white"/>
</clipPath>
</defs>
</svg>
