<svg width="48" height="48" viewBox="0 0 48 48" fill="none" xmlns="http://www.w3.org/2000/svg">
<path d="M0.750375 33.9218H2.29088V27.8382L4.67587 33.1418C4.95712 33.7838 5.34225 34.0107 6.09787 34.0107C6.8535 34.0107 7.224 33.7838 7.50525 33.1418L9.89025 27.8382V33.9218H11.4307V27.8483C11.4307 27.2558 11.1937 26.9689 10.7048 26.8212C9.53438 26.4559 8.74913 26.772 8.39362 27.5622L6.05325 32.7964L3.78713 27.5618C3.44625 26.772 2.64638 26.4559 1.476 26.8208C0.987 26.9689 0.75 27.2554 0.75 27.8479V33.9218H0.750375ZM12.7121 28.9695H14.2523V32.3213C14.238 32.5032 14.3107 32.9307 15.1545 32.9442C15.585 32.9509 18.4778 32.9442 18.5047 32.9442V28.953H20.0486C20.0557 28.953 20.0471 34.3958 20.0471 34.4183C20.0554 35.7608 18.3818 36.0522 17.61 36.0747H12.7455V35.0382C12.7537 35.0382 17.6066 35.0393 17.6186 35.0378C18.6105 34.9332 18.4931 34.4404 18.4928 34.2747V33.8704H15.2186C13.6954 33.8565 12.7249 33.1917 12.7125 32.4267C12.7118 32.3565 12.7459 29.0033 12.7121 28.9695Z" fill="#00618A"/>
<path d="M21.2363 33.9218H25.6658C26.1844 33.9218 26.6884 33.8134 27.0881 33.6259C27.7545 33.3199 28.0804 32.9052 28.0804 32.3614V31.2357C28.0804 30.7913 27.7103 30.3762 26.9843 30.1002C26.5991 29.9517 26.1248 29.8733 25.6654 29.8733H23.7986C23.1765 29.8733 22.8803 29.6858 22.8064 29.271C22.7918 29.2215 22.7918 29.1821 22.7918 29.1326V28.4314C22.7918 28.392 22.7918 28.3523 22.8064 28.3032C22.8803 27.987 23.0434 27.8982 23.5916 27.8487L23.7398 27.8389H28.1396V26.8122H23.814C23.1919 26.8122 22.866 26.8515 22.5698 26.9404C21.6514 27.2269 21.2509 27.681 21.2509 28.4711V29.3697C21.2509 30.0612 22.0365 30.6537 23.3546 30.792C23.5031 30.8014 23.6509 30.8119 23.799 30.8119H25.3991C25.4584 30.8119 25.5176 30.8119 25.5623 30.8213C26.0513 30.8607 26.2583 30.9499 26.4068 31.1273C26.4448 31.1624 26.475 31.2052 26.4954 31.2528C26.5157 31.3005 26.5258 31.3519 26.5249 31.4037V32.3025C26.5249 32.4109 26.451 32.5493 26.3029 32.6678C26.1698 32.7863 25.9474 32.8654 25.6511 32.8853L25.488 32.895H21.2363V33.9218ZM37.6916 32.1345C37.6916 33.1909 38.4769 33.7834 40.0616 33.9023C40.2098 33.912 40.3579 33.9218 40.506 33.9218H44.5208V32.895H40.4768C39.573 32.895 39.2325 32.6678 39.2325 32.1244V26.8114H37.692V32.1345H37.6916ZM29.0636 32.1878V28.5259C29.0636 27.5959 29.7169 27.0315 31.0084 26.8534C31.146 26.8337 31.2849 26.8238 31.4239 26.8238H34.3485C34.497 26.8238 34.6305 26.8335 34.7786 26.8534C36.0701 27.0315 36.7238 27.5955 36.7238 28.5259V32.1878C36.7238 32.943 36.4463 33.3465 35.8069 33.6098L37.3249 34.9797H35.5358L34.308 33.8712L33.072 33.9495H31.4239C31.1177 33.9476 30.8132 33.9043 30.5186 33.8209C29.5388 33.5539 29.0636 33.039 29.0636 32.1878ZM30.7264 32.0989C30.7264 32.1484 30.741 32.1983 30.756 32.2575C30.8449 32.6832 31.2461 32.9205 31.8544 32.9205H33.2539L31.9684 31.7599H33.7575L34.8784 32.7724C35.0854 32.6618 35.2211 32.4938 35.2688 32.2774C35.2834 32.2279 35.2834 32.1784 35.2834 32.1289V28.6159C35.2834 28.5765 35.2834 28.5267 35.2688 28.4772C35.1795 28.0812 34.7786 27.8539 34.185 27.8539H31.854C31.1715 27.8539 30.726 28.1509 30.726 28.6159V32.0989H30.7264Z" fill="#E48E00"/>
<path d="M45.876 25.107C44.9292 25.0811 44.2058 25.1692 43.587 25.4299C43.4112 25.5041 43.131 25.506 43.1025 25.7261C43.1989 25.8277 43.2139 25.9789 43.2908 26.1033C43.4385 26.3422 43.6879 26.6625 43.9103 26.8301C44.1529 27.0135 44.4034 27.21 44.6644 27.369C45.1275 27.6517 45.645 27.813 46.0917 28.0957C46.3545 28.263 46.6155 28.473 46.8724 28.6616C46.9995 28.7542 47.0843 28.8994 47.2497 28.9575V28.9309C47.163 28.8206 47.1405 28.6691 47.061 28.5536L46.7108 28.2034C46.3684 27.7488 45.9342 27.3502 45.4718 27.0187C45.1035 26.7544 44.2793 26.397 44.1255 25.9683L44.0985 25.9417C44.3595 25.9121 44.6655 25.8176 44.9063 25.7531C45.3113 25.6444 45.6732 25.6725 46.0913 25.5645L46.6568 25.4025V25.2952C46.4457 25.0785 46.2945 24.7912 46.0643 24.5951C45.4617 24.0817 44.8032 23.5687 44.1255 23.1405C43.7498 22.9035 43.2852 22.7494 42.8865 22.5484C42.753 22.4805 42.5175 22.4456 42.4287 22.3327C42.219 22.0661 42.1054 21.7282 41.9438 21.4173C41.5986 20.7458 41.2753 20.0632 40.9744 19.3706C40.7704 18.9037 40.6369 18.4432 40.3823 18.0243C39.1594 16.014 37.8432 14.8005 35.8043 13.608C35.3704 13.3541 34.848 13.2543 34.2964 13.1235L33.4077 13.0695C33.2273 12.9941 33.039 12.7729 32.8692 12.6656C32.1934 12.2389 30.4609 11.3107 29.9607 12.5313C29.6449 13.3016 30.4332 14.0531 30.7148 14.4435C30.9124 14.7172 31.1659 15.024 31.3073 15.3318C31.4003 15.5343 31.416 15.7372 31.4959 15.9513C31.6913 16.4786 31.8619 17.0527 32.115 17.5398C32.2429 17.7866 32.3843 18.0465 32.5459 18.267C32.6449 18.402 32.8152 18.462 32.8418 18.6709C32.6757 18.9034 32.6659 19.2649 32.5725 19.5592C32.1518 20.8863 32.3104 22.536 32.9228 23.5181C33.1107 23.82 33.5532 24.4665 34.1614 24.2182C34.6935 24.0015 34.575 23.3298 34.7273 22.737C34.7618 22.6031 34.7404 22.5041 34.8079 22.4141V22.4411L35.2928 23.4105C35.6517 23.9883 36.288 24.5917 36.8277 24.9993C37.1074 25.2105 37.3279 25.5761 37.6894 25.6995V25.6721H37.6628C37.5923 25.563 37.4832 25.518 37.3932 25.4299C37.1824 25.2232 36.948 24.9667 36.774 24.7297C36.2832 24.0637 35.8497 23.3343 35.4544 22.5753C35.2658 22.2131 35.1019 21.8134 34.9429 21.4444C34.8814 21.3022 34.8822 21.087 34.7547 21.0138C34.5799 21.2838 34.3238 21.5025 34.1888 21.8216C33.9735 22.3316 33.9458 22.9537 33.8659 23.5987L33.8119 23.6253C33.4365 23.535 33.3049 23.1487 33.1654 22.8176C32.8129 21.9802 32.7473 20.6313 33.0578 19.6672C33.138 19.4175 33.5007 18.6318 33.3537 18.4012C33.2835 18.1713 33.0522 18.0386 32.9232 17.8623C32.7539 17.6265 32.6095 17.3738 32.4923 17.1082C32.2035 16.4554 32.0689 15.7222 31.7655 15.0619C31.62 14.7461 31.3748 14.427 31.173 14.1465C30.9499 13.8352 30.6998 13.6065 30.5265 13.2307C30.465 13.0972 30.3814 12.8831 30.4725 12.7458C30.5014 12.6532 30.543 12.6146 30.6345 12.5842C30.7905 12.4638 31.2255 12.6244 31.3883 12.6919C31.8203 12.8715 32.1807 13.0421 32.5467 13.2843C32.7222 13.401 32.8995 13.626 33.1122 13.6882H33.3544C33.7335 13.7752 34.1584 13.7148 34.5124 13.8225C35.1387 14.013 35.6997 14.3088 36.2089 14.6306C37.761 15.6108 39.0297 17.0058 39.8982 18.6701C40.0377 18.9382 40.0984 19.1936 40.221 19.4779C40.4693 20.0509 40.782 20.6407 41.0288 21.2013C41.2752 21.7605 41.5155 22.3248 41.8639 22.7902C42.0469 23.0347 42.7542 23.166 43.0755 23.3017C43.3009 23.397 43.6699 23.4964 43.8833 23.6246C44.2909 23.8706 44.6862 24.1635 45.0683 24.4327C45.2592 24.5685 45.8468 24.8636 45.876 25.107ZM33.8389 14.8473C33.6756 14.8447 33.5127 14.8628 33.354 14.9013V14.928H33.381C33.4752 15.1218 33.6413 15.2464 33.7579 15.4129L34.0275 15.9784L34.0542 15.9517C34.221 15.8343 34.2972 15.6465 34.2964 15.3592C34.2293 15.2887 34.2195 15.2006 34.1618 15.117C34.0853 15.0045 33.936 14.9415 33.8389 14.8473Z" fill="#00618A"/>
</svg>
