<svg width="48" height="48" viewBox="0 0 48 48" fill="none" xmlns="http://www.w3.org/2000/svg">
<g clip-path="url(#clip0_153_680)">
<path d="M8.5 3.86887e-06H39.5C40.6165 -0.00107545 41.7223 0.223684 42.7541 0.66142C43.7858 1.09916 44.7232 1.74127 45.5128 2.55102C46.3023 3.36078 46.9283 4.32226 47.3551 5.38046C47.7819 6.43866 48.0011 7.57279 48 8.71795V39.2821C48.0011 40.4272 47.7819 41.5613 47.3551 42.6195C46.9283 43.6777 46.3023 44.6392 45.5128 45.449C44.7232 46.2587 43.7858 46.9008 42.7541 47.3386C41.7223 47.7763 40.6165 48.0011 39.5 48H8.5C7.38347 48.0011 6.27769 47.7763 5.24595 47.3386C4.21421 46.9008 3.27676 46.2587 2.48725 45.449C1.69774 44.6392 1.07168 43.6777 0.644884 42.6195C0.218092 41.5613 -0.00104857 40.4272 3.77215e-06 39.2821V8.71795C-0.00104857 7.57279 0.218092 6.43866 0.644884 5.38046C1.07168 4.32226 1.69774 3.36078 2.48725 2.55102C3.27676 1.74127 4.21421 1.09916 5.24595 0.66142C6.27769 0.223684 7.38347 -0.00107545 8.5 3.86887e-06Z" fill="#F0F0F0"/>
<path d="M23.7061 8.64001H9.59998V22.7456H23.7061V8.64001Z" fill="#0078D4"/>
<path d="M39.3599 8.64001H25.2538V22.7456H39.3599V8.64001Z" fill="#0078D4"/>
<path d="M23.7061 24.2944H9.59998V38.4H23.7061V24.2944Z" fill="#0078D4"/>
<path d="M39.36 24.2944H25.2538V38.4H39.36V24.2944Z" fill="#0078D4"/>
</g>
<defs>
<clipPath id="clip0_153_680">
<rect width="48" height="48" fill="white"/>
</clipPath>
</defs>
</svg>
